{
.appVersion = "1271";
classes = (
{
automatic = 1;
code = "A Aacute Abreve Abreveacute Abrevedotbelow Abrevegrave Abrevehookabove Abrevetilde Acaron Acircumflex Acircumflexacute Acircumflexdotbelow Acircumflexgrave Acircumflexhookabove Acircumflextilde Adieresis Adotbelow Agrave Ahookabove Amacron Aogonek Aring Atilde AE B C Cacute Ccaron Ccedilla Cdotaccent D Eth Dcaron Dcroat E Eacute Ecaron Ecircumflex Ecircumflexacute Ecircumflexdotbelow Ecircumflexgrave Ecircumflexhookabove Ecircumflextilde Edieresis Edotaccent Edotbelow Egrave Ehookabove Emacron Eogonek Etilde F G Gbreve Gcommaaccent Gdotaccent H Hbar I Iacute Icaron Icircumflex Idieresis Idotaccent Idotbelow Igrave Ihookabove Imacron Iogonek Itilde J K Kcommaaccent L Lacute Lcaron Lcommaaccent Lslash M N Nacute Ncaron Ncommaaccent Eng Ntilde O Oacute Ocaron Ocircumflex Ocircumflexacute Ocircumflexdotbelow Ocircumflexgrave Ocircumflexhookabove Ocircumflextilde Odieresis Odotbelow Ograve Ohookabove Ohorn Ohornacute Ohorndotbelow Ohorngrave Ohornhookabove Ohorntilde Ohungarumlaut Omacron Oslash Otilde OE P Thorn Q R Racute Rcaron Rcommaaccent S Sacute Scaron Scedilla Scommaaccent Germandbls T Tbar Tcaron Tcedilla Tcommaaccent U Uacute Ucaron Ucircumflex Udieresis Udieresisacute Udieresiscaron Udieresisgrave Udieresismacron Udotbelow Ugrave Uhookabove Uhorn Uhornacute Uhorndotbelow Uhorngrave Uhornhookabove Uhorntilde Uhungarumlaut Umacron Uogonek Uring Utilde V W Wacute Wcircumflex Wdieresis Wgrave X Y Yacute Ycircumflex Ydieresis Ydotbelow Ygrave Yhookabove Ytilde Z Zacute Zcaron Zdotaccent Delta Omega";
name = Uppercase;
}
);
copyright = "Copyright © 2019 by Alfredo Marco Pradil. All rights reserved.";
customParameters = (
{
name = description;
value = "Copyright (c)2015, Hanken Grotesk by Alfredo Marco Pradil (ammpradil@gmail.com) ";
},
{
name = licenseURL;
value = "http://scripts.sil.org/OFL";
},
{
name = license;

glyphs = (
{
color = 1;
glyphname = A;
lastChange = "2019-09-11 19:32:32 +0000";
layers = (
{
anchors = (
{
name = bottom;
position = "{308, 0}";
},
{
name = ogonek;
position = "{557, 0}";
},
{
name = top;
position = "{308, 697}";
}
);
layerId = "F91D9E91-C1BC-4259-B0D8-112C0CBA2B8E";
paths = (
{
closed = 1;
nodes = (
"71 0 LINE",
"308 691 LINE",
"545 0 LINE",
"557 0 LINE",
"317 697 LINE",
"298 697 LINE",
"59 0 LINE"
);
},
{
closed = 1;
nodes = (
"478 215 LINE",
"474 225 LINE",
"142 225 LINE",
"138 215 LINE"
);
}
);
width = 616;
},
{
anchors = (
{
name = bottom;
position = "{330, 0}";
},
{
name = ogonek;
position = "{655, 0}";
},
{
name = top;
position = "{330, 697}";
}
);
layerId = "5EAB4D72-96CB-4765-AAD5-A13175319428";
paths = (
{
closed = 1;
nodes = (
"140 0 LINE",
"330 513 LINE",
"519 0 LINE",
"655 0 LINE",
"377 697 LINE",
"283 697 LINE",
"4 0 LINE"
);
},
{
closed = 1;
nodes = (
"480 144 LINE",
"440 259 LINE",
"220 259 LINE",
"181 144 LINE"
);
}
);
width = 659;
},
{
anchors = (
{
name = bottom;
position = "{326, 0}";
},
{
name = ogonek;
position = "{616, 0}";
},
{
name = top;
position = "{326, 697}";
}
);
layerId = "AC39E679-6500-437B-9A87-662B1E841B74";
paths = (
{
closed = 1;
nodes = (
"114 0 LINE",
"326 596 LINE",
"537 0 LINE",
"616 0 LINE",
"355 697 LINE",
"296 697 LINE",
"36 0 LINE"
);
},
{
closed = 1;
nodes = (
"491 187 LINE",
"468 248 LINE",
"184 248 LINE",
"161 187 LINE"
);
}
);
width = 652;
},
{
anchors = (
{
name = bottom;
position = "{333, 0}";
},
{
name = ogonek;
position = "{679, 0}";
},
{
name = top;
position = "{333, 697}";
}
);
layerId = "957254E3-B7AD-4837-9092-D4428001DE8E";
paths = (
{
closed = 1;
nodes = (
"156 0 LINE",
"333 463 LINE",
"508 0 LINE",
"679 0 LINE",
"390 697 LINE",
"275 697 LINE",
"-15 0 LINE"
);
},
{
closed = 1;
nodes = (
"474 118 LINE",
"423 262 LINE",
"242 262 LINE",
"193 118 LINE"
);
}
);
width = 664;
}
);
leftKerningGroup = A;
note = A;
rightKerningGroup = A;
unicode = 0041;
},
{
color = 1;
glyphname = AE;
lastChange = "2019-09-11 19:30:51 +0000";
layers = (
{
anchors = (
{
name = bottom;
position = "{437, 0}";
},
{
name = top;
position = "{437, 697}";
}
);
layerId = "F91D9E91-C1BC-4259-B0D8-112C0CBA2B8E";
paths = (
{
closed = 1;
nodes = (
"71 0 LINE",
"134 185 LINE",
"395 185 LINE",
"395 0 LINE",
"813 0 LINE",
"813 10 LINE",
"406 10 LINE",
"406 346 LINE",
"758 346 LINE",
"758 357 LINE",
"406 357 LINE",
"406 687 LINE",
"813 687 LINE",
"813 697 LINE",
"298 697 LINE",
"59 0 LINE"
);
},
{
closed = 1;
nodes = (
"307 687 LINE",
"395 687 LINE",
"395 195 LINE",
"137 195 LINE"
);
}
);
width = 873;
},
{
anchors = (
{
name = bottom;
position = "{462, 0}";
},
{
name = top;
position = "{462, 697}";
}
);
layerId = "5EAB4D72-96CB-4765-AAD5-A13175319428";
paths = (
{
closed = 1;
nodes = (
"140 0 LINE",
"196 152 LINE",
"401 152 LINE",
"401 0 LINE",
"875 0 LINE",
"875 113 LINE",
"527 113 LINE",
"527 296 LINE",
"832 296 LINE",
"832 401 LINE",
"527 401 LINE",
"527 587 LINE",
"875 587 LINE",
"875 697 LINE",
"282 697 LINE",
"4 0 LINE"
);
},
{
closed = 1;
nodes = (
"358 592 LINE",
"401 592 LINE",
"401 267 LINE",
"238 267 LINE"
);
}
);
width = 924;
},
{
anchors = (
{
name = bottom;
position = "{453, 0}";
},
{
name = top;
position = "{453, 697}";
}
);
layerId = "AC39E679-6500-437B-9A87-662B1E841B74";
paths = (
{
closed = 1;
nodes = (
"114 0 LINE",
"173 167 LINE",
"399 167 LINE",
"399 0 LINE",
"847 0 LINE",
"847 65 LINE",
"472 65 LINE",
"472 319 LINE",
"798 319 LINE",
"798 380 LINE",
"472 380 LINE",
"472 634 LINE",
"847 634 LINE",
"847 697 LINE",
"296 697 LINE",
"36 0 LINE"
);
},
{
closed = 1;
nodes = (
"341 636 LINE",
"399 636 LINE",
"399 223 LINE",
"195 223 LINE"
);
}
);
width = 906;
},
{
anchors = (
{
name = bottom;
position = "{465, 0}";
},
{
name = top;
position = "{465, 697}";
}
);
layerId = "957254E3-B7AD-4837-9092-D4428001DE8E";
paths = (
{
closed = 1;
nodes = (
"156 0 LINE",
"210 143 LINE",
"396 143 LINE",
"396 0 LINE",
"886 0 LINE",
"886 142 LINE",
"554 142 LINE",
"554 282 LINE",
"847 282 LINE",
"847 414 LINE",
"554 414 LINE",
"554 559 LINE",
"886 559 LINE",
"886 697 LINE",
"274 697 LINE",
"-15 0 LINE"
);
},
{
closed = 1;
nodes = (
"368 559 LINE",
"396 559 LINE",
"396 293 LINE",
"264 293 LINE"
);
}
);
width = 929;
}
);
leftKerningGroup = A;
note = AE;
rightKerningGroup = E;
unicode = 00C6;
},
{
color = 1;
glyphname = B;
lastChange = "2019-09-11 19:21:56 +0000";
layers = (
{
anchors = (
{
name = bottom;
position = "{311, 0}";
},
{
name = top;
position = "{311, 697}";
}
);
layerId = "F91D9E91-C1BC-4259-B0D8-112C0CBA2B8E";
paths = (
{
closed = 1;
nodes = (
"320 0 LINE SMOOTH",
"463 0 OFFCURVE",
"537 62 OFFCURVE",
"537 184 CURVE SMOOTH",
"537 287 OFFCURVE",
"484 353 OFFCURVE",
"393 365 CURVE",
"463 387 OFFCURVE",
"504 446 OFFCURVE",
"504 526 CURVE SMOOTH",
"504 634 OFFCURVE",
"432 697 OFFCURVE",
"310 697 CURVE SMOOTH",
"129 697 LINE",
"129 0 LINE"
);
},
{
closed = 1;
nodes = (
"139 357 LINE",
"361 357 LINE SMOOTH",
"466 357 OFFCURVE",
"527 293 OFFCURVE",
"527 184 CURVE SMOOTH",
"527 68 OFFCURVE",
"458 10 OFFCURVE",
"320 10 CURVE SMOOTH",
"139 10 LINE"
);
},
{
closed = 1;
nodes = (
"139 687 LINE",
"310 687 LINE SMOOTH",
"427 687 OFFCURVE",
"494 628 OFFCURVE",
"494 526 CURVE SMOOTH",
"494 430 OFFCURVE",
"433 367 OFFCURVE",
"340 367 CURVE SMOOTH",
"139 367 LINE"
);
}
);
width = 622;
},
{
anchors = (
{
name = bottom;
position = "{314, 0}";
},
{
name = top;
position = "{314, 697}";
}
);
background = {
paths = (
{
closed = 1;
nodes = (
"480 305 LINE",
"440 420 LINE",
"220 420 LINE",
"181 305 LINE"
);
}
);
};
layerId = "5EAB4D72-96CB-4765-AAD5-A13175319428";
paths = (
{
closed = 1;
nodes = (
"362 0 LINE SMOOTH",
"504 0 OFFCURVE",
"589 76 OFFCURVE",
"589 204 CURVE SMOOTH",
"589 291 OFFCURVE",
"550 349 OFFCURVE",
"475 376 CURVE",
"524 404 OFFCURVE",
"552 456 OFFCURVE",
"552 521 CURVE SMOOTH",
"552 631 OFFCURVE",
"470 697 OFFCURVE",
"331 697 CURVE SMOOTH",
"88 697 LINE",
"88 0 LINE"
);
},
{
closed = 1;
nodes = (
"213 305 LINE",
"352 305 LINE SMOOTH",
"425 305 OFFCURVE",
"464 273 OFFCURVE",
"464 214 CURVE SMOOTH",
"464 153 OFFCURVE",
"422 115 OFFCURVE",
"352 115 CURVE SMOOTH",
"213 115 LINE"
);
},
{
closed = 1;
nodes = (
"213 582 LINE",
"331 582 LINE SMOOTH",
"392 582 OFFCURVE",
"427 552 OFFCURVE",
"427 499 CURVE SMOOTH",
"427 447 OFFCURVE",
"394 420 OFFCURVE",
"331 420 CURVE SMOOTH",
"213 420 LINE"
);
}
);
width = 629;
},
{
anchors = (
{
name = bottom;
position = "{319, 0}";
},
{
name = top;
position = "{319, 697}";
}
);
layerId = "AC39E679-6500-437B-9A87-662B1E841B74";
paths = (
{
closed = 1;
nodes = (
"349 0 LINE SMOOTH",
"492 0 OFFCURVE",
"572 70 OFFCURVE",
"572 195 CURVE SMOOTH",
"572 288 OFFCURVE",
"527 350 OFFCURVE",
"444 371 CURVE",
"503 396 OFFCURVE",
"536 451 OFFCURVE",
"536 523 CURVE SMOOTH",
"536 633 OFFCURVE",
"459 697 OFFCURVE",
"328 697 CURVE SMOOTH",
"114 697 LINE",
"114 0 LINE"
);
},
{
closed = 1;
nodes = (
"185 331 LINE",
"363 331 LINE SMOOTH",
"450 331 OFFCURVE",
"500 283 OFFCURVE",
"500 201 CURVE SMOOTH",
"500 114 OFFCURVE",
"444 66 OFFCURVE",
"344 66 CURVE SMOOTH",
"185 66 LINE"
);
},
{
closed = 1;
nodes = (
"185 631 LINE",
"328 631 LINE SMOOTH",
"415 631 OFFCURVE",
"465 587 OFFCURVE",
"465 511 CURVE SMOOTH",
"465 438 OFFCURVE",
"419 393 OFFCURVE",
"342 393 CURVE SMOOTH",
"185 393 LINE"
);
}
);
width = 638;
},
{
anchors = (
{
name = bottom;
position = "{310, 0}";
},
{
name = top;
position = "{310, 697}";
}
);
background = {
paths = (
{
closed = 1;
nodes = (
"479 305 LINE",
"439 420 LINE",
"219 420 LINE",
"180 305 LINE"
);
}
);
};
layerId = "957254E3-B7AD-4837-9092-D4428001DE8E";
paths = (
{
closed = 1;
nodes = (
"368 0 LINE SMOOTH",
"510 0 OFFCURVE",
"598 80 OFFCURVE",
"598 209 CURVE SMOOTH",
"598 290 OFFCURVE",
"565 347 OFFCURVE",
"492 379 CURVE",
"535 409 OFFCURVE",
"560 459 OFFCURVE",
"560 520 CURVE SMOOTH",
"560 630 OFFCURVE",
"474 697 OFFCURVE",
"331 697 CURVE SMOOTH",
"71 697 LINE",
"71 0 LINE"
);
},
{
closed = 1;
nodes = (
"228 289 LINE",
"355 289 LINE SMOOTH",
"379 289 OFFCURVE",
"441 289 OFFCURVE",
"441 216 CURVE SMOOTH",
"441 172 OFFCURVE",
"418 144 OFFCURVE",
"355 144 CURVE SMOOTH",
"228 144 LINE"
);
},
{
closed = 1;
nodes = (
"228 553 LINE",
"331 553 LINE SMOOTH",
"375 553 OFFCURVE",
"403 537 OFFCURVE",
"403 498 CURVE SMOOTH",
"403 455 OFFCURVE",
"375 436 OFFCURVE",
"331 436 CURVE SMOOTH",
"228 436 LINE"
);
}
);
width = 619;
}
);
leftKerningGroup = B;
note = B;
rightKerningGroup = B;
unicode = 0042;
},
{
color = 1;
glyphname = C;
lastChange = "2019-09-11 19:32:35 +0000";
layers = (
{
anchors = (
{
name = bottom;
position = "{392, 0}";
},
{
name = top;
position = "{392, 697}";
}
);
layerId = "F91D9E91-C1BC-4259-B0D8-112C0CBA2B8E";
paths = (
{
closed = 1;
nodes = (
"509 -5 OFFCURVE",
"600 54 OFFCURVE",
"655 174 CURVE",
"645 178 LINE",
"595 63 OFFCURVE",
"506 5 OFFCURVE",
"382 5 CURVE SMOOTH",
"200 5 OFFCURVE",
"98 131 OFFCURVE",
"98 351 CURVE SMOOTH",
"98 571 OFFCURVE",
"200 692 OFFCURVE",
"391 692 CURVE SMOOTH",
"519 692 OFFCURVE",
"600 639 OFFCURVE",
"644 522 CURVE",
"654 525 LINE",
"608 645 OFFCURVE",
"523 702 OFFCURVE",
"391 702 CURVE SMOOTH",
"196 702 OFFCURVE",
"88 577 OFFCURVE",
"88 351 CURVE SMOOTH",
"88 124 OFFCURVE",
"194 -5 OFFCURVE",
"382 -5 CURVE SMOOTH"
);
}
);
width = 724;
},
{
anchors = (
{
name = bottom;
position = "{383, 0}";
},
{
name = top;
position = "{383, 697}";
}
);
background = {
paths = (
{
closed = 1;
nodes = (
"516 -10 OFFCURVE",
"627 61 OFFCURVE",
"683 191 CURVE",
"567 238 LINE",
"529 144 OFFCURVE",
"468 109 OFFCURVE",
"378 109 CURVE SMOOTH",
"228 109 OFFCURVE",
"165 215 OFFCURVE",
"165 354 CURVE SMOOTH",
"165 483 OFFCURVE",
"228 589 OFFCURVE",
"376 589 CURVE SMOOTH",
"467 589 OFFCURVE",
"538 554 OFFCURVE",
"565 462 CURVE",
"682 508 LINE",
"625 638 OFFCURVE",
"515 708 OFFCURVE",
"377 708 CURVE SMOOTH",
"147 708 OFFCURVE",
"40 539 OFFCURVE",
"40 348 CURVE SMOOTH",
"40 158 OFFCURVE",
"148 -10 OFFCURVE",
"378 -10 CURVE SMOOTH"
);
}
);
};
layerId = "5EAB4D72-96CB-4765-AAD5-A13175319428";
paths = (
{
closed = 1;
nodes = (
"527 -15 OFFCURVE",
"639 58 OFFCURVE",
"689 193 CURVE",
"572 237 LINE",
"542 149 OFFCURVE",
"474 104 OFFCURVE",
"378 104 CURVE SMOOTH",
"244 104 OFFCURVE",
"165 193 OFFCURVE",
"165 350 CURVE SMOOTH",
"165 506 OFFCURVE",
"243 594 OFFCURVE",
"378 594 CURVE SMOOTH",
"473 594 OFFCURVE",
"541 551 OFFCURVE",
"572 464 CURVE",
"687 509 LINE",
"636 642 OFFCURVE",
"525 713 OFFCURVE",
"378 713 CURVE SMOOTH",
"172 713 OFFCURVE",
"40 572 OFFCURVE",
"40 349 CURVE SMOOTH",
"40 126 OFFCURVE",
"172 -15 OFFCURVE",
"378 -15 CURVE SMOOTH"
);
}
);
width = 711;
},
{
anchors = (
{
name = bottom;
position = "{393, 0}";
},
{
name = top;
position = "{393, 697}";
}
);
layerId = "AC39E679-6500-437B-9A87-662B1E841B74";
paths = (
{
closed = 1;
nodes = (
"524 -10 OFFCURVE",
"627 57 OFFCURVE",
"679 184 CURVE",
"611 209 LINE",
"572 109 OFFCURVE",
"494 58 OFFCURVE",
"385 58 CURVE SMOOTH",
"229 58 OFFCURVE",
"139 164 OFFCURVE",
"139 350 CURVE SMOOTH",
"139 535 OFFCURVE",
"230 639 OFFCURVE",
"390 639 CURVE SMOOTH",
"500 639 OFFCURVE",
"574 591 OFFCURVE",
"611 491 CURVE",
"677 516 LINE",
"628 643 OFFCURVE",
"530 707 OFFCURVE",
"390 707 CURVE SMOOTH",
"189 707 OFFCURVE",
"68 574 OFFCURVE",
"68 350 CURVE SMOOTH",
"68 125 OFFCURVE",
"187 -10 OFFCURVE",
"385 -10 CURVE SMOOTH"
);
}
);
width = 729;
},
{
anchors = (
{
name = bottom;
position = "{375, 0}";
},
{
name = top;
position = "{375, 697}";
}
);
background = {
paths = (
{
closed = 1;
nodes = (
"515 -10 OFFCURVE",
"626 61 OFFCURVE",
"682 191 CURVE",
"566 238 LINE",
"528 144 OFFCURVE",
"467 109 OFFCURVE",
"377 109 CURVE SMOOTH",
"227 109 OFFCURVE",
"164 215 OFFCURVE",
"164 354 CURVE SMOOTH",
"164 483 OFFCURVE",
"227 589 OFFCURVE",
"375 589 CURVE SMOOTH",
"466 589 OFFCURVE",
"537 554 OFFCURVE",
"564 462 CURVE",
"681 508 LINE",
"624 638 OFFCURVE",
"514 708 OFFCURVE",
"376 708 CURVE SMOOTH",
"146 708 OFFCURVE",
"39 539 OFFCURVE",
"39 348 CURVE SMOOTH",
"39 158 OFFCURVE",
"147 -10 OFFCURVE",
"377 -10 CURVE SMOOTH"
);
}
);
};
layerId = "957254E3-B7AD-4837-9092-D4428001DE8E";
paths = (
{
closed = 1;
nodes = (
"527 -18 OFFCURVE",
"644 59 OFFCURVE",
"693 198 CURVE",
"546 254 LINE",
"522 173 OFFCURVE",
"459 132 OFFCURVE",
"372 132 CURVE SMOOTH",
"251 132 OFFCURVE",
"178 211 OFFCURVE",
"178 350 CURVE SMOOTH",
"178 489 OFFCURVE",
"249 567 OFFCURVE",
"369 567 CURVE SMOOTH",
"454 567 OFFCURVE",
"519 527 OFFCURVE",
"546 448 CURVE",
"691 505 LINE",
"640 637 OFFCURVE",
"525 717 OFFCURVE",
"369 717 CURVE SMOOTH",
"160 717 OFFCURVE",
"21 571 OFFCURVE",
"21 348 CURVE SMOOTH",
"21 127 OFFCURVE",
"161 -18 OFFCURVE",
"372 -18 CURVE SMOOTH"
);
}
);
width = 697;
}
);
leftKerningGroup = C;
note = C;
rightKerningGroup = C;
unicode = 0043;
},
{
color = 1;
glyphname = D;
lastChange = "2019-09-11 19:22:09 +0000";
layers = (
{
anchors = (
{
name = bottom;
position = "{369, 0}";
},
{
name = center;
position = "{165, 349}";
},
{
name = top;
position = "{369, 697}";
}
);
layerId = "F91D9E91-C1BC-4259-B0D8-112C0CBA2B8E";
paths = (
{
closed = 1;
nodes = (
"302 0 LINE SMOOTH",
"528 0 OFFCURVE",
"652 122 OFFCURVE",
"652 343 CURVE SMOOTH",
"652 568 OFFCURVE",
"525 697 OFFCURVE",
"303 697 CURVE SMOOTH",
"129 697 LINE",
"129 0 LINE"
);
},
{
closed = 1;
nodes = (
"139 687 LINE",
"303 687 LINE SMOOTH",
"519 687 OFFCURVE",
"641 563 OFFCURVE",
"641 343 CURVE SMOOTH",
"641 127 OFFCURVE",
"522 10 OFFCURVE",
"302 10 CURVE SMOOTH",
"139 10 LINE"
);
}
);
width = 737;
},
{
anchors = (
{
name = bottom;
position = "{346, 0}";
},
{
name = center;
position = "{171, 349}";
},
{
name = top;
position = "{346, 697}";
}
);
layerId = "5EAB4D72-96CB-4765-AAD5-A13175319428";
paths = (
{
closed = 1;
nodes = (
"289 0 LINE SMOOTH",
"525 0 OFFCURVE",
"653 121 OFFCURVE",
"653 343 CURVE SMOOTH",
"653 569 OFFCURVE",
"521 697 OFFCURVE",
"290 697 CURVE SMOOTH",
"88 697 LINE",
"88 0 LINE"
);
},
{
closed = 1;
nodes = (
"213 582 LINE",
"288 582 LINE SMOOTH",
"453 582 OFFCURVE",
"527 509 OFFCURVE",
"527 348 CURVE SMOOTH",
"527 184 OFFCURVE",
"453 115 OFFCURVE",
"277 115 CURVE SMOOTH",
"213 115 LINE"
);
}
);
width = 691;
},
{
anchors = (
{
name = bottom;
position = "{364, 0}";
},
{
name = center;
position = "{175, 349}";
},
{
name = top;
position = "{364, 697}";
}
);
layerId = "AC39E679-6500-437B-9A87-662B1E841B74";
paths = (
{
closed = 1;
nodes = (
"302 0 LINE SMOOTH",
"533 0 OFFCURVE",
"659 121 OFFCURVE",
"659 343 CURVE SMOOTH",
"659 568 OFFCURVE",
"530 697 OFFCURVE",
"303 697 CURVE SMOOTH",
"114 697 LINE",
"114 0 LINE"
);
},
{
closed = 1;
nodes = (
"185 631 LINE",
"302 631 LINE SMOOTH",
"491 631 OFFCURVE",
"587 535 OFFCURVE",
"587 346 CURVE SMOOTH",
"587 158 OFFCURVE",
"491 66 OFFCURVE",
"296 66 CURVE SMOOTH",
"185 66 LINE"
);
}
);
width = 725;
},
{
anchors = (
{
name = bottom;
position = "{334, 0}";
},
{
name = center;
position = "{167, 349}";
},
{
name = top;
position = "{334, 697}";
}
);
layerId = "957254E3-B7AD-4837-9092-D4428001DE8E";
paths = (
{
closed = 1;
nodes = (
"280 0 LINE SMOOTH",
"518 0 OFFCURVE",
"648 121 OFFCURVE",
"648 343 CURVE SMOOTH",
"648 569 OFFCURVE",
"514 697 OFFCURVE",
"281 697 CURVE SMOOTH",
"71 697 LINE",
"71 0 LINE"
);
},
{
closed = 1;
nodes = (
"228 553 LINE",
"278 553 LINE SMOOTH",
"409 553 OFFCURVE",
"490 511 OFFCURVE",
"490 349 CURVE SMOOTH",
"490 181 OFFCURVE",
"406 144 OFFCURVE",
"264 144 CURVE SMOOTH",
"228 144 LINE"
);
}
);
width = 668;
}
);
leftKerningGroup = B;
note = D;
rightKerningGroup = D;
unicode = 0044;
},
{
color = 1;
glyphname = E;
lastChange = "2019-09-11 19:22:09 +0000";
layers = (
{
anchors = (
{
name = bottom;
position = "{353, 0}";
},
{
name = ogonek;
position = "{577, 0}";
},
{
name = top;
position = "{353, 697}";
},
{
name = topleft;
position = "{20, 697}";
}
);
layerId = "F91D9E91-C1BC-4259-B0D8-112C0CBA2B8E";
paths = (
{
closed = 1;
nodes = (
"577 0 LINE",
"577 10 LINE",
"139 10 LINE",
"139 346 LINE",
"522 346 LINE",
"522 357 LINE",
"139 357 LINE",
"139 687 LINE",
"577 687 LINE",
"577 697 LINE",
"129 697 LINE",
"129 0 LINE"
);
}
);
width = 637;
},
{
anchors = (
{
name = bottom;
position = "{320, 0}";
},
{
name = ogonek;
position = "{552, 0}";
},
{
name = top;
position = "{320, 697}";
},
{
name = topleft;
position = "{20, 697}";
}
);
layerId = "5EAB4D72-96CB-4765-AAD5-A13175319428";
paths = (
{
closed = 1;
nodes = (
"552 0 LINE",
"552 115 LINE",
"213 115 LINE",
"213 301 LINE",
"528 301 LINE",
"528 416 LINE",
"213 416 LINE",
"213 582 LINE",
"552 582 LINE",
"552 697 LINE",
"88 697 LINE",
"88 0 LINE"
);
}
);
width = 610;
},
{
anchors = (
{
name = bottom;
position = "{342, 0}";
},
{
name = ogonek;
position = "{571, 0}";
},
{
name = top;
position = "{342, 697}";
},
{
name = topleft;
position = "{27, 697}";
}
);
layerId = "AC39E679-6500-437B-9A87-662B1E841B74";
paths = (
{
closed = 1;
nodes = (
"571 0 LINE",
"571 66 LINE",
"185 66 LINE",
"185 322 LINE",
"532 322 LINE",
"532 388 LINE",
"185 388 LINE",
"185 631 LINE",
"571 631 LINE",
"571 697 LINE",
"114 697 LINE",
"114 0 LINE"
);
}
);
width = 632;
},
{
anchors = (
{
name = bottom;
position = "{305, 0}";
},
{
name = ogonek;
position = "{539, 0}";
},
{
name = top;
position = "{305, 697}";
},
{
name = topleft;
position = "{14, 697}";
}
);
layerId = "957254E3-B7AD-4837-9092-D4428001DE8E";
paths = (
{
closed = 1;
nodes = (
"539 0 LINE",
"539 144 LINE",
"228 144 LINE",
"228 288 LINE",
"524 288 LINE",
"524 433 LINE",
"228 433 LINE",
"228 553 LINE",
"539 553 LINE",
"539 697 LINE",
"71 697 LINE",
"71 0 LINE"
);
}
);
width = 592;
}
);
leftKerningGroup = B;
note = E;
rightKerningGroup = E;
unicode = 0045;
},
{
color = 1;
glyphname = F;
lastChange = "2019-09-11 19:22:09 +0000";
layers = (
{
anchors = (
{
name = bottom;
position = "{315, 0}";
},
{
name = top;
position = "{315, 697}";
}
);
layerId = "F91D9E91-C1BC-4259-B0D8-112C0CBA2B8E";
paths = (
{
closed = 1;
nodes = (
"139 0 LINE",
"139 346 LINE",
"522 346 LINE",
"522 357 LINE",
"139 357 LINE",
"139 687 LINE",
"577 687 LINE",
"577 697 LINE",
"129 697 LINE",
"129 0 LINE"
);
}
);
width = 629;
},
{
anchors = (
{
name = bottom;
position = "{303, 0}";
},
{
name = top;
position = "{303, 697}";
}
);
layerId = "5EAB4D72-96CB-4765-AAD5-A13175319428";
paths = (
{
closed = 1;
nodes = (
"213 0 LINE",
"213 301 LINE",
"538 301 LINE",
"538 416 LINE",
"213 416 LINE",
"213 582 LINE",
"582 582 LINE",
"582 697 LINE",
"88 697 LINE",
"88 0 LINE"
);
}
);
width = 605;
},
{
anchors = (
{
name = bottom;
position = "{315, 0}";
},
{
name = top;
position = "{315, 697}";
}
);
layerId = "AC39E679-6500-437B-9A87-662B1E841B74";
paths = (
{
closed = 1;
nodes = (
"185 0 LINE",
"185 322 LINE",
"537 322 LINE",
"537 388 LINE",
"185 388 LINE",
"185 631 LINE",
"587 631 LINE",
"587 697 LINE",
"114 697 LINE",
"114 0 LINE"
);
}
);
width = 628;
},
{
anchors = (
{
name = bottom;
position = "{294, 0}";
},
{
name = top;
position = "{294, 697}";
}
);
layerId = "957254E3-B7AD-4837-9092-D4428001DE8E";
paths = (
{
closed = 1;
nodes = (
"228 0 LINE",
"228 288 LINE",
"537 288 LINE",
"537 433 LINE",
"228 433 LINE",
"228 553 LINE",
"578 553 LINE",
"578 697 LINE",
"71 697 LINE",
"71 0 LINE"
);
}
);
width = 591;
}
);
leftKerningGroup = B;
note = F;
rightKerningGroup = F;
unicode = 0046;
},
{
color = 1;
glyphname = G;
lastChange = "2019-09-11 19:37:24 +0000";
layers = (
{
anchors = (
{
name = bottom;
position = "{380, 0}";
},
{
name = top;
position = "{380, 697}";
}
);
layerId = "F91D9E91-C1BC-4259-B0D8-112C0CBA2B8E";
paths = (
{
closed = 1;
nodes = (
"508 -5 OFFCURVE",
"623 56 OFFCURVE",
"648 190 CURVE",
"644 191 LINE",
"644 0 LINE",
"655 0 LINE",
"655 341 LINE",
"461 341 LINE",
"461 331 LINE",
"644 331 LINE",
"644 253 LINE SMOOTH",
"644 73 OFFCURVE",
"511 5 OFFCURVE",
"382 5 CURVE SMOOTH",
"182 5 OFFCURVE",
"98 157 OFFCURVE",
"98 350 CURVE SMOOTH",
"98 569 OFFCURVE",
"202 692 OFFCURVE",
"394 692 CURVE SMOOTH",
"523 692 OFFCURVE",
"600 637 OFFCURVE",
"643 521 CURVE",
"654 525 LINE",
"608 644 OFFCURVE",
"528 702 OFFCURVE",
"394 702 CURVE SMOOTH",
"196 702 OFFCURVE",
"88 574 OFFCURVE",
"88 350 CURVE SMOOTH",
"88 128 OFFCURVE",
"195 -5 OFFCURVE",
"382 -5 CURVE SMOOTH"
);
}
);
width = 759;
},
{
anchors = (
{
name = bottom;
position = "{376, 0}";
},
{
name = top;
position = "{376, 697}";
}
);
layerId = "5EAB4D72-96CB-4765-AAD5-A13175319428";
paths = (
{
closed = 1;
nodes = (
"500 -15 OFFCURVE",
"592 38 OFFCURVE",
"616 130 CURVE",
"577 127 LINE",
"603 0 LINE",
"692 0 LINE",
"692 377 LINE",
"412 377 LINE",
"412 262 LINE",
"568 262 LINE",
"568 253 LINE SMOOTH",
"568 159 OFFCURVE",
"502 104 OFFCURVE",
"390 104 CURVE SMOOTH",
"248 104 OFFCURVE",
"163 192 OFFCURVE",
"163 351 CURVE SMOOTH",
"163 504 OFFCURVE",
"242 594 OFFCURVE",
"376 594 CURVE SMOOTH",
"470 594 OFFCURVE",
"539 550 OFFCURVE",
"570 464 CURVE",
"685 509 LINE",
"634 641 OFFCURVE",
"520 713 OFFCURVE",
"378 713 CURVE SMOOTH",
"169 713 OFFCURVE",
"38 557 OFFCURVE",
"38 350 CURVE SMOOTH",
"38 129 OFFCURVE",
"187 -15 OFFCURVE",
"382 -15 CURVE SMOOTH"
);
}
);
width = 755;
},
{
anchors = (
{
name = bottom;
position = "{385, 0}";
},
{
name = top;
position = "{385, 697}";
}
);
layerId = "AC39E679-6500-437B-9A87-662B1E841B74";
paths = (
{
closed = 1;
nodes = (
"488 -10 OFFCURVE",
"573 33 OFFCURVE",
"611 110 CURVE",
"610 112 LINE",
"620 0 LINE",
"677 0 LINE",
"677 360 LINE",
"442 360 LINE",
"442 302 LINE",
"610 302 LINE",
"610 280 LINE SMOOTH",
"610 121 OFFCURVE",
"505 58 OFFCURVE",
"385 58 CURVE SMOOTH",
"212 58 OFFCURVE",
"139 187 OFFCURVE",
"139 353 CURVE SMOOTH",
"139 525 OFFCURVE",
"222 639 OFFCURVE",
"390 639 CURVE SMOOTH",
"506 639 OFFCURVE",
"576 586 OFFCURVE",
"611 491 CURVE",
"677 516 LINE",
"631 636 OFFCURVE",
"537 707 OFFCURVE",
"390 707 CURVE SMOOTH",
"176 707 OFFCURVE",
"68 557 OFFCURVE",
"68 350 CURVE SMOOTH",
"68 142 OFFCURVE",
"177 -10 OFFCURVE",
"380 -10 CURVE SMOOTH"
);
}
);
width = 766;
},
{
anchors = (
{
name = bottom;
position = "{369, 0}";
},
{
name = top;
position = "{371, 697}";
}
);
layerId = "957254E3-B7AD-4837-9092-D4428001DE8E";
paths = (
{
closed = 1;
nodes = (
"497 -18 OFFCURVE",
"593 41 OFFCURVE",
"609 191 CURVE",
"547 136 LINE",
"583 0 LINE",
"691 0 LINE",
"691 387 LINE",
"384 387 LINE",
"384 247 LINE",
"533 247 LINE",
"533 237 LINE SMOOTH",
"533 182 OFFCURVE",
"482 132 OFFCURVE",
"378 132 CURVE SMOOTH",
"261 132 OFFCURVE",
"177 196 OFFCURVE",
"177 347 CURVE SMOOTH",
"177 491 OFFCURVE",
"254 567 OFFCURVE",
"368 567 CURVE SMOOTH",
"448 567 OFFCURVE",
"517 528 OFFCURVE",
"545 448 CURVE",
"690 505 LINE",
"636 644 OFFCURVE",
"509 717 OFFCURVE",
"370 717 CURVE SMOOTH",
"165 717 OFFCURVE",
"20 559 OFFCURVE",
"20 342 CURVE SMOOTH",
"20 134 OFFCURVE",
"153 -18 OFFCURVE",
"365 -18 CURVE SMOOTH"
);
}
);
width = 738;
}
);
leftKerningGroup = C;
note = G;
rightKerningGroup = G;
unicode = 0047;
},
{
color = 1;
glyphname = H;
lastChange = "2019-09-11 19:22:08 +0000";
layers = (
{
anchors = (
{
name = bottom;
position = "{353, 0}";
},
{
name = center;
position = "{353, 538}";
},
{
name = top;
position = "{353, 697}";
},
{
name = topleft;
position = "{20, 697}";
}
);
layerId = "F91D9E91-C1BC-4259-B0D8-112C0CBA2B8E";
paths = (
{
closed = 1;
nodes = (
"139 0 LINE",
"139 347 LINE",
"566 347 LINE",
"566 0 LINE",
"576 0 LINE",
"576 697 LINE",
"566 697 LINE",
"566 358 LINE",
"139 358 LINE",
"139 697 LINE",
"129 697 LINE",
"129 0 LINE"
);
}
);
width = 705;
},
{
anchors = (
{
name = bottom;
position = "{366, 0}";
},
{
name = center;
position = "{366, 565}";
},
{
name = top;
position = "{366, 697}";
},
{
name = topleft;
position = "{20, 697}";
}
);
layerId = "5EAB4D72-96CB-4765-AAD5-A13175319428";
paths = (
{
closed = 1;
nodes = (
"213 0 LINE",
"213 301 LINE",
"518 301 LINE",
"518 0 LINE",
"643 0 LINE",
"643 697 LINE",
"518 697 LINE",
"518 416 LINE",
"213 416 LINE",
"213 697 LINE",
"88 697 LINE",
"88 0 LINE"
);
}
);
width = 731;
},
{
anchors = (
{
name = bottom;
position = "{367, 301}";
},
{
name = center;
position = "{366, 538}";
},
{
name = top;
position = "{367, 697}";
},
{
name = topleft;
position = "{27, 697}";
}
);
layerId = "AC39E679-6500-437B-9A87-662B1E841B74";
paths = (
{
closed = 1;
nodes = (
"185 0 LINE",
"185 322 LINE",
"547 322 LINE",
"547 0 LINE",
"619 0 LINE",
"619 697 LINE",
"547 697 LINE",
"547 389 LINE",
"185 389 LINE",
"185 697 LINE",
"114 697 LINE",
"114 0 LINE"
);
}
);
width = 733;
},
{
anchors = (
{
name = bottom;
position = "{365, 0}";
},
{
name = center;
position = "{364, 557}";
},
{
name = top;
position = "{364, 697}";
},
{
name = topleft;
position = "{14, 697}";
}
);
layerId = "957254E3-B7AD-4837-9092-D4428001DE8E";
paths = (
{
closed = 1;
nodes = (
"228 0 LINE",
"228 288 LINE",
"499 288 LINE",
"499 0 LINE",
"656 0 LINE",
"656 697 LINE",
"499 697 LINE",
"499 432 LINE",
"228 432 LINE",
"228 697 LINE",
"71 697 LINE",
"71 0 LINE"
);
}
);
width = 727;
}
);
leftKerningGroup = B;
note = H;
rightKerningGroup = H;
unicode = 0048;
},
{
color = 1;
glyphname = I;
lastChange = "2019-09-11 19:22:09 +0000";
layers = (
{
anchors = (
{
name = bottom;
position = "{134, 0}";
},
{
name = ogonek;
position = "{139, 0}";
},
{
name = top;
position = "{134, 697}";
},
{
name = topleft;
position = "{20, 697}";
}
);
layerId = "F91D9E91-C1BC-4259-B0D8-112C0CBA2B8E";
paths = (
{
closed = 1;
nodes = (
"139 0 LINE",
"139 697 LINE",
"129 697 LINE",
"129 0 LINE"
);
}
);
width = 268;
},
{
anchors = (
{
name = bottom;
position = "{151, 0}";
},
{
name = ogonek;
position = "{213, 0}";
},
{
name = top;
position = "{151, 697}";
},
{
name = topleft;
position = "{20, 697}";
}
);
layerId = "5EAB4D72-96CB-4765-AAD5-A13175319428";
paths = (
{
closed = 1;
nodes = (
"213 0 LINE",
"213 697 LINE",
"88 697 LINE",
"88 0 LINE"
);
}
);
width = 301;
},
{
anchors = (
{
name = bottom;
position = "{150, 0}";
},
{
name = ogonek;
position = "{185, 0}";
},
{
name = top;
position = "{150, 697}";
},
{
name = topleft;
position = "{27, 697}";
}
);
layerId = "AC39E679-6500-437B-9A87-662B1E841B74";
paths = (
{
closed = 1;
nodes = (
"185 0 LINE",
"185 697 LINE",
"114 697 LINE",
"114 0 LINE"
);
}
);
width = 299;
},
{
anchors = (
{
name = bottom;
position = "{150, 0}";
},
{
name = ogonek;
position = "{228, 0}";
},
{
name = top;
position = "{150, 697}";
},
{
name = topleft;
position = "{14, 697}";
}
);
layerId = "957254E3-B7AD-4837-9092-D4428001DE8E";
paths = (
{
closed = 1;
nodes = (
"228 0 LINE",
"228 697 LINE",
"71 697 LINE",
"71 0 LINE"
);
}
);
width = 299;
}
);
leftKerningGroup = B;
note = I;
rightKerningGroup = H;
unicode = 0049;
},
{
color = 1;
glyphname = J;
lastChange = "2019-09-11 19:42:03 +0000";
layers = (
{
anchors = (
{
name = bottom;
position = "{295, 0}";
},
{
name = top;
position = "{295, 697}";
}
);
layerId = "F91D9E91-C1BC-4259-B0D8-112C0CBA2B8E";
paths = (
{
closed = 1;
nodes = (
"402 -5 OFFCURVE",
"472 85 OFFCURVE",
"472 257 CURVE SMOOTH",
"472 697 LINE",
"158 697 LINE",
"158 687 LINE",
"462 687 LINE",
"462 257 LINE SMOOTH",
"462 91 OFFCURVE",
"396 5 OFFCURVE",
"269 5 CURVE SMOOTH",
"154 5 OFFCURVE",
"78 75 OFFCURVE",
"70 190 CURVE",
"60 190 LINE",
"69 69 OFFCURVE",
"148 -5 OFFCURVE",
"269 -5 CURVE SMOOTH"
);
}
);
width = 589;
},
{
anchors = (
{
name = bottom;
position = "{280, 0}";
},
{
name = top;
position = "{280, 697}";
}
);
layerId = "5EAB4D72-96CB-4765-AAD5-A13175319428";
paths = (
{
closed = 1;
nodes = (
"395 -15 OFFCURVE",
"485 81 OFFCURVE",
"485 242 CURVE SMOOTH",
"485 697 LINE",
"97 697 LINE",
"97 582 LINE",
"360 582 LINE",
"360 249 LINE SMOOTH",
"360 147 OFFCURVE",
"325 101 OFFCURVE",
"250 101 CURVE SMOOTH",
"179 101 OFFCURVE",
"143 141 OFFCURVE",
"137 231 CURVE",
"14 217 LINE",
"24 71 OFFCURVE",
"114 -15 OFFCURVE",
"250 -15 CURVE SMOOTH"
);
}
);
width = 560;
},
{
anchors = (
{
name = bottom;
position = "{292, 0}";
},
{
name = top;
position = "{292, 697}";
}
);
layerId = "AC39E679-6500-437B-9A87-662B1E841B74";
paths = (
{
closed = 1;
nodes = (
"403 -10 OFFCURVE",
"483 83 OFFCURVE",
"483 249 CURVE SMOOTH",
"483 697 LINE",
"130 697 LINE",
"130 631 LINE",
"412 631 LINE",
"412 253 LINE SMOOTH",
"412 122 OFFCURVE",
"362 57 OFFCURVE",
"263 57 CURVE SMOOTH",
"172 57 OFFCURVE",
"117 112 OFFCURVE",
"110 212 CURVE",
"40 204 LINE",
"50 70 OFFCURVE",
"134 -10 OFFCURVE",
"263 -10 CURVE SMOOTH"
);
}
);
width = 584;
},
{
anchors = (
{
name = bottom;
position = "{273, 0}";
},
{
name = top;
position = "{273, 697}";
}
);
layerId = "957254E3-B7AD-4837-9092-D4428001DE8E";
paths = (
{
closed = 1;
nodes = (
"391 -18 OFFCURVE",
"487 81 OFFCURVE",
"487 238 CURVE SMOOTH",
"487 697 LINE",
"78 697 LINE",
"78 553 LINE",
"329 553 LINE",
"329 247 LINE SMOOTH",
"329 174 OFFCURVE",
"311 127 OFFCURVE",
"243 127 CURVE SMOOTH",
"185 127 OFFCURVE",
"159 158 OFFCURVE",
"154 242 CURVE",
"-1 225 LINE",
"9 72 OFFCURVE",
"103 -18 OFFCURVE",
"243 -18 CURVE SMOOTH"
);
}
);
width = 543;
}
);
leftKerningGroup = J;
note = J;
rightKerningGroup = J;
unicode = 004A;
},
{
color = 1;
glyphname = K;
lastChange = "2019-09-11 19:22:09 +0000";
layers = (
{
anchors = (
{
name = bottom;
position = "{346, 0}";
},
{
name = top;
position = "{346, 697}";
}
);
layerId = "F91D9E91-C1BC-4259-B0D8-112C0CBA2B8E";
paths = (
{
closed = 1;
nodes = (
"139 0 LINE",
"139 209 LINE",
"611 697 LINE",
"597 697 LINE",
"139 223 LINE",
"139 697 LINE",
"129 697 LINE",
"129 0 LINE"
);
},
{
closed = 1;
nodes = (
"634 0 LINE",
"372 457 LINE",
"365 450 LINE",
"623 0 LINE"
);
}
);
width = 692;
},
{
anchors = (
{
name = bottom;
position = "{352, 0}";
},
{
name = top;
position = "{352, 697}";
}
);
layerId = "5EAB4D72-96CB-4765-AAD5-A13175319428";
paths = (
{
closed = 1;
nodes = (
"213 0 LINE",
"213 212 LINE",
"690 697 LINE",
"526 697 LINE",
"213 369 LINE",
"213 697 LINE",
"88 697 LINE",
"88 0 LINE"
);
},
{
closed = 1;
nodes = (
"697 0 LINE",
"422 447 LINE",
"338 360 LINE",
"552 0 LINE"
);
}
);
width = 704;
},
{
anchors = (
{
name = bottom;
position = "{356, 0}";
},
{
name = top;
position = "{356, 697}";
}
);
layerId = "AC39E679-6500-437B-9A87-662B1E841B74";
paths = (
{
closed = 1;
nodes = (
"185 0 LINE",
"185 211 LINE",
"660 697 LINE",
"566 697 LINE",
"185 301 LINE",
"185 697 LINE",
"114 697 LINE",
"114 0 LINE"
);
},
{
closed = 1;
nodes = (
"674 0 LINE",
"406 452 LINE",
"357 402 LINE",
"592 0 LINE"
);
}
);
width = 711;
},
{
anchors = (
{
name = bottom;
position = "{348, 0}";
},
{
name = top;
position = "{348, 697}";
}
);
layerId = "957254E3-B7AD-4837-9092-D4428001DE8E";
paths = (
{
closed = 1;
nodes = (
"228 0 LINE",
"228 213 LINE",
"707 697 LINE",
"501 697 LINE",
"228 410 LINE",
"228 697 LINE",
"71 697 LINE",
"71 0 LINE"
);
},
{
closed = 1;
nodes = (
"709 0 LINE",
"430 444 LINE",
"325 335 LINE",
"527 0 LINE"
);
}
);
width = 699;
}
);
leftKerningGroup = B;
note = K;
rightKerningGroup = K;
unicode = 004B;
},
{
color = 1;
glyphname = L;
lastChange = "2019-09-11 19:23:03 +0000";
layers = (
{
anchors = (
{
name = bottom;
position = "{304, 0}";
},
{
name = center;
position = "{199, 379}";
},
{
name = top;
position = "{134, 697}";
},
{
name = topright;
position = "{415, 493}";
}
);
layerId = "F91D9E91-C1BC-4259-B0D8-112C0CBA2B8E";
paths = (
{
closed = 1;
nodes = (
"479 0 LINE",
"479 10 LINE",
"139 10 LINE",
"139 697 LINE",
"129 697 LINE",
"129 0 LINE"
);
}
);
width = 529;
},
{
anchors = (
{
name = bottom;
position = "{300, 0}";
},
{
name = center;
position = "{173, 336}";
},
{
name = top;
position = "{151, 697}";
},
{
name = topright;
position = "{429, 493}";
}
);
layerId = "5EAB4D72-96CB-4765-AAD5-A13175319428";
paths = (
{
closed = 1;
nodes = (
"511 0 LINE",
"511 115 LINE",
"213 115 LINE",
"213 697 LINE",
"88 697 LINE",
"88 0 LINE"
);
}
);
width = 520;
},
{
anchors = (
{
name = bottom;
position = "{309, 0}";
},
{
name = center;
position = "{209, 359}";
},
{
name = top;
position = "{150, 697}";
},
{
name = topright;
position = "{402, 493}";
}
);
layerId = "AC39E679-6500-437B-9A87-662B1E841B74";
paths = (
{
closed = 1;
nodes = (
"503 0 LINE",
"503 66 LINE",
"185 66 LINE",
"185 697 LINE",
"114 697 LINE",
"114 0 LINE"
);
}
);
width = 537;
},
{
anchors = (
{
name = bottom;
position = "{293, 0}";
},
{
name = center;
position = "{168, 323}";
},
{
name = top;
position = "{150, 697}";
},
{
name = topright;
position = "{444, 493}";
}
);
layerId = "957254E3-B7AD-4837-9092-D4428001DE8E";
paths = (
{
closed = 1;
nodes = (
"514 0 LINE",
"514 144 LINE",
"228 144 LINE",
"228 697 LINE",
"71 697 LINE",
"71 0 LINE"
);
}
);
width = 509;
}
);
leftKerningGroup = B;
note = L;
rightKerningGroup = L;
unicode = 004C;
},
{
color = 1;
glyphname = M;
lastChange = "2019-09-11 19:22:09 +0000";
layers = (
{
anchors = (
{
name = bottom;
position = "{431, 0}";
},
{
name = top;
position = "{431, 697}";
}
);
layerId = "F91D9E91-C1BC-4259-B0D8-112C0CBA2B8E";
paths = (
{
closed = 1;
nodes = (
"139 0 LINE",
"139 687 LINE",
"141 687 LINE",
"425 54 LINE",
"436 54 LINE",
"720 687 LINE",
"722 687 LINE",
"722 0 LINE",
"732 0 LINE",
"732 697 LINE",
"714 697 LINE",
"429 61 LINE",
"433 61 LINE",
"147 697 LINE",
"129 697 LINE",
"129 0 LINE"
);
}
);
width = 861;
},
{
anchors = (
{
name = bottom;
position = "{447, 0}";
},
{
name = top;
position = "{447, 697}";
}
);
layerId = "5EAB4D72-96CB-4765-AAD5-A13175319428";
paths = (
{
closed = 1;
nodes = (
"213 0 LINE",
"213 572 LINE",
"194 572 LINE",
"386 61 LINE",
"507 61 LINE",
"699 572 LINE",
"680 572 LINE",
"680 0 LINE",
"805 0 LINE",
"805 697 LINE",
"626 697 LINE",
"427 155 LINE",
"464 155 LINE",
"267 697 LINE",
"88 697 LINE",
"88 0 LINE"
);
}
);
width = 893;
},
{
anchors = (
{
name = bottom;
position = "{446, 0}";
},
{
name = top;
position = "{446, 697}";
}
);
layerId = "AC39E679-6500-437B-9A87-662B1E841B74";
paths = (
{
closed = 1;
nodes = (
"185 0 LINE",
"185 626 LINE",
"176 626 LINE",
"411 58 LINE",
"481 58 LINE",
"716 626 LINE",
"706 626 LINE",
"706 0 LINE",
"778 0 LINE",
"778 697 LINE",
"674 697 LINE",
"444 136 LINE",
"448 136 LINE",
"218 697 LINE",
"114 697 LINE",
"114 0 LINE"
);
}
);
width = 892;
},
{
anchors = (
{
name = bottom;
position = "{446, 0}";
},
{
name = top;
position = "{446, 697}";
}
);
layerId = "957254E3-B7AD-4837-9092-D4428001DE8E";
paths = (
{
closed = 1;
nodes = (
"228 0 LINE",
"228 540 LINE",
"203 540 LINE",
"370 63 LINE",
"521 63 LINE",
"687 540 LINE",
"663 540 LINE",
"663 0 LINE",
"820 0 LINE",
"820 697 LINE",
"596 697 LINE",
"415 166 LINE",
"472 166 LINE",
"295 697 LINE",
"71 697 LINE",
"71 0 LINE"
);
}
);
width = 891;
}
);
leftKerningGroup = B;
note = M;
rightKerningGroup = H;
unicode = 004D;
},
{
color = 1;
glyphname = N;
lastChange = "2019-09-11 19:22:09 +0000";
layers = (
{
anchors = (
{
name = bottom;
position = "{344, 0}";
},
{
name = top;
position = "{344, 697}";
}
);
layerId = "F91D9E91-C1BC-4259-B0D8-112C0CBA2B8E";
paths = (
{
closed = 1;
nodes = (
"139 0 LINE",
"139 687 LINE",
"141 687 LINE",
"540 0 LINE",
"559 0 LINE",
"559 697 LINE",
"549 697 LINE",
"549 10 LINE",
"546 10 LINE",
"147 697 LINE",
"129 697 LINE",
"129 0 LINE"
);
}
);
width = 688;
},
{
anchors = (
{
name = bottom;
position = "{362, 0}";
},
{
name = top;
position = "{362, 697}";
}
);
layerId = "5EAB4D72-96CB-4765-AAD5-A13175319428";
paths = (
{
closed = 1;
nodes = (
"213 0 LINE",
"213 535 LINE",
"181 535 LINE",
"505 0 LINE",
"635 0 LINE",
"635 697 LINE",
"510 697 LINE",
"510 163 LINE",
"543 163 LINE",
"217 697 LINE",
"88 697 LINE",
"88 0 LINE"
);
}
);
width = 723;
},
{
anchors = (
{
name = bottom;
position = "{360, 0}";
},
{
name = top;
position = "{360, 697}";
}
);
layerId = "AC39E679-6500-437B-9A87-662B1E841B74";
paths = (
{
closed = 1;
nodes = (
"185 0 LINE",
"185 606 LINE",
"167 606 LINE",
"528 0 LINE",
"606 0 LINE",
"606 697 LINE",
"535 697 LINE",
"535 92 LINE",
"554 92 LINE",
"191 697 LINE",
"114 697 LINE",
"114 0 LINE"
);
}
);
width = 720;
},
{
anchors = (
{
name = bottom;
position = "{362, 0}";
},
{
name = top;
position = "{362, 697}";
}
);
layerId = "957254E3-B7AD-4837-9092-D4428001DE8E";
paths = (
{
closed = 1;
nodes = (
"228 0 LINE",
"228 492 LINE",
"188 492 LINE",
"490 0 LINE",
"651 0 LINE",
"651 697 LINE",
"494 697 LINE",
"494 206 LINE",
"535 206 LINE",
"231 697 LINE",
"71 697 LINE",
"71 0 LINE"
);
}
);
width = 722;
}
);
leftKerningGroup = B;
note = N;
rightKerningGroup = H;
unicode = 004E;
},
{
color = 1;
glyphname = Eng;
lastChange = "2019-09-11 19:22:09 +0000";
layers = (
{
layerId = "F91D9E91-C1BC-4259-B0D8-112C0CBA2B8E";
paths = (
{
closed = 1;
nodes = (
"521 -158 OFFCURVE",
"559 -109 OFFCURVE",
"559 -28 CURVE SMOOTH",
"559 697 LINE",
"549 697 LINE",
"549 10 LINE",
"546 10 LINE",
"147 697 LINE",
"129 697 LINE",
"129 0 LINE",
"139 0 LINE",
"139 687 LINE",
"141 687 LINE",
"540 0 LINE SMOOTH",
"543 -6 OFFCURVE",
"549 -14 OFFCURVE",
"549 -35 CURVE SMOOTH",
"549 -93 OFFCURVE",
"522 -147 OFFCURVE",
"441 -147 CURVE SMOOTH",
"424 -147 OFFCURVE",
"394 -141 OFFCURVE",
"372 -132 CURVE",
"368 -142 LINE",
"390 -151 OFFCURVE",
"422 -158 OFFCURVE",
"441 -158 CURVE SMOOTH"
);
}
);
width = 688;
},
{
layerId = "5EAB4D72-96CB-4765-AAD5-A13175319428";
paths = (
{
closed = 1;
nodes = (
"591 -182 OFFCURVE",
"635 -93 OFFCURVE",
"635 0 CURVE SMOOTH",
"635 697 LINE",
"510 697 LINE",
"510 178 LINE",
"538 178 LINE",
"217 697 LINE",
"88 697 LINE",
"88 0 LINE",
"213 0 LINE",
"213 521 LINE",
"185 521 LINE",
"505 0 LINE SMOOTH",
"513 -13 OFFCURVE",
"516 -27 OFFCURVE",
"516 -38 CURVE SMOOTH",
"516 -71 OFFCURVE",
"489 -100 OFFCURVE",
"431 -100 CURVE SMOOTH",
"420 -100 OFFCURVE",
"407 -99 OFFCURVE",
"394 -97 CURVE",
"394 -176 LINE",
"420 -181 OFFCURVE",
"443 -182 OFFCURVE",
"464 -182 CURVE SMOOTH"
);
}
);
width = 724;
},
{
layerId = "AC39E679-6500-437B-9A87-662B1E841B74";
paths = (
{
closed = 1;
nodes = (
"565 -171 OFFCURVE",
"606 -100 OFFCURVE",
"606 -13 CURVE SMOOTH",
"606 697 LINE",
"535 697 LINE",
"535 100 LINE",
"549 100 LINE",
"191 697 LINE",
"114 697 LINE",
"114 0 LINE",
"185 0 LINE",
"185 598 LINE",
"171 598 LINE",
"528 0 LINE SMOOTH",
"534 -10 OFFCURVE",
"538 -24 OFFCURVE",
"538 -37 CURVE SMOOTH",
"538 -81 OFFCURVE",
"511 -122 OFFCURVE",
"443 -122 CURVE SMOOTH",
"430 -122 OFFCURVE",
"409 -119 OFFCURVE",
"391 -113 CURVE",
"389 -160 LINE",
"413 -167 OFFCURVE",
"440 -171 OFFCURVE",
"460 -171 CURVE SMOOTH"
);
}
);
width = 720;
},
{
layerId = "957254E3-B7AD-4837-9092-D4428001DE8E";
paths = (
{
closed = 1;
nodes = (
"605 -189 OFFCURVE",
"651 -89 OFFCURVE",
"651 8 CURVE SMOOTH",
"651 697 LINE",
"494 697 LINE",
"494 225 LINE",
"530 225 LINE",
"231 697 LINE",
"71 697 LINE",
"71 0 LINE",
"228 0 LINE",
"228 475 LINE",
"192 475 LINE",
"490 0 LINE SMOOTH",
"500 -16 OFFCURVE",
"501 -31 OFFCURVE",
"501 -39 CURVE SMOOTH",
"501 -65 OFFCURVE",
"474 -87 OFFCURVE",
"422 -87 CURVE SMOOTH",
"413 -87 OFFCURVE",
"404 -87 OFFCURVE",
"394 -87 CURVE",
"396 -186 LINE",
"423 -189 OFFCURVE",
"443 -189 OFFCURVE",
"465 -189 CURVE SMOOTH"
);
}
);
width = 722;
}
);
leftKerningGroup = B;
note = Eng;
rightKerningGroup = H;
unicode = 014A;
},
{
color = 1;
glyphname = O;
lastChange = "2019-09-11 19:32:35 +0000";
layers = (
{
anchors = (
{
name = bottom;
position = "{389, 0}";
},
{
name = center;
position = "{389, 349}";
},
{
name = ogonek;
position = "{447, 0}";
},
{
name = top;
position = "{389, 697}";
},
{
name = topleft;
position = "{20, 697}";
},
{
name = topright;
position = "{718, 493}";
}
);
layerId = "F91D9E91-C1BC-4259-B0D8-112C0CBA2B8E";
paths = (
{
closed = 1;
nodes = (
"573 -5 OFFCURVE",
"692 134 OFFCURVE",
"692 348 CURVE SMOOTH",
"692 562 OFFCURVE",
"572 702 OFFCURVE",
"388 702 CURVE SMOOTH",
"205 702 OFFCURVE",
"86 563 OFFCURVE",
"86 348 CURVE SMOOTH",
"86 134 OFFCURVE",
"205 -5 OFFCURVE",
"388 -5 CURVE SMOOTH"
);
},
{
closed = 1;
nodes = (
"209 5 OFFCURVE",
"96 138 OFFCURVE",
"96 348 CURVE SMOOTH",
"96 559 OFFCURVE",
"209 692 OFFCURVE",
"388 692 CURVE SMOOTH",
"568 692 OFFCURVE",
"682 559 OFFCURVE",
"682 348 CURVE SMOOTH",
"682 138 OFFCURVE",
"568 5 OFFCURVE",
"388 5 CURVE SMOOTH"
);
}
);
width = 778;
},
{
anchors = (
{
name = bottom;
position = "{372, 0}";
},
{
name = center;
position = "{372, 349}";
},
{
name = ogonek;
position = "{453, 0}";
},
{
name = top;
position = "{372, 697}";
},
{
name = topleft;
position = "{17, 697}";
},
{
name = topright;
position = "{687, 493}";
}
);
layerId = "5EAB4D72-96CB-4765-AAD5-A13175319428";
paths = (
{
closed = 1;
nodes = (
"570 -15 OFFCURVE",
"705 130 OFFCURVE",
"705 348 CURVE SMOOTH",
"705 567 OFFCURVE",
"571 712 OFFCURVE",
"372 712 CURVE SMOOTH",
"174 712 OFFCURVE",
"39 567 OFFCURVE",
"39 348 CURVE SMOOTH",
"39 130 OFFCURVE",
"174 -15 OFFCURVE",
"372 -15 CURVE SMOOTH"
);
},
{
closed = 1;
nodes = (
"245 104 OFFCURVE",
"164 197 OFFCURVE",
"164 348 CURVE SMOOTH",
"164 500 OFFCURVE",
"245 593 OFFCURVE",
"372 593 CURVE SMOOTH",
"499 593 OFFCURVE",
"580 499 OFFCURVE",
"580 348 CURVE SMOOTH",
"580 198 OFFCURVE",
"499 104 OFFCURVE",
"372 104 CURVE SMOOTH"
);
}
);
width = 744;
},
{
anchors = (
{
name = bottom;
position = "{386, 0}";
},
{
name = center;
position = "{386, 349}";
},
{
name = ogonek;
position = "{456, 0}";
},
{
name = top;
position = "{386, 697}";
},
{
name = topleft;
position = "{24, 697}";
},
{
name = topright;
position = "{708, 493}";
}
);
layerId = "AC39E679-6500-437B-9A87-662B1E841B74";
paths = (
{
closed = 1;
nodes = (
"577 -10 OFFCURVE",
"705 133 OFFCURVE",
"705 348 CURVE SMOOTH",
"705 564 OFFCURVE",
"577 707 OFFCURVE",
"386 707 CURVE SMOOTH",
"195 707 OFFCURVE",
"67 564 OFFCURVE",
"67 348 CURVE SMOOTH",
"67 133 OFFCURVE",
"195 -10 OFFCURVE",
"386 -10 CURVE SMOOTH"
);
},
{
closed = 1;
nodes = (
"235 58 OFFCURVE",
"138 171 OFFCURVE",
"138 348 CURVE SMOOTH",
"138 526 OFFCURVE",
"235 639 OFFCURVE",
"386 639 CURVE SMOOTH",
"537 639 OFFCURVE",
"634 526 OFFCURVE",
"634 348 CURVE SMOOTH",
"634 171 OFFCURVE",
"537 58 OFFCURVE",
"386 58 CURVE SMOOTH"
);
}
);
width = 772;
},
{
anchors = (
{
name = bottom;
position = "{363, 0}";
},
{
name = center;
position = "{363, 349}";
},
{
name = ogonek;
position = "{450, 0}";
},
{
name = top;
position = "{362, 697}";
},
{
name = topleft;
position = "{12, 697}";
},
{
name = topright;
position = "{673, 493}";
}
);
layerId = "957254E3-B7AD-4837-9092-D4428001DE8E";
paths = (
{
closed = 1;
nodes = (
"564 -18 OFFCURVE",
"704 128 OFFCURVE",
"704 348 CURVE SMOOTH",
"704 569 OFFCURVE",
"566 715 OFFCURVE",
"362 715 CURVE SMOOTH",
"160 715 OFFCURVE",
"21 568 OFFCURVE",
"21 348 CURVE SMOOTH",
"21 129 OFFCURVE",
"160 -18 OFFCURVE",
"362 -18 CURVE SMOOTH"
);
},
{
closed = 1;
nodes = (
"250 132 OFFCURVE",
"178 213 OFFCURVE",
"178 348 CURVE SMOOTH",
"178 484 OFFCURVE",
"250 565 OFFCURVE",
"362 565 CURVE SMOOTH",
"475 565 OFFCURVE",
"546 482 OFFCURVE",
"546 348 CURVE SMOOTH",
"546 215 OFFCURVE",
"475 132 OFFCURVE",
"362 132 CURVE SMOOTH"
);
}
);
width = 725;
}
);
leftKerningGroup = C;
note = O;
rightKerningGroup = D;
unicode = 004F;
},
{
color = 1;
glyphname = P;
lastChange = "2019-09-11 19:22:09 +0000";
layers = (
{
anchors = (
{
name = bottom;
position = "{293, 0}";
},
{
name = top;
position = "{293, 697}";
}
);
layerId = "F91D9E91-C1BC-4259-B0D8-112C0CBA2B8E";
paths = (
{
closed = 1;
nodes = (
"139 0 LINE",
"139 321 LINE",
"294 321 LINE SMOOTH",
"434 321 OFFCURVE",
"516 390 OFFCURVE",
"516 508 CURVE SMOOTH",
"516 627 OFFCURVE",
"433 697 OFFCURVE",
"294 697 CURVE SMOOTH",
"129 697 LINE",
"129 0 LINE"
);
},
{
closed = 1;
nodes = (
"139 687 LINE",
"294 687 LINE SMOOTH",
"428 687 OFFCURVE",
"506 621 OFFCURVE",
"506 508 CURVE SMOOTH",
"506 396 OFFCURVE",
"428 331 OFFCURVE",
"294 331 CURVE SMOOTH",
"139 331 LINE"
);
}
);
width = 585;
},
{
anchors = (
{
name = bottom;
position = "{287, 0}";
},
{
name = top;
position = "{287, 697}";
}
);
background = {
paths = (
{
closed = 1;
nodes = (
"37 61 LINE",
"164 61 LINE",
"164 289 LINE",
"317 289 LINE SMOOTH",
"468 289 OFFCURVE",
"553 361 OFFCURVE",
"553 496 CURVE SMOOTH",
"553 622 OFFCURVE",
"471 699 OFFCURVE",
"318 699 CURVE SMOOTH",
"37 699 LINE"
);
},
{
closed = 1;
nodes = (
"164 389 LINE",
"164 597 LINE",
"302 597 LINE SMOOTH",
"382 597 OFFCURVE",
"427 560 OFFCURVE",
"427 493 CURVE SMOOTH",
"427 426 OFFCURVE",
"383 389 OFFCURVE",
"303 389 CURVE SMOOTH"
);
}
);
};
layerId = "5EAB4D72-96CB-4765-AAD5-A13175319428";
paths = (
{
closed = 1;
nodes = (
"212 0 LINE",
"212 289 LINE",
"316 289 LINE SMOOTH",
"470 289 OFFCURVE",
"553 361 OFFCURVE",
"553 496 CURVE SMOOTH",
"553 629 OFFCURVE",
"472 697 OFFCURVE",
"316 697 CURVE SMOOTH",
"88 697 LINE",
"88 0 LINE"
);
},
{
closed = 1;
nodes = (
"212 582 LINE",
"303 582 LINE SMOOTH",
"392 582 OFFCURVE",
"428 557 OFFCURVE",
"428 494 CURVE SMOOTH",
"428 431 OFFCURVE",
"391 404 OFFCURVE",
"303 404 CURVE SMOOTH",
"212 404 LINE"
);
}
);
width = 575;
},
{
anchors = (
{
name = bottom;
position = "{297, 0}";
},
{
name = top;
position = "{297, 697}";
}
);
layerId = "AC39E679-6500-437B-9A87-662B1E841B74";
paths = (
{
closed = 1;
nodes = (
"185 0 LINE",
"185 304 LINE",
"313 304 LINE SMOOTH",
"460 304 OFFCURVE",
"543 375 OFFCURVE",
"543 502 CURVE SMOOTH",
"543 627 OFFCURVE",
"461 697 OFFCURVE",
"313 697 CURVE SMOOTH",
"114 697 LINE",
"114 0 LINE"
);
},
{
closed = 1;
nodes = (
"185 631 LINE",
"306 631 LINE SMOOTH",
"415 631 OFFCURVE",
"471 587 OFFCURVE",
"471 501 CURVE SMOOTH",
"471 415 OFFCURVE",
"415 370 OFFCURVE",
"306 370 CURVE SMOOTH",
"185 370 LINE"
);
}
);
width = 593;
},
{
anchors = (
{
name = bottom;
position = "{280, 0}";
},
{
name = top;
position = "{280, 697}";
}
);
background = {
paths = (
{
closed = 1;
nodes = (
"36 61 LINE",
"163 61 LINE",
"163 289 LINE",
"316 289 LINE SMOOTH",
"467 289 OFFCURVE",
"552 361 OFFCURVE",
"552 496 CURVE SMOOTH",
"552 622 OFFCURVE",
"470 699 OFFCURVE",
"317 699 CURVE SMOOTH",
"36 699 LINE"
);
},
{
closed = 1;
nodes = (
"163 389 LINE",
"163 597 LINE",
"301 597 LINE SMOOTH",
"381 597 OFFCURVE",
"426 560 OFFCURVE",
"426 493 CURVE SMOOTH",
"426 426 OFFCURVE",
"382 389 OFFCURVE",
"302 389 CURVE SMOOTH"
);
}
);
};
layerId = "957254E3-B7AD-4837-9092-D4428001DE8E";
paths = (
{
closed = 1;
nodes = (
"227 0 LINE",
"227 280 LINE",
"316 280 LINE SMOOTH",
"475 280 OFFCURVE",
"558 353 OFFCURVE",
"558 492 CURVE SMOOTH",
"558 630 OFFCURVE",
"477 697 OFFCURVE",
"316 697 CURVE SMOOTH",
"71 697 LINE",
"71 0 LINE"
);
},
{
closed = 1;
nodes = (
"227 553 LINE",
"300 553 LINE SMOOTH",
"369 553 OFFCURVE",
"401 543 OFFCURVE",
"401 490 CURVE SMOOTH",
"401 434 OFFCURVE",
"364 424 OFFCURVE",
"300 424 CURVE SMOOTH",
"227 424 LINE"
);
}
);
width = 563;
}
);
leftKerningGroup = B;
note = P;
rightKerningGroup = P;
unicode = 0050;
},
{
color = 1;
glyphname = Thorn;
lastChange = "2019-09-11 19:22:09 +0000";
layers = (
{
anchors = (
{
name = bottom;
position = "{293, 0}";
},
{
name = top;
position = "{293, 697}";
}
);
layerId = "F91D9E91-C1BC-4259-B0D8-112C0CBA2B8E";
paths = (
{
closed = 1;
nodes = (
"139 0 LINE",
"139 216 LINE",
"294 216 LINE SMOOTH",
"434 216 OFFCURVE",
"516 285 OFFCURVE",
"516 403 CURVE SMOOTH",
"516 522 OFFCURVE",
"433 592 OFFCURVE",
"294 592 CURVE SMOOTH",
"139 592 LINE",
"139 697 LINE",
"129 697 LINE",
"129 0 LINE"
);
},
{
closed = 1;
nodes = (
"139 582 LINE",
"294 582 LINE SMOOTH",
"428 582 OFFCURVE",
"506 516 OFFCURVE",
"506 403 CURVE SMOOTH",
"506 291 OFFCURVE",
"428 226 OFFCURVE",
"294 226 CURVE SMOOTH",
"139 226 LINE"
);
}
);
width = 585;
},
{
anchors = (
{
name = bottom;
position = "{282, 0}";
},
{
name = top;
position = "{282, 697}";
}
);
layerId = "5EAB4D72-96CB-4765-AAD5-A13175319428";
paths = (
{
closed = 1;
nodes = (
"202 0 LINE",
"202 196 LINE",
"301 196 LINE SMOOTH",
"453 196 OFFCURVE",
"542 273 OFFCURVE",
"542 404 CURVE SMOOTH",
"542 528 OFFCURVE",
"463 601 OFFCURVE",
"328 601 CURVE SMOOTH",
"202 601 LINE",
"202 697 LINE",
"88 697 LINE",
"88 0 LINE"
);
},
{
closed = 1;
nodes = (
"202 503 LINE",
"301 503 LINE SMOOTH",
"385 503 OFFCURVE",
"428 468 OFFCURVE",
"428 400 CURVE SMOOTH",
"428 333 OFFCURVE",
"386 300 OFFCURVE",
"301 300 CURVE SMOOTH",
"202 300 LINE"
);
}
);
width = 563;
},
{
anchors = (
{
name = bottom;
position = "{294, 0}";
},
{
name = top;
position = "{294, 697}";
}
);
layerId = "AC39E679-6500-437B-9A87-662B1E841B74";
paths = (
{
closed = 1;
nodes = (
"179 0 LINE",
"179 205 LINE",
"305 205 LINE SMOOTH",
"451 205 OFFCURVE",
"537 279 OFFCURVE",
"537 404 CURVE SMOOTH",
"537 525 OFFCURVE",
"456 597 OFFCURVE",
"319 597 CURVE SMOOTH",
"179 597 LINE",
"179 697 LINE",
"114 697 LINE",
"114 0 LINE"
);
},
{
closed = 1;
nodes = (
"179 540 LINE",
"305 540 LINE SMOOTH",
"411 540 OFFCURVE",
"471 490 OFFCURVE",
"471 401 CURVE SMOOTH",
"471 313 OFFCURVE",
"413 265 OFFCURVE",
"305 265 CURVE SMOOTH",
"179 265 LINE"
);
}
);
width = 587;
},
{
anchors = (
{
name = bottom;
position = "{273, 0}";
},
{
name = top;
position = "{273, 697}";
}
);
layerId = "957254E3-B7AD-4837-9092-D4428001DE8E";
paths = (
{
closed = 1;
nodes = (
"214 0 LINE",
"214 191 LINE",
"297 191 LINE SMOOTH",
"453 191 OFFCURVE",
"544 270 OFFCURVE",
"544 404 CURVE SMOOTH",
"544 530 OFFCURVE",
"465 603 OFFCURVE",
"332 603 CURVE SMOOTH",
"214 603 LINE",
"214 697 LINE",
"71 697 LINE",
"71 0 LINE"
);
},
{
closed = 1;
nodes = (
"214 481 LINE",
"297 481 LINE SMOOTH",
"361 481 OFFCURVE",
"401 460 OFFCURVE",
"401 399 CURVE SMOOTH",
"401 340 OFFCURVE",
"361 321 OFFCURVE",
"297 321 CURVE SMOOTH",
"214 321 LINE"
);
}
);
width = 548;
}
);
leftKerningGroup = B;
note = Thorn;
rightKerningGroup = Thorn;
unicode = 00DE;
},
{
color = 1;
glyphname = Q;
lastChange = "2019-09-11 19:22:09 +0000";
layers = (
{
anchors = (
{
name = bottom;
position = "{394, 0}";
},
{
name = top;
position = "{394, 697}";
}
);
layerId = "F91D9E91-C1BC-4259-B0D8-112C0CBA2B8E";
paths = (
{
closed = 1;
nodes = (
"573 -5 OFFCURVE",
"692 134 OFFCURVE",
"692 348 CURVE SMOOTH",
"692 562 OFFCURVE",
"572 702 OFFCURVE",
"388 702 CURVE SMOOTH",
"205 702 OFFCURVE",
"86 563 OFFCURVE",
"86 348 CURVE SMOOTH",
"86 134 OFFCURVE",
"205 -5 OFFCURVE",
"388 -5 CURVE SMOOTH"
);
},
{
closed = 1;
nodes = (
"697 -20 LINE",
"453 222 LINE",
"446 215 LINE",
"690 -27 LINE"
);
},
{
closed = 1;
nodes = (
"209 5 OFFCURVE",
"96 138 OFFCURVE",
"96 348 CURVE SMOOTH",
"96 559 OFFCURVE",
"209 692 OFFCURVE",
"388 692 CURVE SMOOTH",
"568 692 OFFCURVE",
"682 559 OFFCURVE",
"682 348 CURVE SMOOTH",
"682 138 OFFCURVE",
"568 5 OFFCURVE",
"388 5 CURVE SMOOTH"
);
}
);
width = 787;
},
{
anchors = (
{
name = bottom;
position = "{383, 0}";
},
{
name = top;
position = "{383, 697}";
}
);
layerId = "5EAB4D72-96CB-4765-AAD5-A13175319428";
paths = (
{
closed = 1;
nodes = (
"568 -15 OFFCURVE",
"703 130 OFFCURVE",
"703 348 CURVE SMOOTH",
"703 567 OFFCURVE",
"569 712 OFFCURVE",
"370 712 CURVE SMOOTH",
"172 712 OFFCURVE",
"37 567 OFFCURVE",
"37 348 CURVE SMOOTH",
"37 130 OFFCURVE",
"172 -15 OFFCURVE",
"370 -15 CURVE SMOOTH"
);
},
{
closed = 1;
nodes = (
"737 14 LINE",
"452 292 LINE",
"377 215 LINE",
"661 -59 LINE"
);
},
{
closed = 1;
nodes = (
"243 104 OFFCURVE",
"162 197 OFFCURVE",
"162 348 CURVE SMOOTH",
"162 500 OFFCURVE",
"243 593 OFFCURVE",
"370 593 CURVE SMOOTH",
"497 593 OFFCURVE",
"578 499 OFFCURVE",
"578 348 CURVE SMOOTH",
"578 198 OFFCURVE",
"497 104 OFFCURVE",
"370 104 CURVE SMOOTH"
);
}
);
width = 765;
},
{
anchors = (
{
name = bottom;
position = "{392, 0}";
},
{
name = top;
position = "{392, 697}";
}
);
layerId = "AC39E679-6500-437B-9A87-662B1E841B74";
paths = (
{
closed = 1;
nodes = (
"576 -10 OFFCURVE",
"704 133 OFFCURVE",
"704 348 CURVE SMOOTH",
"704 564 OFFCURVE",
"576 707 OFFCURVE",
"385 707 CURVE SMOOTH",
"194 707 OFFCURVE",
"66 564 OFFCURVE",
"66 348 CURVE SMOOTH",
"66 133 OFFCURVE",
"194 -10 OFFCURVE",
"385 -10 CURVE SMOOTH"
);
},
{
closed = 1;
nodes = (
"717 -11 LINE",
"453 248 LINE",
"405 205 LINE",
"671 -54 LINE"
);
},
{
closed = 1;
nodes = (
"234 58 OFFCURVE",
"137 171 OFFCURVE",
"137 348 CURVE SMOOTH",
"137 526 OFFCURVE",
"234 639 OFFCURVE",
"385 639 CURVE SMOOTH",
"536 639 OFFCURVE",
"633 526 OFFCURVE",
"633 348 CURVE SMOOTH",
"633 171 OFFCURVE",
"536 58 OFFCURVE",
"385 58 CURVE SMOOTH"
);
}
);
width = 784;
},
{
anchors = (
{
name = bottom;
position = "{379, 0}";
},
{
name = top;
position = "{379, 697}";
}
);
layerId = "957254E3-B7AD-4837-9092-D4428001DE8E";
paths = (
{
closed = 1;
nodes = (
"564 -18 OFFCURVE",
"704 128 OFFCURVE",
"704 348 CURVE SMOOTH",
"704 569 OFFCURVE",
"566 715 OFFCURVE",
"362 715 CURVE SMOOTH",
"160 715 OFFCURVE",
"21 568 OFFCURVE",
"21 348 CURVE SMOOTH",
"21 128 OFFCURVE",
"161 -18 OFFCURVE",
"362 -18 CURVE SMOOTH"
);
},
{
closed = 1;
nodes = (
"750 29 LINE",
"453 318 LINE",
"362 221 LINE",
"656 -62 LINE"
);
},
{
closed = 1;
nodes = (
"250 132 OFFCURVE",
"178 213 OFFCURVE",
"178 348 CURVE SMOOTH",
"178 484 OFFCURVE",
"250 565 OFFCURVE",
"362 565 CURVE SMOOTH",
"475 565 OFFCURVE",
"546 482 OFFCURVE",
"546 348 CURVE SMOOTH",
"546 215 OFFCURVE",
"475 132 OFFCURVE",
"362 132 CURVE SMOOTH"
);
}
);
width = 754;
}
);
leftKerningGroup = C;
note = Q;
rightKerningGroup = Q;
unicode = 0051;
},
{
color = 1;
glyphname = R;
lastChange = "2019-09-11 19:22:09 +0000";
layers = (
{
anchors = (
{
name = bottom;
position = "{309, 0}";
},
{
name = top;
position = "{309, 697}";
}
);
layerId = "F91D9E91-C1BC-4259-B0D8-112C0CBA2B8E";
paths = (
{
closed = 1;
nodes = (
"139 0 LINE",
"139 331 LINE",
"294 331 LINE SMOOTH",
"314 331 OFFCURVE",
"333 332 OFFCURVE",
"350 334 CURVE",
"459 352 OFFCURVE",
"516 414 OFFCURVE",
"516 513 CURVE SMOOTH",
"516 631 OFFCURVE",
"436 697 OFFCURVE",
"294 697 CURVE SMOOTH",
"129 697 LINE",
"129 0 LINE"
);
},
{
closed = 1;
nodes = (
"550 0 LINE",
"357 338 LINE",
"346 336 LINE",
"539 0 LINE"
);
},
{
closed = 1;
nodes = (
"139 687 LINE",
"294 687 LINE SMOOTH",
"430 687 OFFCURVE",
"506 625 OFFCURVE",
"506 513 CURVE SMOOTH",
"506 402 OFFCURVE",
"431 341 OFFCURVE",
"294 341 CURVE SMOOTH",
"139 341 LINE"
);
}
);
width = 617;
},
{
anchors = (
{
name = bottom;
position = "{311, 0}";
},
{
name = top;
position = "{311, 697}";
}
);
background = {
paths = (
{
closed = 1;
nodes = (
"405 300 LINE",
"501 326 OFFCURVE",
"553 398 OFFCURVE",
"553 493 CURVE SMOOTH",
"553 614 OFFCURVE",
"489 697 OFFCURVE",
"316 697 CURVE SMOOTH",
"88 697 LINE",
"88 0 LINE",
"212 0 LINE",
"212 289 LINE",
"273 289 LINE SMOOTH",
"289 289 OFFCURVE",
"302 289 OFFCURVE",
"320 289 CURVE"
);
},
{
closed = 1;
nodes = (
"212 580 LINE",
"315 580 LINE SMOOTH",
"401 580 OFFCURVE",
"428 549 OFFCURVE",
"428 493 CURVE SMOOTH",
"428 437 OFFCURVE",
"401 406 OFFCURVE",
"315 406 CURVE SMOOTH",
"212 406 LINE"
);
}
);
};
layerId = "5EAB4D72-96CB-4765-AAD5-A13175319428";
paths = (
{
closed = 1;
nodes = (
"212 0 LINE",
"212 289 LINE",
"258 289 LINE SMOOTH",
"287 289 OFFCURVE",
"316 289 OFFCURVE",
"344 289 CURVE",
"478 299 OFFCURVE",
"553 368 OFFCURVE",
"553 496 CURVE SMOOTH",
"553 621 OFFCURVE",
"482 697 OFFCURVE",
"316 697 CURVE SMOOTH",
"88 697 LINE",
"88 0 LINE"
);
},
{
closed = 1;
nodes = (
"612 0 LINE",
"415 318 LINE",
"292 303 LINE",
"467 0 LINE"
);
},
{
closed = 1;
nodes = (
"212 582 LINE",
"303 582 LINE SMOOTH",
"384 582 OFFCURVE",
"428 562 OFFCURVE",
"428 494 CURVE SMOOTH",
"428 426 OFFCURVE",
"384 404 OFFCURVE",
"303 404 CURVE SMOOTH",
"212 404 LINE"
);
}
);
width = 622;
},
{
anchors = (
{
name = bottom;
position = "{317, 0}";
},
{
name = top;
position = "{317, 697}";
}
);
layerId = "AC39E679-6500-437B-9A87-662B1E841B74";
paths = (
{
closed = 1;
nodes = (
"185 0 LINE",
"185 309 LINE",
"282 309 LINE SMOOTH",
"327 309 OFFCURVE",
"340 309 OFFCURVE",
"354 310 CURVE",
"478 324 OFFCURVE",
"543 391 OFFCURVE",
"543 504 CURVE SMOOTH",
"543 630 OFFCURVE",
"463 697 OFFCURVE",
"313 697 CURVE SMOOTH",
"114 697 LINE",
"114 0 LINE"
);
},
{
closed = 1;
nodes = (
"590 0 LINE",
"395 327 LINE",
"324 318 LINE",
"507 0 LINE"
);
},
{
closed = 1;
nodes = (
"185 631 LINE",
"306 631 LINE SMOOTH",
"416 631 OFFCURVE",
"471 588 OFFCURVE",
"471 503 CURVE SMOOTH",
"471 418 OFFCURVE",
"416 375 OFFCURVE",
"306 375 CURVE SMOOTH",
"185 375 LINE"
);
}
);
width = 633;
},
{
anchors = (
{
name = bottom;
position = "{306, 0}";
},
{
name = top;
position = "{306, 697}";
}
);
background = {
paths = (
{
closed = 1;
nodes = (
"404 300 LINE",
"500 326 OFFCURVE",
"552 398 OFFCURVE",
"552 493 CURVE SMOOTH",
"552 614 OFFCURVE",
"488 697 OFFCURVE",
"315 697 CURVE SMOOTH",
"87 697 LINE",
"87 0 LINE",
"211 0 LINE",
"211 289 LINE",
"272 289 LINE SMOOTH",
"288 289 OFFCURVE",
"301 289 OFFCURVE",
"319 289 CURVE"
);
},
{
closed = 1;
nodes = (
"211 580 LINE",
"314 580 LINE SMOOTH",
"400 580 OFFCURVE",
"427 549 OFFCURVE",
"427 493 CURVE SMOOTH",
"427 437 OFFCURVE",
"400 406 OFFCURVE",
"314 406 CURVE SMOOTH",
"211 406 LINE"
);
}
);
};
layerId = "957254E3-B7AD-4837-9092-D4428001DE8E";
paths = (
{
closed = 1;
nodes = (
"227 0 LINE",
"227 277 LINE",
"242 277 LINE SMOOTH",
"262 277 OFFCURVE",
"300 277 OFFCURVE",
"337 276 CURVE",
"477 284 OFFCURVE",
"558 355 OFFCURVE",
"558 491 CURVE SMOOTH",
"558 615 OFFCURVE",
"492 697 OFFCURVE",
"316 697 CURVE SMOOTH",
"71 697 LINE",
"71 0 LINE"
);
},
{
closed = 1;
nodes = (
"624 0 LINE",
"426 313 LINE",
"271 294 LINE",
"442 0 LINE"
);
},
{
closed = 1;
nodes = (
"227 553 LINE",
"300 553 LINE SMOOTH",
"349 553 OFFCURVE",
"401 553 OFFCURVE",
"401 489 CURVE SMOOTH",
"401 424 OFFCURVE",
"350 421 OFFCURVE",
"300 421 CURVE SMOOTH",
"227 421 LINE"
);
}
);
width = 614;
}
);
leftKerningGroup = B;
note = R;
rightKerningGroup = R;
unicode = 0052;
},
{
color = 1;
glyphname = S;
lastChange = "2019-09-11 19:32:35 +0000";
layers = (
{
anchors = (
{
name = bottom;
position = "{284, 0}";
},
{
name = top;
position = "{284, 697}";
}
);
layerId = "F91D9E91-C1BC-4259-B0D8-112C0CBA2B8E";
paths = (
{
closed = 1;
nodes = (
"408 -5 OFFCURVE",
"494 73 OFFCURVE",
"494 181 CURVE SMOOTH",
"494 298 OFFCURVE",
"393 336 OFFCURVE",
"295 373 CURVE SMOOTH",
"203 408 OFFCURVE",
"115 440 OFFCURVE",
"115 539 CURVE SMOOTH",
"115 626 OFFCURVE",
"184 692 OFFCURVE",
"289 692 CURVE SMOOTH",
"365 692 OFFCURVE",
"420 658 OFFCURVE",
"457 594 CURVE",
"465 600 LINE",
"427 666 OFFCURVE",
"368 702 OFFCURVE",
"289 702 CURVE SMOOTH",
"179 702 OFFCURVE",
"105 632 OFFCURVE",
"105 539 CURVE SMOOTH",
"105 437 OFFCURVE",
"194 401 OFFCURVE",
"286 366 CURVE SMOOTH",
"384 329 OFFCURVE",
"484 294 OFFCURVE",
"484 180 CURVE SMOOTH",
"484 79 OFFCURVE",
"403 5 OFFCURVE",
"285 5 CURVE SMOOTH",
"176 5 OFFCURVE",
"97 69 OFFCURVE",
"79 175 CURVE",
"69 173 LINE",
"88 63 OFFCURVE",
"171 -5 OFFCURVE",
"285 -5 CURVE SMOOTH"
);
}
);
width = 567;
},
{
anchors = (
{
name = bottom;
position = "{279, 0}";
},
{
name = top;
position = "{279, 697}";
}
);
layerId = "5EAB4D72-96CB-4765-AAD5-A13175319428";
paths = (
{
closed = 1;
nodes = (
"431 -13 OFFCURVE",
"530 73 OFFCURVE",
"530 203 CURVE SMOOTH",
"530 302 OFFCURVE",
"481 355 OFFCURVE",
"332 412 CURVE SMOOTH",
"227 453 OFFCURVE",
"193 479 OFFCURVE",
"193 525 CURVE SMOOTH",
"193 568 OFFCURVE",
"231 601 OFFCURVE",
"281 601 CURVE SMOOTH",
"328 601 OFFCURVE",
"369 573 OFFCURVE",
"393 521 CURVE",
"497 585 LINE",
"453 669 OFFCURVE",
"379 712 OFFCURVE",
"285 712 CURVE SMOOTH",
"155 712 OFFCURVE",
"68 635 OFFCURVE",
"68 522 CURVE SMOOTH",
"68 421 OFFCURVE",
"120 368 OFFCURVE",
"266 311 CURVE SMOOTH",
"369 270 OFFCURVE",
"405 240 OFFCURVE",
"405 192 CURVE SMOOTH",
"405 133 OFFCURVE",
"360 98 OFFCURVE",
"290 98 CURVE SMOOTH",
"209 98 OFFCURVE",
"154 145 OFFCURVE",
"145 228 CURVE",
"21 197 LINE",
"41 70 OFFCURVE",
"149 -13 OFFCURVE",
"288 -13 CURVE SMOOTH"
);
}
);
width = 558;
},
{
anchors = (
{
name = bottom;
position = "{287, 0}";
},
{
name = top;
position = "{287, 697}";
}
);
layerId = "AC39E679-6500-437B-9A87-662B1E841B74";
paths = (
{
closed = 1;
nodes = (
"438 -10 OFFCURVE",
"519 65 OFFCURVE",
"519 182 CURVE SMOOTH",
"519 279 OFFCURVE",
"475 335 OFFCURVE",
"320 394 CURVE SMOOTH",
"210 436 OFFCURVE",
"162 470 OFFCURVE",
"162 534 CURVE SMOOTH",
"162 593 OFFCURVE",
"214 643 OFFCURVE",
"287 643 CURVE SMOOTH",
"347 643 OFFCURVE",
"398 611 OFFCURVE",
"428 557 CURVE",
"488 594 LINE",
"446 668 OFFCURVE",
"377 707 OFFCURVE",
"289 707 CURVE SMOOTH",
"171 707 OFFCURVE",
"91 637 OFFCURVE",
"91 531 CURVE SMOOTH",
"91 440 OFFCURVE",
"140 390 OFFCURVE",
"281 337 CURVE SMOOTH",
"404 290 OFFCURVE",
"447 251 OFFCURVE",
"447 176 CURVE SMOOTH",
"447 107 OFFCURVE",
"396 54 OFFCURVE",
"295 54 CURVE SMOOTH",
"201 54 OFFCURVE",
"133 111 OFFCURVE",
"120 201 CURVE",
"49 184 LINE",
"68 67 OFFCURVE",
"165 -10 OFFCURVE",
"294 -10 CURVE SMOOTH"
);
}
);
width = 574;
},
{
anchors = (
{
name = bottom;
position = "{273, 0}";
},
{
name = top;
position = "{273, 697}";
}
);
layerId = "957254E3-B7AD-4837-9092-D4428001DE8E";
paths = (
{
closed = 1;
nodes = (
"425 -15 OFFCURVE",
"535 78 OFFCURVE",
"535 216 CURVE SMOOTH",
"535 315 OFFCURVE",
"487 365 OFFCURVE",
"337 423 CURVE SMOOTH",
"237 462 OFFCURVE",
"210 486 OFFCURVE",
"210 520 CURVE SMOOTH",
"210 553 OFFCURVE",
"240 576 OFFCURVE",
"276 576 CURVE SMOOTH",
"316 576 OFFCURVE",
"350 550 OFFCURVE",
"371 499 CURVE",
"501 580 LINE",
"456 670 OFFCURVE",
"378 715 OFFCURVE",
"281 715 CURVE SMOOTH",
"144 715 OFFCURVE",
"53 633 OFFCURVE",
"53 517 CURVE SMOOTH",
"53 410 OFFCURVE",
"107 355 OFFCURVE",
"256 295 CURVE SMOOTH",
"347 258 OFFCURVE",
"379 234 OFFCURVE",
"379 202 CURVE SMOOTH",
"379 149 OFFCURVE",
"337 124 OFFCURVE",
"286 124 CURVE SMOOTH",
"216 124 OFFCURVE",
"166 162 OFFCURVE",
"159 244 CURVE",
"3 205 LINE",
"24 72 OFFCURVE",
"138 -15 OFFCURVE",
"283 -15 CURVE SMOOTH"
);
}
);
width = 546;
}
);
leftKerningGroup = S;
note = S;
rightKerningGroup = S;
unicode = 0053;
},
{
color = 1;
glyphname = Germandbls;
lastChange = "2019-09-11 19:22:09 +0000";
layers = (
{
anchors = (
{
name = bottom;
position = "{340, 0}";
},
{
name = top;
position = "{340, 697}";
}
);
layerId = "F91D9E91-C1BC-4259-B0D8-112C0CBA2B8E";
paths = (
{
closed = 1;
nodes = (
"555 -5 OFFCURVE",
"616 46 OFFCURVE",
"616 127 CURVE SMOOTH",
"616 323 OFFCURVE",
"291 215 OFFCURVE",
"291 379 CURVE SMOOTH",
"291 416 OFFCURVE",
"307 435 OFFCURVE",
"325 454 CURVE SMOOTH",
"542 687 LINE",
"542 697 LINE",
"304 697 LINE SMOOTH",
"141 697 OFFCURVE",
"118 575 OFFCURVE",
"118 459 CURVE SMOOTH",
"118 -1 LINE",
"128 -1 LINE",
"128 459 LINE SMOOTH",
"128 572 OFFCURVE",
"148 687 OFFCURVE",
"304 687 CURVE SMOOTH",
"529 687 LINE",
"318 462 LINE SMOOTH",
"299 441 OFFCURVE",
"281 421 OFFCURVE",
"281 379 CURVE SMOOTH",
"281 203 OFFCURVE",
"606 311 OFFCURVE",
"606 127 CURVE SMOOTH",
"606 50 OFFCURVE",
"546 5 OFFCURVE",
"457 5 CURVE SMOOTH",
"367 5 OFFCURVE",
"299 51 OFFCURVE",
"275 120 CURVE",
"265 116 LINE",
"291 42 OFFCURVE",
"363 -5 OFFCURVE",
"457 -5 CURVE SMOOTH"
);
}
);
width = 680;
},
{
anchors = (
{
name = bottom;
position = "{355, 0}";
},
{
name = top;
position = "{355, 697}";
}
);
layerId = "5EAB4D72-96CB-4765-AAD5-A13175319428";
paths = (
{
closed = 1;
nodes = (
"576 -15 OFFCURVE",
"659 54 OFFCURVE",
"659 145 CURVE SMOOTH",
"659 330 OFFCURVE",
"412 290 OFFCURVE",
"412 359 CURVE SMOOTH",
"412 374 OFFCURVE",
"424 391 OFFCURVE",
"434 403 CURVE SMOOTH",
"584 582 LINE",
"584 697 LINE",
"338 697 LINE SMOOTH",
"99 697 OFFCURVE",
"72 543 OFFCURVE",
"72 426 CURVE SMOOTH",
"72 0 LINE",
"197 0 LINE",
"197 426 LINE SMOOTH",
"197 529 OFFCURVE",
"233 576 OFFCURVE",
"338 576 CURVE SMOOTH",
"430 576 LINE",
"348 476 LINE SMOOTH",
"318 439 OFFCURVE",
"286 410 OFFCURVE",
"286 349 CURVE SMOOTH",
"286 186 OFFCURVE",
"522 232 OFFCURVE",
"522 143 CURVE SMOOTH",
"522 118 OFFCURVE",
"505 101 OFFCURVE",
"464 101 CURVE SMOOTH",
"404 101 OFFCURVE",
"369 138 OFFCURVE",
"349 184 CURVE",
"243 128 LINE",
"267 48 OFFCURVE",
"350 -15 OFFCURVE",
"460 -15 CURVE SMOOTH"
);
}
);
width = 679;
},
{
anchors = (
{
name = bottom;
position = "{355, 0}";
},
{
name = top;
position = "{355, 697}";
}
);
layerId = "AC39E679-6500-437B-9A87-662B1E841B74";
paths = (
{
closed = 1;
nodes = (
"572 -8 OFFCURVE",
"645 53 OFFCURVE",
"645 142 CURVE SMOOTH",
"645 327 OFFCURVE",
"362 255 OFFCURVE",
"362 368 CURVE SMOOTH",
"362 393 OFFCURVE",
"376 411 OFFCURVE",
"390 427 CURVE SMOOTH",
"591 656 LINE",
"591 697 LINE",
"329 697 LINE SMOOTH",
"118 697 OFFCURVE",
"100 546 OFFCURVE",
"100 441 CURVE SMOOTH",
"100 0 LINE",
"171 0 LINE",
"171 441 LINE SMOOTH",
"171 566 OFFCURVE",
"213 628 OFFCURVE",
"329 628 CURVE SMOOTH",
"483 628 LINE",
"341 469 LINE SMOOTH",
"317 442 OFFCURVE",
"290 416 OFFCURVE",
"290 363 CURVE SMOOTH",
"290 195 OFFCURVE",
"568 269 OFFCURVE",
"568 138 CURVE SMOOTH",
"568 89 OFFCURVE",
"530 59 OFFCURVE",
"467 59 CURVE SMOOTH",
"393 59 OFFCURVE",
"343 100 OFFCURVE",
"321 154 CURVE",
"260 122 LINE",
"285 48 OFFCURVE",
"363 -8 OFFCURVE",
"465 -8 CURVE SMOOTH"
);
}
);
width = 694;
},
{
anchors = (
{
name = bottom;
position = "{353, 0}";
},
{
name = top;
position = "{353, 697}";
}
);
layerId = "957254E3-B7AD-4837-9092-D4428001DE8E";
paths = (
{
closed = 1;
nodes = (
"576 -19 OFFCURVE",
"665 55 OFFCURVE",
"665 167 CURVE SMOOTH",
"665 352 OFFCURVE",
"444 329 OFFCURVE",
"444 365 CURVE SMOOTH",
"444 369 OFFCURVE",
"445 373 OFFCURVE",
"451 380 CURVE SMOOTH",
"605 570 LINE",
"605 697 LINE",
"341 697 LINE SMOOTH",
"77 697 OFFCURVE",
"53 529 OFFCURVE",
"53 417 CURVE SMOOTH",
"53 0 LINE",
"210 0 LINE",
"210 417 LINE SMOOTH",
"210 516 OFFCURVE",
"253 545 OFFCURVE",
"341 545 CURVE SMOOTH",
"396 545 LINE",
"349 481 LINE SMOOTH",
"317 437 OFFCURVE",
"281 405 OFFCURVE",
"281 341 CURVE SMOOTH",
"281 201 OFFCURVE",
"492 230 OFFCURVE",
"492 156 CURVE SMOOTH",
"492 136 OFFCURVE",
"478 126 OFFCURVE",
"460 126 CURVE SMOOTH",
"409 126 OFFCURVE",
"382 161 OFFCURVE",
"364 202 CURVE",
"231 132 LINE",
"254 48 OFFCURVE",
"341 -19 OFFCURVE",
"455 -19 CURVE SMOOTH"
);
}
);
width = 675;
}
);
unicode = 1E9E;
},
{
color = 1;
glyphname = T;
lastChange = "2019-09-11 19:32:01 +0000";
layers = (
{
anchors = (
{
name = bottom;
position = "{323, 0}";
},
{
name = center;
position = "{323, 349}";
},
{
name = top;
position = "{323, 697}";
}
);
layerId = "F91D9E91-C1BC-4259-B0D8-112C0CBA2B8E";
paths = (
{
closed = 1;
nodes = (
"328 0 LINE",
"328 687 LINE",
"596 687 LINE",
"596 697 LINE",
"50 697 LINE",
"50 687 LINE",
"318 687 LINE",
"318 0 LINE"
);
}
);
width = 646;
},
{
anchors = (
{
name = bottom;
position = "{289, 0}";
},
{
name = center;
position = "{289, 349}";
},
{
name = top;
position = "{289, 697}";
}
);
layerId = "5EAB4D72-96CB-4765-AAD5-A13175319428";
paths = (
{
closed = 1;
nodes = (
"352 0 LINE",
"352 582 LINE",
"570 582 LINE",
"570 697 LINE",
"8 697 LINE",
"8 582 LINE",
"226 582 LINE",
"226 0 LINE"
);
}
);
width = 578;
},
{
anchors = (
{
name = bottom;
position = "{311, 0}";
},
{
name = center;
position = "{311, 349}";
},
{
name = top;
position = "{311, 697}";
}
);
layerId = "AC39E679-6500-437B-9A87-662B1E841B74";
paths = (
{
closed = 1;
nodes = (
"347 0 LINE",
"347 631 LINE",
"589 631 LINE",
"589 697 LINE",
"34 697 LINE",
"34 631 LINE",
"275 631 LINE",
"275 0 LINE"
);
}
);
width = 623;
},
{
anchors = (
{
name = bottom;
position = "{278, 0}";
},
{
name = center;
position = "{278, 349}";
},
{
name = top;
position = "{278, 697}";
}
);
layerId = "957254E3-B7AD-4837-9092-D4428001DE8E";
paths = (
{
closed = 1;
nodes = (
"358 0 LINE",
"358 553 LINE",
"561 553 LINE",
"561 697 LINE",
"-5 697 LINE",
"-5 553 LINE",
"199 553 LINE",
"199 0 LINE"
);
}
);
width = 556;
}
);
leftKerningGroup = T;
note = T;
rightKerningGroup = T;
unicode = 0054;
},
{
color = 1;
glyphname = U;
lastChange = "2019-09-11 19:33:41 +0000";
layers = (
{
anchors = (
{
name = bottom;
position = "{348, 0}";
},
{
name = ogonek;
position = "{401, 0}";
},
{
name = top;
position = "{348, 697}";
},
{
name = topright;
position = "{636, 493}";
}
);
layerId = "F91D9E91-C1BC-4259-B0D8-112C0CBA2B8E";
paths = (
{
closed = 1;
nodes = (
"497 -5 OFFCURVE",
"581 89 OFFCURVE",
"581 257 CURVE SMOOTH",
"581 697 LINE",
"571 697 LINE",
"571 257 LINE SMOOTH",
"571 95 OFFCURVE",
"491 5 OFFCURVE",
"347 5 CURVE SMOOTH",
"204 5 OFFCURVE",
"126 93 OFFCURVE",
"126 252 CURVE SMOOTH",
"126 697 LINE",
"116 697 LINE",
"116 252 LINE SMOOTH",
"116 87 OFFCURVE",
"199 -5 OFFCURVE",
"347 -5 CURVE SMOOTH"
);
}
);
width = 696;
},
{
anchors = (
{
name = bottom;
position = "{341, 0}";
},
{
name = ogonek;
position = "{427, 0}";
},
{
name = top;
position = "{341, 697}";
},
{
name = topright;
position = "{676, 493}";
}
);
layerId = "5EAB4D72-96CB-4765-AAD5-A13175319428";
paths = (
{
closed = 1;
nodes = (
"516 -15 OFFCURVE",
"607 76 OFFCURVE",
"607 257 CURVE SMOOTH",
"607 697 LINE",
"482 697 LINE",
"482 266 LINE SMOOTH",
"482 149 OFFCURVE",
"443 106 OFFCURVE",
"340 106 CURVE SMOOTH",
"237 106 OFFCURVE",
"199 148 OFFCURVE",
"199 266 CURVE SMOOTH",
"199 697 LINE",
"74 697 LINE",
"74 252 LINE SMOOTH",
"74 74 OFFCURVE",
"165 -15 OFFCURVE",
"340 -15 CURVE SMOOTH"
);
}
);
width = 681;
},
{
anchors = (
{
name = bottom;
position = "{350, 0}";
},
{
name = ogonek;
position = "{420, 0}";
},
{
name = top;
position = "{350, 697}";
},
{
name = topright;
position = "{663, 493}";
}
);
layerId = "AC39E679-6500-437B-9A87-662B1E841B74";
paths = (
{
closed = 1;
nodes = (
"512 -10 OFFCURVE",
"600 82 OFFCURVE",
"600 257 CURVE SMOOTH",
"600 697 LINE",
"529 697 LINE",
"529 262 LINE SMOOTH",
"529 125 OFFCURVE",
"471 60 OFFCURVE",
"349 60 CURVE SMOOTH",
"228 60 OFFCURVE",
"170 124 OFFCURVE",
"170 259 CURVE SMOOTH",
"170 697 LINE",
"99 697 LINE",
"99 252 LINE SMOOTH",
"99 81 OFFCURVE",
"187 -10 OFFCURVE",
"349 -10 CURVE SMOOTH"
);
}
);
width = 699;
},
{
anchors = (
{
name = bottom;
position = "{333, 0}";
},
{
name = ogonek;
position = "{428, 0}";
},
{
name = top;
position = "{333, 697}";
},
{
name = topright;
position = "{681, 493}";
}
);
layerId = "957254E3-B7AD-4837-9092-D4428001DE8E";
paths = (
{
closed = 1;
nodes = (
"514 -18 OFFCURVE",
"608 72 OFFCURVE",
"608 257 CURVE SMOOTH",
"608 697 LINE",
"451 697 LINE",
"451 268 LINE SMOOTH",
"451 174 OFFCURVE",
"432 126 OFFCURVE",
"332 126 CURVE SMOOTH",
"231 126 OFFCURVE",
"213 173 OFFCURVE",
"213 270 CURVE SMOOTH",
"213 697 LINE",
"56 697 LINE",
"56 252 LINE SMOOTH",
"56 70 OFFCURVE",
"149 -18 OFFCURVE",
"332 -18 CURVE SMOOTH"
);
}
);
width = 664;
}
);
leftKerningGroup = U;
note = U;
rightKerningGroup = J;
unicode = 0055;
},
{
color = 1;
glyphname = V;
lastChange = "2019-09-11 19:22:09 +0000";
layers = (
{
anchors = (
{
name = bottom;
position = "{339, 0}";
},
{
name = top;
position = "{339, 697}";
}
);
layerId = "F91D9E91-C1BC-4259-B0D8-112C0CBA2B8E";
paths = (
{
closed = 1;
nodes = (
"347 0 LINE",
"620 697 LINE",
"609 697 LINE",
"341 10 LINE",
"337 10 LINE",
"69 697 LINE",
"58 697 LINE",
"331 0 LINE"
);
}
);
width = 678;
},
{
anchors = (
{
name = bottom;
position = "{330, 0}";
},
{
name = top;
position = "{330, 697}";
}
);
layerId = "5EAB4D72-96CB-4765-AAD5-A13175319428";
paths = (
{
closed = 1;
nodes = (
"377 0 LINE",
"655 697 LINE",
"517 697 LINE",
"311 153 LINE",
"350 153 LINE",
"142 697 LINE",
"4 697 LINE",
"283 0 LINE"
);
}
);
width = 659;
},
{
anchors = (
{
name = bottom;
position = "{341, 0}";
},
{
name = top;
position = "{341, 697}";
}
);
layerId = "AC39E679-6500-437B-9A87-662B1E841B74";
paths = (
{
closed = 1;
nodes = (
"370 0 LINE",
"645 697 LINE",
"567 697 LINE",
"332 86 LINE",
"351 86 LINE",
"115 697 LINE",
"36 697 LINE",
"312 0 LINE"
);
}
);
width = 681;
},
{
anchors = (
{
name = bottom;
position = "{325, 0}";
},
{
name = top;
position = "{325, 697}";
}
);
layerId = "957254E3-B7AD-4837-9092-D4428001DE8E";
paths = (
{
closed = 1;
nodes = (
"382 0 LINE",
"662 697 LINE",
"488 697 LINE",
"300 193 LINE",
"351 193 LINE",
"159 697 LINE",
"-14 697 LINE",
"267 0 LINE"
);
}
);
width = 648;
}
);
leftKerningGroup = V;
note = V;
rightKerningGroup = V;
unicode = 0056;
},
{
color = 1;
glyphname = W;
lastChange = "2019-09-11 19:22:09 +0000";
layers = (
{
anchors = (
{
name = bottom;
position = "{480, 0}";
},
{
name = top;
position = "{480, 697}";
}
);
layerId = "F91D9E91-C1BC-4259-B0D8-112C0CBA2B8E";
paths = (
{
closed = 1;
nodes = (
"272 0 LINE",
"480 647 LINE",
"687 0 LINE",
"703 0 LINE",
"896 697 LINE",
"885 697 LINE",
"695 9 LINE",
"486 663 LINE",
"473 663 LINE",
"264 9 LINE",
"74 697 LINE",
"63 697 LINE",
"256 0 LINE"
);
}
);
width = 959;
},
{
anchors = (
{
name = bottom;
position = "{493, 0}";
},
{
name = top;
position = "{493, 697}";
}
);
layerId = "5EAB4D72-96CB-4765-AAD5-A13175319428";
paths = (
{
closed = 1;
nodes = (
"341 0 LINE",
"493 459 LINE",
"644 0 LINE",
"766 0 LINE",
"975 697 LINE",
"844 697 LINE",
"698 191 LINE",
"546 657 LINE",
"439 657 LINE",
"288 191 LINE",
"141 697 LINE",
"11 697 LINE",
"220 0 LINE"
);
}
);
width = 986;
},
{
anchors = (
{
name = bottom;
position = "{494, 0}";
},
{
name = top;
position = "{494, 697}";
}
);
layerId = "AC39E679-6500-437B-9A87-662B1E841B74";
paths = (
{
closed = 1;
nodes = (
"316 0 LINE",
"494 547 LINE",
"671 0 LINE",
"743 0 LINE",
"945 697 LINE",
"870 697 LINE",
"703 106 LINE",
"525 660 LINE",
"462 660 LINE",
"284 106 LINE",
"116 697 LINE",
"42 697 LINE",
"244 0 LINE"
);
}
);
width = 987;
},
{
anchors = (
{
name = bottom;
position = "{493, 0}";
},
{
name = top;
position = "{493, 697}";
}
);
layerId = "957254E3-B7AD-4837-9092-D4428001DE8E";
paths = (
{
closed = 1;
nodes = (
"357 0 LINE",
"493 406 LINE",
"628 0 LINE",
"780 0 LINE",
"994 697 LINE",
"829 697 LINE",
"696 242 LINE",
"559 655 LINE",
"426 655 LINE",
"291 242 LINE",
"157 697 LINE",
"-7 697 LINE",
"206 0 LINE"
);
}
);
width = 986;
}
);
leftKerningGroup = W;
note = W;
rightKerningGroup = W;
unicode = 0057;
},
{
color = 1;
glyphname = X;
lastChange = "2019-09-11 19:22:09 +0000";
layers = (
{
anchors = (
{
name = bottom;
position = "{319, 0}";
},
{
name = top;
position = "{319, 697}";
}
);
layerId = "F91D9E91-C1BC-4259-B0D8-112C0CBA2B8E";
paths = (
{
closed = 1;
nodes = (
"71 0 LINE",
"318 345 LINE",
"566 0 LINE",
"578 0 LINE",
"324 355 LINE",
"570 697 LINE",
"558 697 LINE",
"318 363 LINE",
"79 697 LINE",
"67 697 LINE",
"312 355 LINE",
"59 0 LINE"
);
}
);
width = 637;
},
{
anchors = (
{
name = bottom;
position = "{330, 0}";
},
{
name = top;
position = "{330, 697}";
}
);
layerId = "5EAB4D72-96CB-4765-AAD5-A13175319428";
paths = (
{
closed = 1;
nodes = (
"161 0 LINE",
"329 258 LINE",
"500 0 LINE",
"650 0 LINE",
"416 348 LINE",
"648 697 LINE",
"499 697 LINE",
"330 435 LINE",
"162 697 LINE",
"12 697 LINE",
"244 348 LINE",
"11 0 LINE"
);
}
);
width = 660;
},
{
anchors = (
{
name = bottom;
position = "{331, 0}";
},
{
name = top;
position = "{331, 697}";
}
);
layerId = "AC39E679-6500-437B-9A87-662B1E841B74";
paths = (
{
closed = 1;
nodes = (
"126 0 LINE",
"330 299 LINE",
"537 0 LINE",
"623 0 LINE",
"380 351 LINE",
"618 697 LINE",
"533 697 LINE",
"331 401 LINE",
"130 697 LINE",
"44 697 LINE",
"282 351 LINE",
"40 0 LINE"
);
}
);
width = 662;
},
{
anchors = (
{
name = bottom;
position = "{331, 0}";
},
{
name = top;
position = "{331, 697}";
}
);
layerId = "957254E3-B7AD-4837-9092-D4428001DE8E";
paths = (
{
closed = 1;
nodes = (
"183 0 LINE",
"330 233 LINE",
"479 0 LINE",
"667 0 LINE",
"439 346 LINE",
"667 697 LINE",
"480 697 LINE",
"331 455 LINE",
"182 697 LINE",
"-6 697 LINE",
"222 346 LINE",
"-5 0 LINE"
);
}
);
width = 660;
}
);
leftKerningGroup = X;
note = X;
rightKerningGroup = X;
unicode = 0058;
},
{
color = 1;
glyphname = Y;
lastChange = "2019-09-11 19:22:09 +0000";
layers = (
{
anchors = (
{
name = bottom;
position = "{327, 0}";
},
{
name = top;
position = "{327, 697}";
},
{
name = topleft;
position = "{20, 697}";
}
);
layerId = "F91D9E91-C1BC-4259-B0D8-112C0CBA2B8E";
paths = (
{
closed = 1;
nodes = (
"331 0 LINE",
"331 261 LINE",
"601 697 LINE",
"589 697 LINE",
"326 273 LINE",
"65 697 LINE",
"53 697 LINE",
"321 261 LINE",
"321 0 LINE"
);
}
);
width = 654;
},
{
anchors = (
{
name = bottom;
position = "{324, 0}";
},
{
name = top;
position = "{324, 697}";
},
{
name = topleft;
position = "{20, 697}";
}
);
layerId = "5EAB4D72-96CB-4765-AAD5-A13175319428";
paths = (
{
closed = 1;
nodes = (
"387 0 LINE",
"387 272 LINE",
"650 697 LINE",
"502 697 LINE",
"322 392 LINE",
"144 697 LINE",
"-3 697 LINE",
"262 272 LINE",
"262 0 LINE"
);
}
);
width = 647;
},
{
anchors = (
{
name = bottom;
position = "{332, 0}";
},
{
name = top;
position = "{332, 697}";
},
{
name = topleft;
position = "{27, 697}";
}
);
layerId = "AC39E679-6500-437B-9A87-662B1E841B74";
paths = (
{
closed = 1;
nodes = (
"368 0 LINE",
"368 267 LINE",
"634 697 LINE",
"549 697 LINE",
"331 336 LINE",
"114 697 LINE",
"30 697 LINE",
"296 267 LINE",
"296 0 LINE"
);
}
);
width = 664;
},
{
anchors = (
{
name = bottom;
position = "{321, 0}";
},
{
name = top;
position = "{321, 697}";
},
{
name = topleft;
position = "{18, 697}";
}
);
layerId = "957254E3-B7AD-4837-9092-D4428001DE8E";
paths = (
{
closed = 1;
nodes = (
"400 0 LINE",
"400 275 LINE",
"661 697 LINE",
"476 697 LINE",
"318 426 LINE",
"164 697 LINE",
"-21 697 LINE",
"243 275 LINE",
"243 0 LINE"
);
}
);
width = 641;
}
);
leftKerningGroup = Y;
note = Y;
rightKerningGroup = Y;
unicode = 0059;
},
{
color = 1;
glyphname = Z;
lastChange = "2019-09-11 19:22:09 +0000";
layers = (
{
anchors = (
{
name = bottom;
position = "{327, 0}";
},
{
name = center;
position = "{327, 349}";
},
{
name = top;
position = "{327, 697}";
}
);
layerId = "F91D9E91-C1BC-4259-B0D8-112C0CBA2B8E";
paths = (
{
closed = 1;
nodes = (
"590 0 LINE",
"590 10 LINE",
"66 10 LINE",
"66 12 LINE",
"593 682 LINE",
"593 697 LINE",
"81 697 LINE",
"81 687 LINE",
"584 687 LINE",
"584 686 LINE",
"57 16 LINE",
"57 0 LINE"
);
}
);
width = 654;
},
{
anchors = (
{
name = bottom;
position = "{312, 0}";
},
{
name = center;
position = "{312, 349}";
},
{
name = top;
position = "{312, 697}";
}
);
layerId = "5EAB4D72-96CB-4765-AAD5-A13175319428";
paths = (
{
closed = 1;
nodes = (
"589 0 LINE",
"589 115 LINE",
"147 115 LINE",
"163 71 LINE",
"589 606 LINE",
"589 697 LINE",
"50 697 LINE",
"50 582 LINE",
"471 582 LINE",
"456 624 LINE",
"27 87 LINE",
"27 0 LINE"
);
}
);
width = 624;
},
{
anchors = (
{
name = bottom;
position = "{324, 0}";
},
{
name = center;
position = "{324, 349}";
},
{
name = top;
position = "{324, 697}";
}
);
layerId = "AC39E679-6500-437B-9A87-662B1E841B74";
paths = (
{
closed = 1;
nodes = (
"594 0 LINE",
"594 66 LINE",
"114 66 LINE",
"123 43 LINE",
"596 641 LINE",
"596 697 LINE",
"69 697 LINE",
"69 631 LINE",
"529 631 LINE",
"521 653 LINE",
"46 54 LINE",
"46 0 LINE"
);
}
);
width = 648;
},
{
anchors = (
{
name = bottom;
position = "{304, 0}";
},
{
name = center;
position = "{304, 349}";
},
{
name = top;
position = "{304, 697}";
}
);
layerId = "957254E3-B7AD-4837-9092-D4428001DE8E";
paths = (
{
closed = 1;
nodes = (
"585 0 LINE",
"585 144 LINE",
"166 144 LINE",
"186 88 LINE",
"584 585 LINE",
"584 697 LINE",
"38 697 LINE",
"38 553 LINE",
"436 553 LINE",
"416 607 LINE",
"15 107 LINE",
"15 0 LINE"
);
}
);
width = 608;
}
);
leftKerningGroup = Z;
note = Z;
rightKerningGroup = Z;
unicode = 005A;
},
{
color = 1;
glyphname = a;
lastChange = "2019-09-11 19:22:08 +0000";
layers = (
{
anchors = (
{
name = bottom;
position = "{262, 0}";
},
{
name = ogonek;
position = "{433, 0}";
},
{
name = top;
position = "{262, 493}";
}
);
layerId = "F91D9E91-C1BC-4259-B0D8-112C0CBA2B8E";
paths = (
{
closed = 1;
nodes = (
"433 0 LINE",
"433 303 LINE SMOOTH",
"433 432 OFFCURVE",
"372 498 OFFCURVE",
"254 498 CURVE SMOOTH",
"177 498 OFFCURVE",
"124 470 OFFCURVE",
"76 403 CURVE",
"84 397 LINE",
"129 461 OFFCURVE",
"180 488 OFFCURVE",
"254 488 CURVE SMOOTH",
"367 488 OFFCURVE",
"423 426 OFFCURVE",
"423 303 CURVE SMOOTH",
"423 145 LINE",
"423 0 LINE"
);
},
{
closed = 1;
nodes = (
"337 -5 OFFCURVE",
"431 89 OFFCURVE",
"431 215 CURVE",
"423 218 LINE",
"423 96 OFFCURVE",
"332 5 OFFCURVE",
"212 5 CURVE SMOOTH",
"124 5 OFFCURVE",
"67 56 OFFCURVE",
"67 135 CURVE SMOOTH",
"67 178 OFFCURVE",
"86 212 OFFCURVE",
"121 233 CURVE SMOOTH",
"155 253 OFFCURVE",
"208 264 OFFCURVE",
"274 264 CURVE SMOOTH",
"427 264 LINE",
"427 274 LINE",
"274 274 LINE SMOOTH",
"206 274 OFFCURVE",
"152 263 OFFCURVE",
"116 242 CURVE SMOOTH",
"77 219 OFFCURVE",
"57 182 OFFCURVE",
"57 134 CURVE SMOOTH",
"57 49 OFFCURVE",
"116 -5 OFFCURVE",
"211 -5 CURVE SMOOTH"
);
}
);
width = 524;
},
{
anchors = (
{
name = bottom;
position = "{258, 0}";
},
{
name = ogonek;
position = "{472, 0}";
},
{
name = top;
position = "{258, 493}";
}
);
layerId = "5EAB4D72-96CB-4765-AAD5-A13175319428";
paths = (
{
closed = 1;
nodes = (
"472 0 LINE",
"472 311 LINE SMOOTH",
"472 430 OFFCURVE",
"391 503 OFFCURVE",
"261 503 CURVE SMOOTH",
"171 503 OFFCURVE",
"98 468 OFFCURVE",
"39 397 CURVE",
"126 324 LINE",
"162 372 OFFCURVE",
"209 398 OFFCURVE",
"259 398 CURVE SMOOTH",
"316 398 OFFCURVE",
"352 365 OFFCURVE",
"352 311 CURVE SMOOTH",
"352 67 LINE",
"362 0 LINE"
);
},
{
closed = 1;
nodes = (
"278 -10 OFFCURVE",
"341 28 OFFCURVE",
"365 88 CURVE",
"352 207 LINE",
"352 143 OFFCURVE",
"293 92 OFFCURVE",
"221 92 CURVE SMOOTH",
"173 92 OFFCURVE",
"144 114 OFFCURVE",
"144 149 CURVE SMOOTH",
"144 167 OFFCURVE",
"151 181 OFFCURVE",
"164 190 CURVE SMOOTH",
"180 202 OFFCURVE",
"204 207 OFFCURVE",
"245 207 CURVE SMOOTH",
"362 207 LINE",
"362 297 LINE",
"229 297 LINE SMOOTH",
"173 297 OFFCURVE",
"131 290 OFFCURVE",
"98 275 CURVE SMOOTH",
"50 253 OFFCURVE",
"24 209 OFFCURVE",
"24 151 CURVE SMOOTH",
"24 57 OFFCURVE",
"98 -10 OFFCURVE",
"202 -10 CURVE SMOOTH"
);
}
);
width = 528;
},
{
anchors = (
{
name = bottom;
position = "{264, 0}";
},
{
name = ogonek;
position = "{458, 0}";
},
{
name = top;
position = "{264, 493}";
}
);
background = {
paths = (
{
closed = 1;
nodes = (
"355 -8 OFFCURVE",
"412 14 OFFCURVE",
"470 75 CURVE",
"422 117 LINE",
"377 69 OFFCURVE",
"334 55 OFFCURVE",
"280 55 CURVE SMOOTH",
"183 55 OFFCURVE",
"123 120 OFFCURVE",
"121 228 CURVE",
"482 228 LINE",
"484 240 OFFCURVE",
"485 257 OFFCURVE",
"485 271 CURVE SMOOTH",
"485 383 OFFCURVE",
"422 501 OFFCURVE",
"271 501 CURVE SMOOTH",
"128 501 OFFCURVE",
"52 383 OFFCURVE",
"52 244 CURVE SMOOTH",
"52 104 OFFCURVE",
"129 -8 OFFCURVE",
"279 -8 CURVE SMOOTH"
);
},
{
closed = 1;
nodes = (
"422 284 LINE",
"117 284 LINE",
"121 274 LINE",
"122 366 OFFCURVE",
"178 443 OFFCURVE",
"271 443 CURVE SMOOTH",
"362 443 OFFCURVE",
"413 382 OFFCURVE",
"418 302 CURVE SMOOTH",
"419 277 OFFCURVE",
"419 289 OFFCURVE",
"418 273 CURVE"
);
}
);
};
layerId = "AC39E679-6500-437B-9A87-662B1E841B74";
paths = (
{
closed = 1;
nodes = (
"458 0 LINE",
"458 307 LINE SMOOTH",
"458 430 OFFCURVE",
"386 501 OFFCURVE",
"262 501 CURVE SMOOTH",
"178 501 OFFCURVE",
"114 469 OFFCURVE",
"61 400 CURVE",
"111 358 LINE",
"151 413 OFFCURVE",
"199 440 OFFCURVE",
"261 440 CURVE SMOOTH",
"344 440 OFFCURVE",
"389 393 OFFCURVE",
"389 307 CURVE SMOOTH",
"389 103 LINE",
"395 0 LINE"
);
},
{
closed = 1;
nodes = (
"333 -8 OFFCURVE",
"412 61 OFFCURVE",
"432 183 CURVE",
"389 221 LINE",
"389 116 OFFCURVE",
"329 49 OFFCURVE",
"234 49 CURVE SMOOTH",
"160 49 OFFCURVE",
"113 84 OFFCURVE",
"113 139 CURVE SMOOTH",
"113 167 OFFCURVE",
"122 189 OFFCURVE",
"140 203 CURVE SMOOTH",
"164 222 OFFCURVE",
"203 228 OFFCURVE",
"294 228 CURVE SMOOTH",
"396 228 LINE",
"396 284 LINE",
"288 284 LINE SMOOTH",
"191 284 OFFCURVE",
"138 275 OFFCURVE",
"100 253 CURVE SMOOTH",
"64 231 OFFCURVE",
"44 193 OFFCURVE",
"44 143 CURVE SMOOTH",
"44 48 OFFCURVE",
"107 -8 OFFCURVE",
"214 -8 CURVE SMOOTH"
);
}
);
width = 535;
},
{
anchors = (
{
name = bottom;
position = "{255, 0}";
},
{
name = ogonek;
position = "{481, 0}";
},
{
name = top;
position = "{255, 493}";
}
);
layerId = "957254E3-B7AD-4837-9092-D4428001DE8E";
paths = (
{
closed = 1;
nodes = (
"481 0 LINE",
"481 313 LINE SMOOTH",
"481 430 OFFCURVE",
"397 504 OFFCURVE",
"257 504 CURVE SMOOTH",
"171 504 OFFCURVE",
"80 476 OFFCURVE",
"18 411 CURVE",
"127 320 LINE",
"171 362 OFFCURVE",
"209 373 OFFCURVE",
"246 373 CURVE SMOOTH",
"301 373 OFFCURVE",
"331 348 OFFCURVE",
"331 313 CURVE SMOOTH",
"331 58 LINE",
"343 0 LINE"
);
},
{
closed = 1;
nodes = (
"250 -11 OFFCURVE",
"323 1 OFFCURVE",
"361 102 CURVE",
"331 199 LINE",
"331 147 OFFCURVE",
"284 110 OFFCURVE",
"228 110 CURVE SMOOTH",
"185 110 OFFCURVE",
"164 131 OFFCURVE",
"164 156 CURVE SMOOTH",
"164 168 OFFCURVE",
"169 178 OFFCURVE",
"179 185 CURVE SMOOTH",
"188 191 OFFCURVE",
"201 194 OFFCURVE",
"217 194 CURVE SMOOTH",
"343 194 LINE",
"343 305 LINE",
"195 305 LINE SMOOTH",
"151 305 OFFCURVE",
"112 297 OFFCURVE",
"81 280 CURVE SMOOTH",
"39 257 OFFCURVE",
"13 216 OFFCURVE",
"13 159 CURVE SMOOTH",
"13 58 OFFCURVE",
"93 -11 OFFCURVE",
"204 -11 CURVE SMOOTH"
);
}
);
width = 523;
}
);
leftKerningGroup = a;
note = a;
rightKerningGroup = a;
unicode = 0061;
},
{
color = 1;
glyphname = ae;
lastChange = "2019-09-11 19:22:09 +0000";
layers = (
{
anchors = (
{
name = bottom;
position = "{442, 0}";
},
{
name = top;
position = "{442, 493}";
}
);
layerId = "F91D9E91-C1BC-4259-B0D8-112C0CBA2B8E";
paths = (
{
closed = 1;
nodes = (
"306 -5 OFFCURVE",
"392 36 OFFCURVE",
"424 192 CURVE",
"426 192 LINE",
"443 71 OFFCURVE",
"521 -5 OFFCURVE",
"633 -5 CURVE SMOOTH",
"709 -5 OFFCURVE",
"755 14 OFFCURVE",
"812 70 CURVE",
"804 78 LINE",
"750 23 OFFCURVE",
"707 5 OFFCURVE",
"633 5 CURVE SMOOTH",
"512 5 OFFCURVE",
"433 95 OFFCURVE",
"433 251 CURVE",
"821 251 LINE",
"823 259 OFFCURVE",
"824 278 OFFCURVE",
"824 291 CURVE SMOOTH",
"824 376 OFFCURVE",
"775 498 OFFCURVE",
"625 498 CURVE SMOOTH",
"529 498 OFFCURVE",
"458 431 OFFCURVE",
"432 327 CURVE",
"425 438 OFFCURVE",
"364 498 OFFCURVE",
"254 498 CURVE SMOOTH",
"176 498 OFFCURVE",
"124 471 OFFCURVE",
"76 403 CURVE",
"84 397 LINE",
"130 462 OFFCURVE",
"179 488 OFFCURVE",
"254 488 CURVE SMOOTH",
"366 488 OFFCURVE",
"423 425 OFFCURVE",
"423 303 CURVE SMOOTH",
"423 274 LINE",
"274 274 LINE SMOOTH",
"129 274 OFFCURVE",
"57 227 OFFCURVE",
"57 134 CURVE SMOOTH",
"57 48 OFFCURVE",
"119 -5 OFFCURVE",
"218 -5 CURVE SMOOTH"
);
},
{
closed = 1;
nodes = (
"124 5 OFFCURVE",
"67 55 OFFCURVE",
"67 134 CURVE SMOOTH",
"67 221 OFFCURVE",
"134 264 OFFCURVE",
"274 264 CURVE SMOOTH",
"423 264 LINE",
"423 243 LINE",
"403 62 OFFCURVE",
"312 5 OFFCURVE",
"218 5 CURVE SMOOTH"
);
},
{
closed = 1;
nodes = (
"439 396 OFFCURVE",
"516 488 OFFCURVE",
"625 488 CURVE SMOOTH",
"769 488 OFFCURVE",
"814 374 OFFCURVE",
"814 291 CURVE SMOOTH",
"814 282 OFFCURVE",
"813 270 OFFCURVE",
"812 261 CURVE",
"433 261 LINE"
);
}
);
width = 884;
},
{
anchors = (
{
name = bottom;
position = "{412, 0}";
},
{
name = top;
position = "{412, 493}";
}
);
layerId = "5EAB4D72-96CB-4765-AAD5-A13175319428";
paths = (
{
closed = 1;
nodes = (
"277 -10 OFFCURVE",
"333 12 OFFCURVE",
"384 73 CURVE",
"397 73 LINE",
"431 24 OFFCURVE",
"488 -6 OFFCURVE",
"577 -6 CURVE SMOOTH",
"654 -6 OFFCURVE",
"719 17 OFFCURVE",
"778 79 CURVE",
"694 152 LINE",
"663 118 OFFCURVE",
"626 101 OFFCURVE",
"577 101 CURVE SMOOTH",
"500 101 OFFCURVE",
"472 142 OFFCURVE",
"465 207 CURVE",
"791 207 LINE",
"793 226 OFFCURVE",
"794 245 OFFCURVE",
"794 262 CURVE SMOOTH",
"794 397 OFFCURVE",
"732 498 OFFCURVE",
"581 498 CURVE SMOOTH",
"510 498 OFFCURVE",
"467 475 OFFCURVE",
"430 436 CURVE",
"400 479 OFFCURVE",
"342 503 OFFCURVE",
"268 503 CURVE SMOOTH",
"173 503 OFFCURVE",
"95 464 OFFCURVE",
"41 397 CURVE",
"128 324 LINE",
"163 371 OFFCURVE",
"210 398 OFFCURVE",
"261 398 CURVE SMOOTH",
"317 398 OFFCURVE",
"354 366 OFFCURVE",
"354 311 CURVE SMOOTH",
"354 294 LINE",
"250 294 LINE SMOOTH",
"184 294 OFFCURVE",
"23 294 OFFCURVE",
"23 149 CURVE SMOOTH",
"23 58 OFFCURVE",
"87 -10 OFFCURVE",
"208 -10 CURVE SMOOTH"
);
},
{
closed = 1;
nodes = (
"173 92 OFFCURVE",
"146 115 OFFCURVE",
"146 147 CURVE SMOOTH",
"146 179 OFFCURVE",
"172 207 OFFCURVE",
"257 207 CURVE SMOOTH",
"354 207 LINE",
"354 203 LINE",
"346 145 OFFCURVE",
"301 92 OFFCURVE",
"223 92 CURVE SMOOTH"
);
},
{
closed = 1;
nodes = (
"464 343 OFFCURVE",
"497 398 OFFCURVE",
"574 398 CURVE SMOOTH",
"616 398 OFFCURVE",
"652 382 OFFCURVE",
"669 352 CURVE SMOOTH",
"678 336 OFFCURVE",
"683 317 OFFCURVE",
"683 294 CURVE",
"464 294 LINE"
);
}
);
width = 824;
},
{
anchors = (
{
name = bottom;
position = "{430, 0}";
},
{
name = top;
position = "{430, 493}";
}
);
layerId = "AC39E679-6500-437B-9A87-662B1E841B74";
paths = (
{
closed = 1;
nodes = (
"293 -8 OFFCURVE",
"365 23 OFFCURVE",
"407 129 CURVE",
"415 129 LINE",
"441 46 OFFCURVE",
"508 -6 OFFCURVE",
"607 -6 CURVE SMOOTH",
"685 -6 OFFCURVE",
"740 16 OFFCURVE",
"798 75 CURVE",
"749 117 LINE",
"708 74 OFFCURVE",
"669 56 OFFCURVE",
"607 56 CURVE SMOOTH",
"510 56 OFFCURVE",
"458 120 OFFCURVE",
"454 228 CURVE",
"809 228 LINE",
"811 241 OFFCURVE",
"812 259 OFFCURVE",
"812 276 CURVE SMOOTH",
"812 387 OFFCURVE",
"756 498 OFFCURVE",
"606 498 CURVE SMOOTH",
"520 498 OFFCURVE",
"465 451 OFFCURVE",
"435 385 CURVE",
"416 460 OFFCURVE",
"355 501 OFFCURVE",
"266 501 CURVE SMOOTH",
"178 501 OFFCURVE",
"113 467 OFFCURVE",
"61 400 CURVE",
"112 358 LINE",
"150 411 OFFCURVE",
"197 440 OFFCURVE",
"262 440 CURVE SMOOTH",
"344 440 OFFCURVE",
"390 393 OFFCURVE",
"390 307 CURVE SMOOTH",
"390 285 LINE",
"265 285 LINE SMOOTH",
"164 285 OFFCURVE",
"43 263 OFFCURVE",
"43 142 CURVE SMOOTH",
"43 54 OFFCURVE",
"106 -8 OFFCURVE",
"217 -8 CURVE SMOOTH"
);
},
{
closed = 1;
nodes = (
"155 51 OFFCURVE",
"113 87 OFFCURVE",
"113 141 CURVE SMOOTH",
"113 198 OFFCURVE",
"158 234 OFFCURVE",
"269 234 CURVE SMOOTH",
"390 234 LINE",
"390 222 LINE",
"377 106 OFFCURVE",
"309 51 OFFCURVE",
"225 51 CURVE SMOOTH"
);
},
{
closed = 1;
nodes = (
"456 368 OFFCURVE",
"511 440 OFFCURVE",
"602 440 CURVE SMOOTH",
"692 440 OFFCURVE",
"731 377 OFFCURVE",
"742 324 CURVE SMOOTH",
"744 312 OFFCURVE",
"748 295 OFFCURVE",
"747 279 CURVE",
"454 279 LINE"
);
}
);
width = 861;
},
{
anchors = (
{
name = bottom;
position = "{401, 0}";
},
{
name = top;
position = "{401, 493}";
}
);
layerId = "957254E3-B7AD-4837-9092-D4428001DE8E";
paths = (
{
closed = 1;
nodes = (
"265 -11 OFFCURVE",
"314 5 OFFCURVE",
"370 59 CURVE",
"386 59 LINE",
"425 11 OFFCURVE",
"477 -11 OFFCURVE",
"552 -11 CURVE SMOOTH",
"635 -11 OFFCURVE",
"700 3 OFFCURVE",
"766 81 CURVE",
"661 173 LINE",
"636 144 OFFCURVE",
"601 128 OFFCURVE",
"555 128 CURVE SMOOTH",
"496 128 OFFCURVE",
"480 155 OFFCURVE",
"472 194 CURVE",
"780 194 LINE",
"782 215 OFFCURVE",
"783 235 OFFCURVE",
"783 254 CURVE SMOOTH",
"783 403 OFFCURVE",
"720 498 OFFCURVE",
"559 498 CURVE SMOOTH",
"509 498 OFFCURVE",
"468 489 OFFCURVE",
"427 467 CURVE",
"391 490 OFFCURVE",
"336 504 OFFCURVE",
"266 504 CURVE SMOOTH",
"171 504 OFFCURVE",
"93 478 OFFCURVE",
"23 411 CURVE",
"132 320 LINE",
"170 363 OFFCURVE",
"218 373 OFFCURVE",
"250 373 CURVE SMOOTH",
"300 373 OFFCURVE",
"332 350 OFFCURVE",
"332 313 CURVE SMOOTH",
"332 299 LINE",
"241 299 LINE SMOOTH",
"202 299 OFFCURVE",
"11 314 OFFCURVE",
"11 154 CURVE SMOOTH",
"11 60 OFFCURVE",
"77 -11 OFFCURVE",
"203 -11 CURVE SMOOTH"
);
},
{
closed = 1;
nodes = (
"184 117 OFFCURVE",
"166 132 OFFCURVE",
"166 151 CURVE SMOOTH",
"166 167 OFFCURVE",
"180 191 OFFCURVE",
"250 191 CURVE SMOOTH",
"341 191 LINE",
"332 195 LINE",
"332 160 OFFCURVE",
"295 117 OFFCURVE",
"222 117 CURVE SMOOTH"
);
},
{
closed = 1;
nodes = (
"470 331 OFFCURVE",
"489 373 OFFCURVE",
"559 373 CURVE SMOOTH",
"590 373 OFFCURVE",
"613 365 OFFCURVE",
"627 351 CURVE SMOOTH",
"640 339 OFFCURVE",
"645 321 OFFCURVE",
"645 303 CURVE",
"470 303 LINE"
);
}
);
width = 801;
}
);
leftKerningGroup = a;
note = ae;
rightKerningGroup = e;
unicode = 00E6;
},
{
color = 1;
glyphname = b;
lastChange = "2019-09-11 19:22:09 +0000";
layers = (
{
anchors = (
{
name = bottom;
position = "{299, 0}";
},
{
name = top;
position = "{108, 697}";
}
);
layerId = "F91D9E91-C1BC-4259-B0D8-112C0CBA2B8E";
paths = (
{
closed = 1;
nodes = (
"455 -5 OFFCURVE",
"532 104 OFFCURVE",
"532 247 CURVE SMOOTH",
"532 390 OFFCURVE",
"455 498 OFFCURVE",
"326 498 CURVE SMOOTH",
"221 498 OFFCURVE",
"138 426 OFFCURVE",
"112 322 CURVE",
"113 321 LINE",
"113 697 LINE",
"103 697 LINE",
"103 0 LINE",
"113 0 LINE",
"113 173 LINE",
"112 172 LINE",
"138 67 OFFCURVE",
"221 -5 OFFCURVE",
"326 -5 CURVE SMOOTH"
);
},
{
closed = 1;
nodes = (
"204 5 OFFCURVE",
"113 109 OFFCURVE",
"113 247 CURVE SMOOTH",
"113 385 OFFCURVE",
"204 488 OFFCURVE",
"326 488 CURVE SMOOTH",
"450 488 OFFCURVE",
"522 384 OFFCURVE",
"522 247 CURVE SMOOTH",
"522 110 OFFCURVE",
"450 5 OFFCURVE",
"326 5 CURVE SMOOTH"
);
}
);
width = 598;
},
{
anchors = (
{
name = bottom;
position = "{285, 0}";
},
{
name = top;
position = "{131, 697}";
}
);
layerId = "5EAB4D72-96CB-4765-AAD5-A13175319428";
paths = (
{
closed = 1;
nodes = (
"467 -10 OFFCURVE",
"541 99 OFFCURVE",
"541 247 CURVE SMOOTH",
"541 408 OFFCURVE",
"454 503 OFFCURVE",
"333 503 CURVE SMOOTH",
"264 503 OFFCURVE",
"197 468 OFFCURVE",
"174 416 CURVE",
"191 389 LINE",
"191 697 LINE",
"71 697 LINE",
"71 0 LINE",
"191 0 LINE",
"191 103 LINE",
"171 81 LINE",
"200 16 OFFCURVE",
"268 -10 OFFCURVE",
"333 -10 CURVE SMOOTH"
);
},
{
closed = 1;
nodes = (
"217 101 OFFCURVE",
"180 164 OFFCURVE",
"180 246 CURVE SMOOTH",
"180 328 OFFCURVE",
"217 394 OFFCURVE",
"303 394 CURVE SMOOTH",
"383 394 OFFCURVE",
"421 338 OFFCURVE",
"421 246 CURVE SMOOTH",
"421 155 OFFCURVE",
"384 101 OFFCURVE",
"304 101 CURVE SMOOTH"
);
}
);
width = 573;
},
{
anchors = (
{
name = bottom;
position = "{297, 0}";
},
{
name = top;
position = "{125, 697}";
}
);
layerId = "AC39E679-6500-437B-9A87-662B1E841B74";
paths = (
{
closed = 1;
nodes = (
"467 -8 OFFCURVE",
"542 100 OFFCURVE",
"542 247 CURVE SMOOTH",
"542 401 OFFCURVE",
"460 502 OFFCURVE",
"323 502 CURVE SMOOTH",
"252 502 OFFCURVE",
"195 474 OFFCURVE",
"158 424 CURVE",
"160 422 LINE",
"160 697 LINE",
"91 697 LINE",
"91 0 LINE",
"160 0 LINE",
"160 71 LINE",
"158 69 LINE",
"194 21 OFFCURVE",
"250 -8 OFFCURVE",
"323 -8 CURVE SMOOTH"
);
},
{
closed = 1;
nodes = (
"209 53 OFFCURVE",
"154 135 OFFCURVE",
"154 247 CURVE SMOOTH",
"154 364 OFFCURVE",
"214 441 OFFCURVE",
"313 441 CURVE SMOOTH",
"413 441 OFFCURVE",
"473 364 OFFCURVE",
"473 247 CURVE SMOOTH",
"473 135 OFFCURVE",
"418 53 OFFCURVE",
"313 53 CURVE SMOOTH"
);
}
);
width = 594;
},
{
anchors = (
{
name = bottom;
position = "{276, 0}";
},
{
name = top;
position = "{133, 697}";
}
);
layerId = "957254E3-B7AD-4837-9092-D4428001DE8E";
paths = (
{
closed = 1;
nodes = (
"465 -11 OFFCURVE",
"538 99 OFFCURVE",
"538 247 CURVE SMOOTH",
"538 412 OFFCURVE",
"448 504 OFFCURVE",
"340 504 CURVE SMOOTH",
"268 504 OFFCURVE",
"196 464 OFFCURVE",
"182 411 CURVE",
"208 369 LINE",
"208 697 LINE",
"57 697 LINE",
"57 0 LINE",
"208 0 LINE",
"208 122 LINE",
"177 88 LINE",
"202 13 OFFCURVE",
"277 -11 OFFCURVE",
"337 -11 CURVE SMOOTH"
);
},
{
closed = 1;
nodes = (
"220 130 OFFCURVE",
"194 182 OFFCURVE",
"194 245 CURVE SMOOTH",
"194 306 OFFCURVE",
"217 366 OFFCURVE",
"295 366 CURVE SMOOTH",
"363 366 OFFCURVE",
"388 322 OFFCURVE",
"388 245 CURVE SMOOTH",
"388 167 OFFCURVE",
"361 130 OFFCURVE",
"297 130 CURVE SMOOTH"
);
}
);
width = 557;
}
);
leftKerningGroup = b;
note = b;
rightKerningGroup = b;
unicode = 0062;
},
{
color = 1;
glyphname = c;
lastChange = "2019-09-11 19:22:09 +0000";
layers = (
{
anchors = (
{
name = bottom;
position = "{252, 0}";
},
{
name = top;
position = "{252, 493}";
}
);
layerId = "F91D9E91-C1BC-4259-B0D8-112C0CBA2B8E";
paths = (
{
closed = 1;
nodes = (
"355 -5 OFFCURVE",
"420 40 OFFCURVE",
"449 120 CURVE",
"438 124 LINE",
"412 48 OFFCURVE",
"351 5 OFFCURVE",
"271 5 CURVE SMOOTH",
"141 5 OFFCURVE",
"76 117 OFFCURVE",
"76 245 CURVE SMOOTH",
"76 373 OFFCURVE",
"140 488 OFFCURVE",
"270 488 CURVE SMOOTH",
"346 488 OFFCURVE",
"410 444 OFFCURVE",
"443 369 CURVE",
"454 373 LINE",
"418 452 OFFCURVE",
"352 498 OFFCURVE",
"270 498 CURVE SMOOTH",
"134 498 OFFCURVE",
"66 375 OFFCURVE",
"66 245 CURVE SMOOTH",
"66 97 OFFCURVE",
"149 -5 OFFCURVE",
"271 -5 CURVE SMOOTH"
);
}
);
width = 504;
},
{
anchors = (
{
name = bottom;
position = "{247, 0}";
},
{
name = top;
position = "{247, 493}";
}
);
layerId = "5EAB4D72-96CB-4765-AAD5-A13175319428";
paths = (
{
closed = 1;
nodes = (
"364 -10 OFFCURVE",
"440 44 OFFCURVE",
"473 136 CURVE",
"364 178 LINE",
"351 127 OFFCURVE",
"313 95 OFFCURVE",
"265 95 CURVE SMOOTH",
"181 95 OFFCURVE",
"150 167 OFFCURVE",
"150 245 CURVE SMOOTH",
"150 323 OFFCURVE",
"182 398 OFFCURVE",
"265 398 CURVE SMOOTH",
"314 398 OFFCURVE",
"351 365 OFFCURVE",
"364 313 CURVE",
"478 358 LINE",
"440 456 OFFCURVE",
"363 503 OFFCURVE",
"265 503 CURVE SMOOTH",
"104 503 OFFCURVE",
"27 375 OFFCURVE",
"27 245 CURVE SMOOTH",
"27 115 OFFCURVE",
"105 -10 OFFCURVE",
"266 -10 CURVE SMOOTH"
);
}
);
width = 494;
},
{
anchors = (
{
name = bottom;
position = "{254, 0}";
},
{
name = top;
position = "{254, 493}";
}
);
layerId = "AC39E679-6500-437B-9A87-662B1E841B74";
paths = (
{
closed = 1;
nodes = (
"362 -8 OFFCURVE",
"434 39 OFFCURVE",
"467 129 CURVE",
"403 153 LINE",
"384 90 OFFCURVE",
"335 53 OFFCURVE",
"273 53 CURVE SMOOTH",
"167 53 OFFCURVE",
"120 144 OFFCURVE",
"120 245 CURVE SMOOTH",
"120 346 OFFCURVE",
"167 440 OFFCURVE",
"272 440 CURVE SMOOTH",
"334 440 OFFCURVE",
"383 402 OFFCURVE",
"406 339 CURVE",
"472 365 LINE",
"433 457 OFFCURVE",
"360 501 OFFCURVE",
"272 501 CURVE SMOOTH",
"123 501 OFFCURVE",
"50 375 OFFCURVE",
"50 245 CURVE SMOOTH",
"50 108 OFFCURVE",
"130 -8 OFFCURVE",
"273 -8 CURVE SMOOTH"
);
}
);
width = 508;
},
{
anchors = (
{
name = bottom;
position = "{242, 0}";
},
{
name = top;
position = "{242, 493}";
}
);
layerId = "957254E3-B7AD-4837-9092-D4428001DE8E";
paths = (
{
closed = 1;
nodes = (
"364 -11 OFFCURVE",
"442 47 OFFCURVE",
"475 140 CURVE",
"339 193 LINE",
"330 149 OFFCURVE",
"298 120 OFFCURVE",
"259 120 CURVE SMOOTH",
"188 120 OFFCURVE",
"167 182 OFFCURVE",
"167 245 CURVE SMOOTH",
"167 309 OFFCURVE",
"190 373 OFFCURVE",
"260 373 CURVE SMOOTH",
"300 373 OFFCURVE",
"331 343 OFFCURVE",
"338 297 CURVE",
"480 354 LINE",
"443 455 OFFCURVE",
"364 504 OFFCURVE",
"260 504 CURVE SMOOTH",
"92 504 OFFCURVE",
"12 375 OFFCURVE",
"12 245 CURVE SMOOTH",
"12 119 OFFCURVE",
"89 -11 OFFCURVE",
"261 -11 CURVE SMOOTH"
);
}
);
width = 482;
}
);
leftKerningGroup = c;
note = c;
rightKerningGroup = c;
unicode = 0063;
},
{
color = 1;
glyphname = d;
lastChange = "2019-09-11 19:21:56 +0000";
layers = (
{
anchors = (
{
name = bottom;
position = "{307, 0}";
},
{
name = center;
position = "{459, 608}";
},
{
name = top;
position = "{506, 697}";
},
{
name = topright;
position = "{617, 493}";
}
);
layerId = "F91D9E91-C1BC-4259-B0D8-112C0CBA2B8E";
paths = (
{
closed = 1;
nodes = (
"393 -5 OFFCURVE",
"476 67 OFFCURVE",
"502 172 CURVE",
"501 173 LINE",
"501 0 LINE",
"511 0 LINE",
"511 697 LINE",
"501 697 LINE",
"501 321 LINE",
"502 322 LINE",
"476 426 OFFCURVE",
"393 498 OFFCURVE",
"288 498 CURVE SMOOTH",
"160 498 OFFCURVE",
"62 390 OFFCURVE",
"62 247 CURVE SMOOTH",
"62 104 OFFCURVE",
"160 -5 OFFCURVE",
"288 -5 CURVE SMOOTH"
);
},
{
closed = 1;
nodes = (
"165 5 OFFCURVE",
"72 110 OFFCURVE",
"72 247 CURVE SMOOTH",
"72 384 OFFCURVE",
"165 488 OFFCURVE",
"288 488 CURVE SMOOTH",
"410 488 OFFCURVE",
"501 385 OFFCURVE",
"501 247 CURVE SMOOTH",
"501 109 OFFCURVE",
"410 5 OFFCURVE",
"288 5 CURVE SMOOTH"
);
}
);
width = 614;
},
{
anchors = (
{
name = bottom;
position = "{290, 0}";
},
{
name = center;
position = "{399, 608}";
},
{
name = top;
position = "{442, 697}";
},
{
name = topright;
position = "{616, 493}";
}
);
layerId = "5EAB4D72-96CB-4765-AAD5-A13175319428";
paths = (
{
closed = 1;
nodes = (
"305 -10 OFFCURVE",
"373 16 OFFCURVE",
"402 81 CURVE",
"382 103 LINE",
"382 0 LINE",
"502 0 LINE",
"502 697 LINE",
"382 697 LINE",
"382 389 LINE",
"399 416 LINE",
"376 468 OFFCURVE",
"309 503 OFFCURVE",
"240 503 CURVE SMOOTH",
"119 503 OFFCURVE",
"32 408 OFFCURVE",
"32 247 CURVE SMOOTH",
"32 99 OFFCURVE",
"106 -10 OFFCURVE",
"240 -10 CURVE SMOOTH"
);
},
{
closed = 1;
nodes = (
"189 101 OFFCURVE",
"152 155 OFFCURVE",
"152 246 CURVE SMOOTH",
"152 338 OFFCURVE",
"190 394 OFFCURVE",
"270 394 CURVE SMOOTH",
"356 394 OFFCURVE",
"393 328 OFFCURVE",
"393 246 CURVE SMOOTH",
"393 164 OFFCURVE",
"356 101 OFFCURVE",
"269 101 CURVE SMOOTH"
);
}
);
width = 573;
},
{
anchors = (
{
name = bottom;
position = "{292, 0}";
},
{
name = center;
position = "{427, 608}";
},
{
name = top;
position = "{469, 697}";
},
{
name = topright;
position = "{613, 493}";
}
);
layerId = "AC39E679-6500-437B-9A87-662B1E841B74";
paths = (
{
closed = 1;
nodes = (
"344 -8 OFFCURVE",
"400 21 OFFCURVE",
"436 69 CURVE",
"434 71 LINE",
"434 0 LINE",
"503 0 LINE",
"503 697 LINE",
"434 697 LINE",
"434 422 LINE",
"436 424 LINE",
"399 474 OFFCURVE",
"342 502 OFFCURVE",
"271 502 CURVE SMOOTH",
"134 502 OFFCURVE",
"52 401 OFFCURVE",
"52 247 CURVE SMOOTH",
"52 100 OFFCURVE",
"127 -8 OFFCURVE",
"271 -8 CURVE SMOOTH"
);
},
{
closed = 1;
nodes = (
"176 53 OFFCURVE",
"121 135 OFFCURVE",
"121 247 CURVE SMOOTH",
"121 364 OFFCURVE",
"181 441 OFFCURVE",
"281 441 CURVE SMOOTH",
"380 441 OFFCURVE",
"440 364 OFFCURVE",
"440 247 CURVE SMOOTH",
"440 135 OFFCURVE",
"385 53 OFFCURVE",
"281 53 CURVE SMOOTH"
);
}
);
width = 594;
},
{
anchors = (
{
name = bottom;
position = "{278, 0}";
},
{
name = center;
position = "{409, 589}";
},
{
name = top;
position = "{424, 697}";
},
{
name = topright;
position = "{616, 493}";
}
);
layerId = "957254E3-B7AD-4837-9092-D4428001DE8E";
paths = (
{
closed = 1;
nodes = (
"279 -11 OFFCURVE",
"355 13 OFFCURVE",
"380 88 CURVE",
"349 122 LINE",
"349 0 LINE",
"499 0 LINE",
"499 697 LINE",
"349 697 LINE",
"349 369 LINE",
"375 411 LINE",
"360 464 OFFCURVE",
"288 504 OFFCURVE",
"219 504 CURVE SMOOTH",
"108 504 OFFCURVE",
"18 412 OFFCURVE",
"18 247 CURVE SMOOTH",
"18 99 OFFCURVE",
"91 -11 OFFCURVE",
"219 -11 CURVE SMOOTH"
);
},
{
closed = 1;
nodes = (
"205 130 OFFCURVE",
"169 167 OFFCURVE",
"169 245 CURVE SMOOTH",
"169 321 OFFCURVE",
"203 366 OFFCURVE",
"261 366 CURVE SMOOTH",
"340 366 OFFCURVE",
"363 305 OFFCURVE",
"363 245 CURVE SMOOTH",
"363 182 OFFCURVE",
"337 130 OFFCURVE",
"260 130 CURVE SMOOTH"
);
}
);
width = 556;
}
);
leftKerningGroup = c;
note = d;
rightKerningGroup = d;
unicode = 0064;
},
{
color = 1;
glyphname = eth;
lastChange = "2019-09-11 19:22:10 +0000";
layers = (
{
layerId = "F91D9E91-C1BC-4259-B0D8-112C0CBA2B8E";
paths = (
{
closed = 1;
nodes = (
"464 -5 OFFCURVE",
"544 180 OFFCURVE",
"544 360 CURVE SMOOTH",
"544 588 OFFCURVE",
"469 702 OFFCURVE",
"151 707 CURVE",
"151 697 LINE",
"447 692 OFFCURVE",
"558 594 OFFCURVE",
"530 290 CURVE",
"526 391 OFFCURVE",
"475 510 OFFCURVE",
"342 510 CURVE SMOOTH",
"177 510 OFFCURVE",
"64 388 OFFCURVE",
"64 210 CURVE SMOOTH",
"64 82 OFFCURVE",
"145 -5 OFFCURVE",
"265 -5 CURVE SMOOTH"
);
},
{
closed = 1;
nodes = (
"151 5 OFFCURVE",
"74 87 OFFCURVE",
"74 210 CURVE SMOOTH",
"74 383 OFFCURVE",
"182 500 OFFCURVE",
"342 500 CURVE SMOOTH",
"493 500 OFFCURVE",
"539 335 OFFCURVE",
"518 231 CURVE SMOOTH",
"492 105 OFFCURVE",
"409 5 OFFCURVE",
"265 5 CURVE SMOOTH"
);
},
{
closed = 1;
nodes = (
"598 672 LINE",
"595 680 LINE",
"296 571 LINE",
"299 563 LINE"
);
}
);
width = 617;
},
{
layerId = "5EAB4D72-96CB-4765-AAD5-A13175319428";
paths = (
{
closed = 1;
nodes = (
"438 -6 OFFCURVE",
"546 153 OFFCURVE",
"546 377 CURVE SMOOTH",
"546 573 OFFCURVE",
"474 715 OFFCURVE",
"209 735 CURVE",
"200 655 LINE",
"358 649 OFFCURVE",
"425 565 OFFCURVE",
"425 453 CURVE",
"382 482 OFFCURVE",
"335 496 OFFCURVE",
"287 496 CURVE SMOOTH",
"153 496 OFFCURVE",
"24 385 OFFCURVE",
"24 222 CURVE SMOOTH",
"24 90 OFFCURVE",
"108 -6 OFFCURVE",
"253 -6 CURVE SMOOTH"
);
},
{
closed = 1;
nodes = (
"195 97 OFFCURVE",
"136 137 OFFCURVE",
"136 223 CURVE SMOOTH",
"136 305 OFFCURVE",
"190 398 OFFCURVE",
"302 398 CURVE SMOOTH",
"388 398 OFFCURVE",
"428 338 OFFCURVE",
"428 272 CURVE SMOOTH",
"428 190 OFFCURVE",
"367 97 OFFCURVE",
"260 97 CURVE SMOOTH"
);
},
{
closed = 1;
nodes = (
"519 616 LINE",
"505 668 LINE",
"197 586 LINE",
"211 534 LINE"
);
}
);
width = 581;
},
{
layerId = "AC39E679-6500-437B-9A87-662B1E841B74";
paths = (
{
closed = 1;
nodes = (
"455 -6 OFFCURVE",
"550 165 OFFCURVE",
"550 339 CURVE SMOOTH",
"550 539 OFFCURVE",
"477 709 OFFCURVE",
"187 722 CURVE",
"182 675 LINE",
"355 669 OFFCURVE",
"467 595 OFFCURVE",
"479 433 CURVE",
"444 480 OFFCURVE",
"389 503 OFFCURVE",
"318 503 CURVE SMOOTH",
"170 503 OFFCURVE",
"48 386 OFFCURVE",
"48 216 CURVE SMOOTH",
"48 86 OFFCURVE",
"131 -6 OFFCURVE",
"264 -6 CURVE SMOOTH"
);
},
{
closed = 1;
nodes = (
"180 54 OFFCURVE",
"112 114 OFFCURVE",
"112 217 CURVE SMOOTH",
"112 341 OFFCURVE",
"192 446 OFFCURVE",
"326 446 CURVE SMOOTH",
"445 446 OFFCURVE",
"485 334 OFFCURVE",
"475 250 CURVE SMOOTH",
"464 156 OFFCURVE",
"395 54 OFFCURVE",
"268 54 CURVE SMOOTH"
);
},
{
closed = 1;
nodes = (
"561 642 LINE",
"548 681 LINE",
"245 586 LINE",
"257 548 LINE"
);
}
);
width = 608;
},
{
layerId = "957254E3-B7AD-4837-9092-D4428001DE8E";
paths = (
{
closed = 1;
nodes = (
"427 -6 OFFCURVE",
"543 132 OFFCURVE",
"543 380 CURVE SMOOTH",
"543 587 OFFCURVE",
"462 721 OFFCURVE",
"222 743 CURVE",
"210 643 LINE",
"359 637 OFFCURVE",
"417 532 OFFCURVE",
"417 431 CURVE",
"386 478 OFFCURVE",
"325 492 OFFCURVE",
"275 492 CURVE SMOOTH",
"138 492 OFFCURVE",
"9 384 OFFCURVE",
"9 223 CURVE SMOOTH",
"9 92 OFFCURVE",
"95 -6 OFFCURVE",
"247 -6 CURVE SMOOTH"
);
},
{
closed = 1;
nodes = (
"200 123 OFFCURVE",
"150 155 OFFCURVE",
"150 225 CURVE SMOOTH",
"150 283 OFFCURVE",
"185 369 OFFCURVE",
"291 369 CURVE SMOOTH",
"358 369 OFFCURVE",
"394 335 OFFCURVE",
"399 285 CURVE SMOOTH",
"407 211 OFFCURVE",
"348 123 OFFCURVE",
"256 123 CURVE SMOOTH"
);
},
{
closed = 1;
nodes = (
"547 612 LINE",
"533 672 LINE",
"168 586 LINE",
"183 526 LINE"
);
}
);
width = 564;
}
);
leftKerningGroup = c;
note = eth;
rightKerningGroup = b;
unicode = 00F0;
},
{
color = 1;
glyphname = e;
lastChange = "2019-09-11 19:37:52 +0000";
layers = (
{
anchors = (
{
name = bottom;
position = "{276, 0}";
},
{
name = ogonek;
position = "{354, 5}";
},
{
name = top;
position = "{268, 493}";
}
);
layerId = "F91D9E91-C1BC-4259-B0D8-112C0CBA2B8E";
paths = (
{
closed = 1;
nodes = (
"352 -5 OFFCURVE",
"397 14 OFFCURVE",
"455 70 CURVE",
"446 78 LINE",
"392 23 OFFCURVE",
"350 5 OFFCURVE",
"276 5 CURVE SMOOTH",
"155 5 OFFCURVE",
"76 95 OFFCURVE",
"76 251 CURVE",
"464 251 LINE",
"466 259 OFFCURVE",
"467 278 OFFCURVE",
"467 291 CURVE SMOOTH",
"467 376 OFFCURVE",
"417 498 OFFCURVE",
"268 498 CURVE SMOOTH",
"148 498 OFFCURVE",
"66 394 OFFCURVE",
"66 243 CURVE SMOOTH",
"66 93 OFFCURVE",
"149 -5 OFFCURVE",
"276 -5 CURVE SMOOTH"
);
},
{
closed = 1;
nodes = (
"459 260 LINE",
"72 260 LINE",
"76 257 LINE",
"81 393 OFFCURVE",
"158 488 OFFCURVE",
"268 488 CURVE SMOOTH",
"411 488 OFFCURVE",
"457 374 OFFCURVE",
"457 291 CURVE SMOOTH",
"457 281 OFFCURVE",
"457 268 OFFCURVE",
"455 256 CURVE"
);
}
);
width = 527;
},
{
anchors = (
{
name = bottom;
position = "{271, 0}";
},
{
name = ogonek;
position = "{379, 11}";
},
{
name = top;
position = "{264, 493}";
}
);
background = {
paths = (
{
closed = 1;
nodes = (
"354 -10 OFFCURVE",
"419 19 OFFCURVE",
"473 79 CURVE",
"390 152 LINE",
"356 113 OFFCURVE",
"316 99 OFFCURVE",
"272 99 CURVE SMOOTH",
"194 99 OFFCURVE",
"154 142 OFFCURVE",
"149 207 CURVE",
"487 207 LINE",
"489 219 OFFCURVE",
"491 234 OFFCURVE",
"491 255 CURVE SMOOTH",
"491 365 OFFCURVE",
"432 503 OFFCURVE",
"263 503 CURVE SMOOTH",
"99 503 OFFCURVE",
"29 373 OFFCURVE",
"29 244 CURVE SMOOTH",
"29 112 OFFCURVE",
"101 -10 OFFCURVE",
"271 -10 CURVE SMOOTH"
);
},
{
closed = 1;
nodes = (
"155 346 OFFCURVE",
"184 402 OFFCURVE",
"262 402 CURVE SMOOTH",
"316 402 OFFCURVE",
"354 373 OFFCURVE",
"367 331 CURVE SMOOTH",
"371 319 OFFCURVE",
"373 307 OFFCURVE",
"373 294 CURVE",
"149 294 LINE"
);
}
);
};
layerId = "5EAB4D72-96CB-4765-AAD5-A13175319428";
paths = (
{
closed = 1;
nodes = (
"354 -10 OFFCURVE",
"419 19 OFFCURVE",
"473 79 CURVE",
"390 152 LINE",
"356 113 OFFCURVE",
"316 99 OFFCURVE",
"272 99 CURVE SMOOTH",
"194 99 OFFCURVE",
"154 142 OFFCURVE",
"149 207 CURVE",
"487 207 LINE",
"489 223 OFFCURVE",
"490 238 OFFCURVE",
"490 253 CURVE SMOOTH",
"490 390 OFFCURVE",
"416 503 OFFCURVE",
"263 503 CURVE SMOOTH",
"99 503 OFFCURVE",
"29 373 OFFCURVE",
"29 244 CURVE SMOOTH",
"29 112 OFFCURVE",
"101 -10 OFFCURVE",
"271 -10 CURVE SMOOTH"
);
},
{
closed = 1;
nodes = (
"384 302 LINE",
"144 302 LINE",
"147 282 LINE",
"147 336 OFFCURVE",
"179 403 OFFCURVE",
"262 403 CURVE SMOOTH",
"327 403 OFFCURVE",
"375 363 OFFCURVE",
"375 297 CURVE SMOOTH",
"375 292 OFFCURVE",
"375 286 OFFCURVE",
"374 281 CURVE"
);
}
);
width = 519;
},
{
anchors = (
{
name = bottom;
position = "{278, 0}";
},
{
name = ogonek;
position = "{372, 8}";
},
{
name = top;
position = "{271, 493}";
}
);
layerId = "AC39E679-6500-437B-9A87-662B1E841B74";
paths = (
{
closed = 1;
nodes = (
"354 -8 OFFCURVE",
"411 14 OFFCURVE",
"469 75 CURVE",
"421 117 LINE",
"376 69 OFFCURVE",
"333 55 OFFCURVE",
"279 55 CURVE SMOOTH",
"182 55 OFFCURVE",
"122 120 OFFCURVE",
"120 228 CURVE",
"481 228 LINE",
"483 240 OFFCURVE",
"484 257 OFFCURVE",
"484 271 CURVE SMOOTH",
"484 383 OFFCURVE",
"421 501 OFFCURVE",
"270 501 CURVE SMOOTH",
"127 501 OFFCURVE",
"51 383 OFFCURVE",
"51 244 CURVE SMOOTH",
"51 104 OFFCURVE",
"128 -8 OFFCURVE",
"278 -8 CURVE SMOOTH"
);
},
{
closed = 1;
nodes = (
"421 286 LINE",
"116 286 LINE",
"120 274 LINE",
"121 366 OFFCURVE",
"177 443 OFFCURVE",
"270 443 CURVE SMOOTH",
"361 443 OFFCURVE",
"412 382 OFFCURVE",
"417 302 CURVE SMOOTH",
"418 277 OFFCURVE",
"418 289 OFFCURVE",
"417 273 CURVE"
);
}
);
width = 532;
},
{
anchors = (
{
name = bottom;
position = "{265, 0}";
},
{
name = ogonek;
position = "{381, 13}";
},
{
name = top;
position = "{258, 493}";
}
);
background = {
paths = (
{
closed = 1;
nodes = (
"352 -10 OFFCURVE",
"417 19 OFFCURVE",
"471 79 CURVE",
"388 152 LINE",
"354 113 OFFCURVE",
"314 99 OFFCURVE",
"270 99 CURVE SMOOTH",
"192 99 OFFCURVE",
"152 142 OFFCURVE",
"147 207 CURVE",
"485 207 LINE",
"487 219 OFFCURVE",
"489 234 OFFCURVE",
"489 255 CURVE SMOOTH",
"489 365 OFFCURVE",
"430 503 OFFCURVE",
"261 503 CURVE SMOOTH",
"97 503 OFFCURVE",
"27 373 OFFCURVE",
"27 244 CURVE SMOOTH",
"27 112 OFFCURVE",
"99 -10 OFFCURVE",
"269 -10 CURVE SMOOTH"
);
},
{
closed = 1;
nodes = (
"153 346 OFFCURVE",
"182 402 OFFCURVE",
"260 402 CURVE SMOOTH",
"314 402 OFFCURVE",
"352 373 OFFCURVE",
"365 331 CURVE SMOOTH",
"369 319 OFFCURVE",
"371 307 OFFCURVE",
"371 294 CURVE",
"147 294 LINE"
);
}
);
};
layerId = "957254E3-B7AD-4837-9092-D4428001DE8E";
paths = (
{
closed = 1;
nodes = (
"352 -11 OFFCURVE",
"422 22 OFFCURVE",
"474 81 CURVE",
"370 173 LINE",
"342 139 OFFCURVE",
"303 125 OFFCURVE",
"266 125 CURVE SMOOTH",
"201 125 OFFCURVE",
"171 155 OFFCURVE",
"165 194 CURVE",
"489 194 LINE",
"491 215 OFFCURVE",
"492 228 OFFCURVE",
"492 242 CURVE SMOOTH",
"492 394 OFFCURVE",
"411 504 OFFCURVE",
"257 504 CURVE SMOOTH",
"81 504 OFFCURVE",
"14 367 OFFCURVE",
"14 244 CURVE SMOOTH",
"14 117 OFFCURVE",
"83 -11 OFFCURVE",
"265 -11 CURVE SMOOTH"
);
},
{
closed = 1;
nodes = (
"360 305 LINE",
"159 305 LINE",
"161 287 LINE",
"161 318 OFFCURVE",
"179 379 OFFCURVE",
"255 379 CURVE SMOOTH",
"309 379 OFFCURVE",
"352 347 OFFCURVE",
"348 294 CURVE SMOOTH",
"348 301 OFFCURVE",
"347 284 OFFCURVE",
"346 286 CURVE"
);
}
);
width = 507;
}
);
leftKerningGroup = c;
note = e;
rightKerningGroup = e;
unicode = 0065;
},
{
color = 1;
glyphname = f;
lastChange = "2019-09-11 19:22:09 +0000";
layers = (
{
anchors = (
{
name = bottom;
position = "{149, 0}";
},
{
name = top;
position = "{178, 697}";
}
);
layerId = "F91D9E91-C1BC-4259-B0D8-112C0CBA2B8E";
paths = (
{
closed = 1;
nodes = (
"154 0 LINE",
"154 483 LINE",
"327 483 LINE",
"327 493 LINE",
"154 493 LINE",
"154 580 LINE SMOOTH",
"154 656 OFFCURVE",
"190 692 OFFCURVE",
"253 692 CURVE SMOOTH",
"279 692 OFFCURVE",
"299 687 OFFCURVE",
"319 677 CURVE",
"323 685 LINE",
"304 696 OFFCURVE",
"281 702 OFFCURVE",
"253 702 CURVE SMOOTH",
"184 702 OFFCURVE",
"144 662 OFFCURVE",
"144 580 CURVE SMOOTH",
"144 493 LINE",
"28 493 LINE",
"28 483 LINE",
"144 483 LINE",
"144 0 LINE"
);
}
);
width = 355;
},
{
anchors = (
{
name = bottom;
position = "{159, 0}";
},
{
name = top;
position = "{164, 697}";
}
);
layerId = "5EAB4D72-96CB-4765-AAD5-A13175319428";
paths = (
{
closed = 1;
nodes = (
"219 0 LINE",
"219 398 LINE",
"334 398 LINE",
"334 493 LINE",
"219 493 LINE",
"219 550 LINE SMOOTH",
"219 568 OFFCURVE",
"219 607 OFFCURVE",
"262 607 CURVE SMOOTH",
"278 607 OFFCURVE",
"292 602 OFFCURVE",
"303 595 CURVE",
"342 687 LINE",
"316 699 OFFCURVE",
"287 707 OFFCURVE",
"249 707 CURVE SMOOTH",
"171 707 OFFCURVE",
"100 674 OFFCURVE",
"100 549 CURVE SMOOTH",
"100 493 LINE",
"5 493 LINE",
"5 398 LINE",
"99 398 LINE",
"99 0 LINE"
);
}
);
width = 331;
},
{
anchors = (
{
name = bottom;
position = "{156, 0}";
},
{
name = top;
position = "{172, 697}";
}
);
background = {
paths = (
{
closed = 1;
nodes = (
"190 0 LINE",
"190 438 LINE",
"332 438 LINE",
"332 493 LINE",
"190 493 LINE",
"190 567 LINE SMOOTH",
"190 619 OFFCURVE",
"217 647 OFFCURVE",
"256 647 CURVE SMOOTH",
"272 647 OFFCURVE",
"291 642 OFFCURVE",
"310 631 CURVE",
"334 686 LINE",
"313 697 OFFCURVE",
"288 705 OFFCURVE",
"258 705 CURVE SMOOTH",
"178 705 OFFCURVE",
"122 668 OFFCURVE",
"122 563 CURVE SMOOTH",
"122 493 LINE",
"17 493 LINE",
"17 438 LINE",
"121 438 LINE",
"121 0 LINE"
);
}
);
};
layerId = "AC39E679-6500-437B-9A87-662B1E841B74";
paths = (
{
closed = 1;
nodes = (
"190 0 LINE",
"190 435 LINE",
"332 435 LINE",
"332 493 LINE",
"190 493 LINE",
"190 574 LINE SMOOTH",
"190 620 OFFCURVE",
"214 647 OFFCURVE",
"253 647 CURVE SMOOTH",
"270 647 OFFCURVE",
"289 641 OFFCURVE",
"310 631 CURVE",
"334 686 LINE",
"303 699 OFFCURVE",
"273 705 OFFCURVE",
"246 705 CURVE SMOOTH",
"183 705 OFFCURVE",
"122 674 OFFCURVE",
"122 569 CURVE SMOOTH",
"122 493 LINE",
"17 493 LINE",
"17 435 LINE",
"121 435 LINE",
"121 0 LINE"
);
}
);
width = 349;
},
{
anchors = (
{
name = bottom;
position = "{161, 0}";
},
{
name = top;
position = "{159, 697}";
}
);
layerId = "957254E3-B7AD-4837-9092-D4428001DE8E";
paths = (
{
closed = 1;
nodes = (
"237 0 LINE",
"237 376 LINE",
"335 376 LINE",
"335 493 LINE",
"237 493 LINE",
"237 536 LINE SMOOTH",
"237 562 OFFCURVE",
"243 583 OFFCURVE",
"268 583 CURVE SMOOTH",
"281 583 OFFCURVE",
"294 577 OFFCURVE",
"306 571 CURVE",
"354 686 LINE",
"324 699 OFFCURVE",
"295 708 OFFCURVE",
"251 708 CURVE SMOOTH",
"164 708 OFFCURVE",
"87 674 OFFCURVE",
"87 537 CURVE SMOOTH",
"87 493 LINE",
"-2 493 LINE",
"-2 376 LINE",
"86 376 LINE",
"86 0 LINE"
);
}
);
width = 327;
}
);
leftKerningGroup = f;
note = f;
rightKerningGroup = f;
unicode = 0066;
},
{
color = 1;
glyphname = g;
lastChange = "2019-09-11 19:35:26 +0000";
layers = (
{
anchors = (
{
name = bottom;
position = "{252, -254}";
},
{
name = top;
position = "{252, 493}";
}
);
layerId = "F91D9E91-C1BC-4259-B0D8-112C0CBA2B8E";
paths = (
{
closed = 1;
nodes = (
"383 -210 OFFCURVE",
"459 -167 OFFCURVE",
"459 -85 CURVE SMOOTH",
"459 12 OFFCURVE",
"342 24 OFFCURVE",
"236 42 CURVE SMOOTH",
"154 55 OFFCURVE",
"80 72 OFFCURVE",
"80 139 CURVE SMOOTH",
"80 175 OFFCURVE",
"100 200 OFFCURVE",
"144 220 CURVE",
"140 230 LINE",
"92 208 OFFCURVE",
"70 180 OFFCURVE",
"70 139 CURVE SMOOTH",
"70 65 OFFCURVE",
"150 46 OFFCURVE",
"237 32 CURVE SMOOTH",
"338 15 OFFCURVE",
"449 4 OFFCURVE",
"449 -85 CURVE SMOOTH",
"449 -161 OFFCURVE",
"377 -200 OFFCURVE",
"266 -200 CURVE SMOOTH",
"146 -200 OFFCURVE",
"69 -151 OFFCURVE",
"69 -63 CURVE SMOOTH",
"69 -57 OFFCURVE",
"69 -51 OFFCURVE",
"70 -44 CURVE",
"166 49 LINE",
"153 53 LINE",
"60 -40 LINE",
"59 -48 OFFCURVE",
"59 -57 OFFCURVE",
"59 -63 CURVE SMOOTH",
"59 -157 OFFCURVE",
"141 -210 OFFCURVE",
"266 -210 CURVE SMOOTH"
);
},
{
closed = 1;
nodes = (
"357 184 OFFCURVE",
"426 246 OFFCURVE",
"426 338 CURVE SMOOTH",
"426 432 OFFCURVE",
"357 498 OFFCURVE",
"258 498 CURVE SMOOTH",
"157 498 OFFCURVE",
"86 432 OFFCURVE",
"86 339 CURVE SMOOTH",
"86 247 OFFCURVE",
"156 184 OFFCURVE",
"257 184 CURVE SMOOTH"
);
},
{
closed = 1;
nodes = (
"161 194 OFFCURVE",
"96 254 OFFCURVE",
"96 339 CURVE SMOOTH",
"96 426 OFFCURVE",
"164 488 OFFCURVE",
"258 488 CURVE SMOOTH",
"352 488 OFFCURVE",
"416 427 OFFCURVE",
"416 338 CURVE SMOOTH",
"416 253 OFFCURVE",
"352 194 OFFCURVE",
"257 194 CURVE SMOOTH"
);
},
{
closed = 1;
nodes = (
"455 493 LINE",
"449 501 LINE",
"384 442 LINE",
"391 435 LINE"
);
}
);
width = 503;
},
{
anchors = (
{
name = bottom;
position = "{256, -254}";
},
{
name = top;
position = "{256, 493}";
}
);
background = {
paths = (
{
closed = 1;
nodes = (
"384 -214 OFFCURVE",
"478 -170 OFFCURVE",
"478 -67 CURVE SMOOTH",
"478 125 OFFCURVE",
"147 34 OFFCURVE",
"147 129 CURVE SMOOTH",
"147 151 OFFCURVE",
"164 162 OFFCURVE",
"201 168 CURVE",
"134 238 LINE",
"78 208 OFFCURVE",
"44 171 OFFCURVE",
"44 110 CURVE SMOOTH",
"44 -78 OFFCURVE",
"358 8 OFFCURVE",
"358 -78 CURVE SMOOTH",
"358 -112 OFFCURVE",
"307 -124 OFFCURVE",
"256 -124 CURVE SMOOTH",
"200 -124 OFFCURVE",
"139 -111 OFFCURVE",
"139 -69 CURVE SMOOTH",
"139 -67 OFFCURVE",
"139 -64 OFFCURVE",
"140 -61 CURVE",
"231 27 LINE",
"159 51 LINE",
"22 -36 LINE",
"21 -41 OFFCURVE",
"20 -46 OFFCURVE",
"20 -58 CURVE SMOOTH",
"20 -160 OFFCURVE",
"104 -214 OFFCURVE",
"251 -214 CURVE SMOOTH"
);
},
{
closed = 1;
nodes = (
"364 136 OFFCURVE",
"456 206 OFFCURVE",
"456 316 CURVE SMOOTH",
"456 428 OFFCURVE",
"363 503 OFFCURVE",
"252 503 CURVE SMOOTH",
"142 503 OFFCURVE",
"50 429 OFFCURVE",
"50 322 CURVE SMOOTH",
"50 216 OFFCURVE",
"139 136 OFFCURVE",
"256 136 CURVE SMOOTH"
);
},
{
closed = 1;
nodes = (
"198 234 OFFCURVE",
"170 272 OFFCURVE",
"170 319 CURVE SMOOTH",
"170 369 OFFCURVE",
"203 403 OFFCURVE",
"254 403 CURVE SMOOTH",
"305 403 OFFCURVE",
"336 370 OFFCURVE",
"336 319 CURVE SMOOTH",
"336 271 OFFCURVE",
"309 234 OFFCURVE",
"254 234 CURVE SMOOTH"
);
},
{
closed = 1;
nodes = (
"506 460 LINE",
"443 536 LINE",
"342 449 LINE",
"422 392 LINE"
);
}
);
};
layerId = "5EAB4D72-96CB-4765-AAD5-A13175319428";
paths = (
{
closed = 1;
nodes = (
"394 -214 OFFCURVE",
"488 -170 OFFCURVE",
"488 -67 CURVE SMOOTH",
"488 51 OFFCURVE",
"359 62 OFFCURVE",
"259 75 CURVE SMOOTH",
"197 83 OFFCURVE",
"147 93 OFFCURVE",
"147 129 CURVE SMOOTH",
"147 151 OFFCURVE",
"164 162 OFFCURVE",
"201 168 CURVE",
"134 238 LINE",
"78 208 OFFCURVE",
"44 171 OFFCURVE",
"44 110 CURVE SMOOTH",
"44 5 OFFCURVE",
"145 -14 OFFCURVE",
"234 -26 CURVE SMOOTH",
"305 -36 OFFCURVE",
"368 -40 OFFCURVE",
"368 -78 CURVE SMOOTH",
"368 -112 OFFCURVE",
"317 -124 OFFCURVE",
"266 -124 CURVE SMOOTH",
"210 -124 OFFCURVE",
"149 -111 OFFCURVE",
"149 -69 CURVE SMOOTH",
"149 -67 OFFCURVE",
"149 -64 OFFCURVE",
"150 -61 CURVE",
"241 27 LINE",
"169 51 LINE",
"32 -36 LINE",
"31 -41 OFFCURVE",
"30 -46 OFFCURVE",
"30 -58 CURVE SMOOTH",
"30 -160 OFFCURVE",
"114 -214 OFFCURVE",
"261 -214 CURVE SMOOTH"
);
},
{
closed = 1;
nodes = (
"364 136 OFFCURVE",
"456 206 OFFCURVE",
"456 316 CURVE SMOOTH",
"456 428 OFFCURVE",
"363 503 OFFCURVE",
"252 503 CURVE SMOOTH",
"142 503 OFFCURVE",
"50 429 OFFCURVE",
"50 322 CURVE SMOOTH",
"50 216 OFFCURVE",
"139 136 OFFCURVE",
"256 136 CURVE SMOOTH"
);
},
{
closed = 1;
nodes = (
"198 234 OFFCURVE",
"170 272 OFFCURVE",
"170 319 CURVE SMOOTH",
"170 369 OFFCURVE",
"203 403 OFFCURVE",
"254 403 CURVE SMOOTH",
"305 403 OFFCURVE",
"336 370 OFFCURVE",
"336 319 CURVE SMOOTH",
"336 271 OFFCURVE",
"309 234 OFFCURVE",
"254 234 CURVE SMOOTH"
);
},
{
closed = 1;
nodes = (
"506 460 LINE",
"443 536 LINE",
"342 449 LINE",
"422 392 LINE"
);
}
);
width = 514;
},
{
anchors = (
{
name = bottom;
position = "{260, -254}";
},
{
name = top;
position = "{260, 493}";
}
);
layerId = "AC39E679-6500-437B-9A87-662B1E841B74";
paths = (
{
closed = 1;
nodes = (
"388 -212 OFFCURVE",
"475 -169 OFFCURVE",
"475 -76 CURVE SMOOTH",
"475 31 OFFCURVE",
"359 45 OFFCURVE",
"261 60 CURVE SMOOTH",
"190 71 OFFCURVE",
"128 83 OFFCURVE",
"128 133 CURVE SMOOTH",
"128 161 OFFCURVE",
"148 182 OFFCURVE",
"180 192 CURVE",
"143 234 LINE",
"90 208 OFFCURVE",
"62 174 OFFCURVE",
"62 124 CURVE SMOOTH",
"62 32 OFFCURVE",
"156 14 OFFCURVE",
"246 0 CURVE SMOOTH",
"328 -13 OFFCURVE",
"406 -22 OFFCURVE",
"406 -82 CURVE SMOOTH",
"406 -130 OFFCURVE",
"354 -154 OFFCURVE",
"267 -154 CURVE SMOOTH",
"183 -154 OFFCURVE",
"112 -132 OFFCURVE",
"112 -62 CURVE SMOOTH",
"112 -60 OFFCURVE",
"112 -58 OFFCURVE",
"113 -53 CURVE",
"206 37 LINE",
"155 54 LINE",
"46 -38 LINE",
"45 -44 OFFCURVE",
"44 -50 OFFCURVE",
"44 -60 CURVE SMOOTH",
"44 -158 OFFCURVE",
"127 -212 OFFCURVE",
"264 -212 CURVE SMOOTH"
);
},
{
closed = 1;
nodes = (
"366 158 OFFCURVE",
"448 225 OFFCURVE",
"448 326 CURVE SMOOTH",
"448 426 OFFCURVE",
"369 501 OFFCURVE",
"261 501 CURVE SMOOTH",
"155 501 OFFCURVE",
"73 430 OFFCURVE",
"73 330 CURVE SMOOTH",
"73 231 OFFCURVE",
"153 158 OFFCURVE",
"262 158 CURVE SMOOTH"
);
},
{
closed = 1;
nodes = (
"187 215 OFFCURVE",
"141 264 OFFCURVE",
"141 328 CURVE SMOOTH",
"141 396 OFFCURVE",
"192 443 OFFCURVE",
"262 443 CURVE SMOOTH",
"333 443 OFFCURVE",
"379 396 OFFCURVE",
"379 328 CURVE SMOOTH",
"379 263 OFFCURVE",
"335 215 OFFCURVE",
"261 215 CURVE SMOOTH"
);
},
{
closed = 1;
nodes = (
"488 475 LINE",
"452 520 LINE",
"367 446 LINE",
"413 412 LINE"
);
}
);
width = 521;
},
{
anchors = (
{
name = bottom;
position = "{251, -254}";
},
{
name = top;
position = "{251, 493}";
}
);
background = {
paths = (
{
closed = 1;
nodes = (
"381 -214 OFFCURVE",
"475 -170 OFFCURVE",
"475 -67 CURVE SMOOTH",
"475 125 OFFCURVE",
"144 34 OFFCURVE",
"144 129 CURVE SMOOTH",
"144 151 OFFCURVE",
"161 162 OFFCURVE",
"198 168 CURVE",
"131 238 LINE",
"75 208 OFFCURVE",
"41 171 OFFCURVE",
"41 110 CURVE SMOOTH",
"41 -78 OFFCURVE",
"355 8 OFFCURVE",
"355 -78 CURVE SMOOTH",
"355 -112 OFFCURVE",
"304 -124 OFFCURVE",
"253 -124 CURVE SMOOTH",
"197 -124 OFFCURVE",
"136 -111 OFFCURVE",
"136 -69 CURVE SMOOTH",
"136 -67 OFFCURVE",
"136 -64 OFFCURVE",
"137 -61 CURVE",
"228 27 LINE",
"156 51 LINE",
"19 -36 LINE",
"18 -41 OFFCURVE",
"17 -46 OFFCURVE",
"17 -58 CURVE SMOOTH",
"17 -160 OFFCURVE",
"101 -214 OFFCURVE",
"248 -214 CURVE SMOOTH"
);
},
{
closed = 1;
nodes = (
"361 136 OFFCURVE",
"453 206 OFFCURVE",
"453 316 CURVE SMOOTH",
"453 428 OFFCURVE",
"360 503 OFFCURVE",
"249 503 CURVE SMOOTH",
"139 503 OFFCURVE",
"47 429 OFFCURVE",
"47 322 CURVE SMOOTH",
"47 216 OFFCURVE",
"136 136 OFFCURVE",
"253 136 CURVE SMOOTH"
);
},
{
closed = 1;
nodes = (
"195 234 OFFCURVE",
"167 272 OFFCURVE",
"167 319 CURVE SMOOTH",
"167 369 OFFCURVE",
"200 403 OFFCURVE",
"251 403 CURVE SMOOTH",
"302 403 OFFCURVE",
"333 370 OFFCURVE",
"333 319 CURVE SMOOTH",
"333 271 OFFCURVE",
"306 234 OFFCURVE",
"251 234 CURVE SMOOTH"
);
},
{
closed = 1;
nodes = (
"503 460 LINE",
"440 536 LINE",
"339 449 LINE",
"419 392 LINE"
);
}
);
};
layerId = "957254E3-B7AD-4837-9092-D4428001DE8E";
paths = (
{
closed = 1;
nodes = (
"394 -225 OFFCURVE",
"493 -171 OFFCURVE",
"493 -59 CURVE SMOOTH",
"493 51 OFFCURVE",
"397 67 OFFCURVE",
"254 84 CURVE SMOOTH",
"192 91 OFFCURVE",
"153 97 OFFCURVE",
"153 126 CURVE SMOOTH",
"153 147 OFFCURVE",
"172 165 OFFCURVE",
"198 168 CURVE",
"126 240 LINE",
"68 208 OFFCURVE",
"31 168 OFFCURVE",
"31 102 CURVE SMOOTH",
"31 -9 OFFCURVE",
"135 -32 OFFCURVE",
"227 -42 CURVE SMOOTH",
"282 -48 OFFCURVE",
"343 -50 OFFCURVE",
"343 -83 CURVE SMOOTH",
"343 -100 OFFCURVE",
"326 -116 OFFCURVE",
"266 -116 CURVE SMOOTH",
"202 -116 OFFCURVE",
"169 -98 OFFCURVE",
"169 -73 CURVE SMOOTH",
"169 -71 OFFCURVE",
"169 -68 OFFCURVE",
"170 -66 CURVE",
"238 0 LINE",
"170 21 LINE",
"21 -35 LINE",
"18 -47 OFFCURVE",
"17 -59 OFFCURVE",
"17 -68 CURVE SMOOTH",
"17 -164 OFFCURVE",
"116 -225 OFFCURVE",
"259 -225 CURVE SMOOTH"
);
},
{
closed = 1;
nodes = (
"374 127 OFFCURVE",
"458 199 OFFCURVE",
"458 309 CURVE SMOOTH",
"458 429 OFFCURVE",
"357 504 OFFCURVE",
"245 504 CURVE SMOOTH",
"132 504 OFFCURVE",
"34 429 OFFCURVE",
"34 314 CURVE SMOOTH",
"34 206 OFFCURVE",
"120 127 OFFCURVE",
"250 127 CURVE SMOOTH"
);
},
{
closed = 1;
nodes = (
"202 245 OFFCURVE",
"185 277 OFFCURVE",
"185 314 CURVE SMOOTH",
"185 352 OFFCURVE",
"207 379 OFFCURVE",
"247 379 CURVE SMOOTH",
"286 379 OFFCURVE",
"308 353 OFFCURVE",
"308 314 CURVE SMOOTH",
"308 277 OFFCURVE",
"291 245 OFFCURVE",
"247 245 CURVE SMOOTH"
);
},
{
closed = 1;
nodes = (
"514 451 LINE",
"435 546 LINE",
"324 451 LINE",
"425 380 LINE"
);
}
);
width = 508;
}
);
leftKerningGroup = c;
note = g;
rightKerningGroup = g;
unicode = 0067;
},
{
color = 1;
glyphname = h;
lastChange = "2019-09-11 19:31:31 +0000";
layers = (
{
anchors = (
{
name = bottom;
position = "{271, 0}";
},
{
name = center;
position = "{177, 608}";
},
{
name = top;
position = "{108, 697}";
}
);
layerId = "F91D9E91-C1BC-4259-B0D8-112C0CBA2B8E";
paths = (
{
closed = 1;
nodes = (
"113 0 LINE",
"113 263 LINE SMOOTH",
"113 410 OFFCURVE",
"171 488 OFFCURVE",
"280 488 CURVE SMOOTH",
"380 488 OFFCURVE",
"429 423 OFFCURVE",
"429 293 CURVE SMOOTH",
"429 0 LINE",
"439 0 LINE",
"439 295 LINE SMOOTH",
"439 429 OFFCURVE",
"384 498 OFFCURVE",
"277 498 CURVE SMOOTH",
"188 498 OFFCURVE",
"132 450 OFFCURVE",
"112 355 CURVE",
"113 355 LINE",
"113 697 LINE",
"103 697 LINE",
"103 0 LINE"
);
}
);
width = 530;
},
{
anchors = (
{
name = bottom;
position = "{297, 0}";
},
{
name = center;
position = "{183, 608}";
},
{
name = top;
position = "{132, 697}";
}
);
layerId = "5EAB4D72-96CB-4765-AAD5-A13175319428";
paths = (
{
closed = 1;
nodes = (
"191 0 LINE",
"191 197 LINE SMOOTH",
"191 339 OFFCURVE",
"224 398 OFFCURVE",
"303 398 CURVE SMOOTH",
"365 398 OFFCURVE",
"394 363 OFFCURVE",
"394 288 CURVE SMOOTH",
"394 0 LINE",
"514 0 LINE",
"514 318 LINE SMOOTH",
"514 436 OFFCURVE",
"451 503 OFFCURVE",
"340 503 CURVE SMOOTH",
"259 503 OFFCURVE",
"200 468 OFFCURVE",
"171 402 CURVE",
"191 382 LINE",
"191 697 LINE",
"71 697 LINE",
"71 0 LINE"
);
}
);
width = 573;
},
{
anchors = (
{
name = bottom;
position = "{290, 0}";
},
{
name = center;
position = "{185, 608}";
},
{
name = top;
position = "{126, 697}";
}
);
layerId = "AC39E679-6500-437B-9A87-662B1E841B74";
paths = (
{
closed = 1;
nodes = (
"160 0 LINE",
"160 227 LINE SMOOTH",
"160 363 OFFCURVE",
"213 440 OFFCURVE",
"307 440 CURVE SMOOTH",
"381 440 OFFCURVE",
"415 392 OFFCURVE",
"415 285 CURVE SMOOTH",
"415 0 LINE",
"484 0 LINE",
"484 302 LINE SMOOTH",
"484 433 OFFCURVE",
"429 501 OFFCURVE",
"323 501 CURVE SMOOTH",
"233 501 OFFCURVE",
"161 452 OFFCURVE",
"140 377 CURVE",
"160 377 LINE",
"160 697 LINE",
"91 697 LINE",
"91 0 LINE"
);
}
);
width = 563;
},
{
anchors = (
{
name = bottom;
position = "{299, 0}";
},
{
name = center;
position = "{188, 589}";
},
{
name = top;
position = "{134, 697}";
}
);
layerId = "957254E3-B7AD-4837-9092-D4428001DE8E";
paths = (
{
closed = 1;
nodes = (
"208 0 LINE",
"208 179 LINE SMOOTH",
"208 304 OFFCURVE",
"220 373 OFFCURVE",
"299 373 CURVE SMOOTH",
"353 373 OFFCURVE",
"379 346 OFFCURVE",
"379 290 CURVE SMOOTH",
"379 0 LINE",
"530 0 LINE",
"530 328 LINE SMOOTH",
"530 438 OFFCURVE",
"461 504 OFFCURVE",
"348 504 CURVE SMOOTH",
"272 504 OFFCURVE",
"221 477 OFFCURVE",
"188 417 CURVE",
"208 385 LINE",
"208 697 LINE",
"57 697 LINE",
"57 0 LINE"
);
}
);
width = 575;
}
);
leftKerningGroup = b;
note = h;
rightKerningGroup = h;
unicode = 0068;
},
{
color = 1;
glyphname = idotless;
lastChange = "2019-09-11 19:22:09 +0000";
layers = (
{
anchors = (
{
name = bottom;
position = "{108, 0}";
},
{
name = ogonek;
position = "{113, 0}";
},
{
name = top;
position = "{108, 493}";
}
);
layerId = "F91D9E91-C1BC-4259-B0D8-112C0CBA2B8E";
paths = (
{
closed = 1;
nodes = (
"113 0 LINE",
"113 493 LINE",
"103 493 LINE",
"103 0 LINE"
);
}
);
width = 216;
},
{
anchors = (
{
name = bottom;
position = "{130, 0}";
},
{
name = ogonek;
position = "{190, 0}";
},
{
name = top;
position = "{130, 493}";
}
);
layerId = "5EAB4D72-96CB-4765-AAD5-A13175319428";
paths = (
{
closed = 1;
nodes = (
"190 0 LINE",
"190 493 LINE",
"70 493 LINE",
"70 0 LINE"
);
}
);
width = 260;
},
{
anchors = (
{
name = bottom;
position = "{125, 0}";
},
{
name = ogonek;
position = "{160, 0}";
},
{
name = top;
position = "{125, 493}";
}
);
layerId = "AC39E679-6500-437B-9A87-662B1E841B74";
paths = (
{
closed = 1;
nodes = (
"160 0 LINE",
"160 493 LINE",
"91 493 LINE",
"91 0 LINE"
);
}
);
width = 251;
},
{
anchors = (
{
name = bottom;
position = "{132, 0}";
},
{
name = ogonek;
position = "{207, 0}";
},
{
name = top;
position = "{132, 493}";
}
);
layerId = "957254E3-B7AD-4837-9092-D4428001DE8E";
paths = (
{
closed = 1;
nodes = (
"207 0 LINE",
"207 493 LINE",
"56 493 LINE",
"56 0 LINE"
);
}
);
width = 263;
}
);
leftKerningGroup = i;
note = dotlessi;
rightKerningGroup = i;
unicode = 0131;
},
{
color = 1;
glyphname = jdotless;
lastChange = "2019-09-11 19:22:09 +0000";
layers = (
{
anchors = (
{
name = bottom;
position = "{108, -254}";
},
{
name = top;
position = "{108, 493}";
}
);
guideLines = (
{
position = "{381, -204}";
}
);
layerId = "F91D9E91-C1BC-4259-B0D8-112C0CBA2B8E";
paths = (
{
closed = 1;
nodes = (
"90 -209 OFFCURVE",
"113 -180 OFFCURVE",
"113 -114 CURVE SMOOTH",
"113 493 LINE",
"103 493 LINE",
"103 -114 LINE SMOOTH",
"103 -174 OFFCURVE",
"83 -200 OFFCURVE",
"43 -200 CURVE SMOOTH",
"28 -200 OFFCURVE",
"9 -196 OFFCURVE",
"-12 -188 CURVE",
"-14 -198 LINE",
"8 -205 OFFCURVE",
"28 -209 OFFCURVE",
"44 -209 CURVE SMOOTH"
);
}
);
width = 216;
},
{
anchors = (
{
name = bottom;
position = "{131, -254}";
},
{
name = top;
position = "{131, 493}";
}
);
background = {
paths = (
{
closed = 1;
nodes = (
"146 -214 OFFCURVE",
"191 -182 OFFCURVE",
"191 -86 CURVE SMOOTH",
"191 493 LINE",
"71 493 LINE",
"71 -73 LINE SMOOTH",
"71 -95 OFFCURVE",
"58 -104 OFFCURVE",
"36 -104 CURVE SMOOTH",
"25 -104 OFFCURVE",
"12 -102 OFFCURVE",
"-2 -98 CURVE",
"-2 -199 LINE",
"28 -208 OFFCURVE",
"58 -214 OFFCURVE",
"83 -214 CURVE SMOOTH"
);
}
);
};
guideLines = (
{
position = "{381, -204}";
}
);
layerId = "5EAB4D72-96CB-4765-AAD5-A13175319428";
paths = (
{
closed = 1;
nodes = (
"142 -214 OFFCURVE",
"191 -174 OFFCURVE",
"191 -86 CURVE SMOOTH",
"191 493 LINE",
"71 493 LINE",
"71 -78 LINE SMOOTH",
"71 -100 OFFCURVE",
"58 -109 OFFCURVE",
"36 -109 CURVE SMOOTH",
"25 -109 OFFCURVE",
"12 -107 OFFCURVE",
"-2 -103 CURVE",
"-2 -199 LINE",
"25 -209 OFFCURVE",
"52 -214 OFFCURVE",
"75 -214 CURVE SMOOTH"
);
}
);
width = 262;
},
{
anchors = (
{
name = bottom;
position = "{125, -254}";
},
{
name = top;
position = "{125, 493}";
}
);
guideLines = (
{
position = "{386, -204}";
}
);
layerId = "AC39E679-6500-437B-9A87-662B1E841B74";
paths = (
{
closed = 1;
nodes = (
"122 -212 OFFCURVE",
"159 -177 OFFCURVE",
"159 -99 CURVE SMOOTH",
"159 493 LINE",
"91 493 LINE",
"91 -95 LINE SMOOTH",
"91 -134 OFFCURVE",
"74 -151 OFFCURVE",
"44 -151 CURVE SMOOTH",
"31 -151 OFFCURVE",
"15 -149 OFFCURVE",
"-2 -143 CURVE",
"-3 -199 LINE",
"22 -207 OFFCURVE",
"45 -212 OFFCURVE",
"65 -212 CURVE SMOOTH"
);
}
);
width = 250;
},
{
anchors = (
{
name = bottom;
position = "{133, -254}";
},
{
name = top;
position = "{133, 493}";
}
);
background = {
paths = (
{
closed = 1;
nodes = (
"144 -214 OFFCURVE",
"189 -182 OFFCURVE",
"189 -86 CURVE SMOOTH",
"189 493 LINE",
"69 493 LINE",
"69 -73 LINE SMOOTH",
"69 -95 OFFCURVE",
"56 -104 OFFCURVE",
"34 -104 CURVE SMOOTH",
"23 -104 OFFCURVE",
"10 -102 OFFCURVE",
"-4 -98 CURVE",
"-4 -199 LINE",
"26 -208 OFFCURVE",
"56 -214 OFFCURVE",
"81 -214 CURVE SMOOTH"
);
}
);
};
guideLines = (
{
position = "{379, -204}";
}
);
layerId = "957254E3-B7AD-4837-9092-D4428001DE8E";
paths = (
{
closed = 1;
nodes = (
"153 -215 OFFCURVE",
"208 -172 OFFCURVE",
"208 -78 CURVE SMOOTH",
"208 493 LINE",
"57 493 LINE",
"57 -46 LINE SMOOTH",
"57 -80 OFFCURVE",
"43 -84 OFFCURVE",
"19 -84 CURVE SMOOTH",
"8 -84 OFFCURVE",
"-6 -82 OFFCURVE",
"-21 -79 CURVE",
"-20 -199 LINE",
"10 -209 OFFCURVE",
"46 -215 OFFCURVE",
"75 -215 CURVE SMOOTH"
);
}
);
width = 265;
}
);
note = uni0237;
unicode = 0237;
},
{
color = 1;
glyphname = k;
lastChange = "2019-09-11 19:38:07 +0000";
layers = (
{
anchors = (
{
name = bottom;
position = "{294, 0}";
},
{
name = top;
position = "{108, 697}";
}
);
layerId = "F91D9E91-C1BC-4259-B0D8-112C0CBA2B8E";
paths = (
{
closed = 1;
nodes = (
"113 0 LINE",
"113 147 LINE",
"269 307 LINE",
"474 0 LINE",
"486 0 LINE",
"276 315 LINE",
"449 493 LINE",
"434 493 LINE",
"113 162 LINE",
"113 697 LINE",
"103 697 LINE",
"103 0 LINE"
);
}
);
width = 520;
},
{
anchors = (
{
name = bottom;
position = "{301, 0}";
},
{
name = top;
position = "{274, 707}";
}
);
layerId = "5EAB4D72-96CB-4765-AAD5-A13175319428";
paths = (
{
closed = 1;
nodes = (
"191 0 LINE",
"191 144 LINE",
"267 228 LINE",
"411 0 LINE",
"554 0 LINE",
"349 302 LINE",
"533 493 LINE",
"372 493 LINE",
"191 293 LINE",
"191 697 LINE",
"71 697 LINE",
"71 0 LINE"
);
}
);
width = 548;
},
{
anchors = (
{
name = bottom;
position = "{303, 0}";
},
{
name = top;
position = "{202, 702}";
}
);
layerId = "AC39E679-6500-437B-9A87-662B1E841B74";
paths = (
{
closed = 1;
nodes = (
"160 0 LINE",
"160 145 LINE",
"273 265 LINE",
"445 0 LINE",
"527 0 LINE",
"320 308 LINE",
"499 493 LINE",
"406 493 LINE",
"160 232 LINE",
"160 697 LINE",
"91 697 LINE",
"91 0 LINE"
);
}
);
width = 545;
},
{
anchors = (
{
name = bottom;
position = "{298, 0}";
},
{
name = top;
position = "{315, 710}";
}
);
layerId = "957254E3-B7AD-4837-9092-D4428001DE8E";
paths = (
{
closed = 1;
nodes = (
"208 0 LINE",
"208 143 LINE",
"261 206 LINE",
"389 0 LINE",
"568 0 LINE",
"371 307 LINE",
"551 493 LINE",
"350 493 LINE",
"208 330 LINE",
"208 697 LINE",
"57 697 LINE",
"57 0 LINE"
);
}
);
width = 550;
}
);
leftKerningGroup = b;
note = k;
rightKerningGroup = k;
unicode = 006B;
},
{
color = 1;
glyphname = kgreenlandic;
lastChange = "2019-09-11 19:36:49 +0000";
layers = (
{
anchors = (
{
name = bottom;
position = "{260, 0}";
},
{
name = top;
position = "{260, 493}";
}
);
layerId = "F91D9E91-C1BC-4259-B0D8-112C0CBA2B8E";
paths = (
{
closed = 1;
nodes = (
"113 0 LINE",
"113 147 LINE",
"269 307 LINE",
"474 0 LINE",
"486 0 LINE",
"276 315 LINE",
"449 493 LINE",
"434 493 LINE",
"113 162 LINE",
"113 493 LINE",
"103 493 LINE",
"103 0 LINE"
);
}
);
width = 520;
},
{
anchors = (
{
name = bottom;
position = "{274, 0}";
},
{
name = top;
position = "{274, 493}";
}
);
layerId = "5EAB4D72-96CB-4765-AAD5-A13175319428";
paths = (
{
closed = 1;
nodes = (
"190 0 LINE",
"190 144 LINE",
"266 228 LINE",
"410 0 LINE",
"553 0 LINE",
"348 302 LINE",
"532 493 LINE",
"376 493 LINE",
"190 288 LINE",
"190 493 LINE",
"70 493 LINE",
"70 0 LINE"
);
}
);
width = 547;
},
{
anchors = (
{
name = bottom;
position = "{273, 0}";
},
{
name = top;
position = "{273, 493}";
}
);
layerId = "AC39E679-6500-437B-9A87-662B1E841B74";
paths = (
{
closed = 1;
nodes = (
"160 0 LINE",
"160 145 LINE",
"273 265 LINE",
"445 0 LINE",
"527 0 LINE",
"320 308 LINE",
"499 493 LINE",
"409 493 LINE",
"160 229 LINE",
"160 493 LINE",
"91 493 LINE",
"91 0 LINE"
);
}
);
width = 545;
},
{
anchors = (
{
name = bottom;
position = "{273, 0}";
},
{
name = top;
position = "{273, 493}";
}
);
layerId = "957254E3-B7AD-4837-9092-D4428001DE8E";
paths = (
{
closed = 1;
nodes = (
"207 0 LINE",
"207 143 LINE",
"260 206 LINE",
"388 0 LINE",
"567 0 LINE",
"373 308 LINE",
"550 493 LINE",
"355 493 LINE",
"207 323 LINE",
"207 493 LINE",
"56 493 LINE",
"56 0 LINE"
);
}
);
width = 549;
}
);
note = kgreenlandic;
unicode = 0138;
},
{
color = 1;
glyphname = l;
lastChange = "2019-09-11 19:21:56 +0000";
layers = (
{
anchors = (
{
name = bottom;
position = "{148, 0}";
},
{
name = center;
position = "{128, 417}";
},
{
name = top;
position = "{106, 697}";
},
{
name = topright;
position = "{224, 493}";
}
);
layerId = "F91D9E91-C1BC-4259-B0D8-112C0CBA2B8E";
paths = (
{
closed = 1;
nodes = (
"186 -5 OFFCURVE",
"206 -1 OFFCURVE",
"228 6 CURVE",
"226 16 LINE",
"205 8 OFFCURVE",
"186 4 OFFCURVE",
"171 4 CURVE SMOOTH",
"131 4 OFFCURVE",
"111 30 OFFCURVE",
"111 90 CURVE SMOOTH",
"111 697 LINE",
"101 697 LINE",
"101 90 LINE SMOOTH",
"101 24 OFFCURVE",
"124 -5 OFFCURVE",
"170 -5 CURVE SMOOTH"
);
}
);
width = 256;
},
{
anchors = (
{
name = bottom;
position = "{158, 0}";
},
{
name = center;
position = "{126, 351}";
},
{
name = top;
position = "{125, 697}";
},
{
name = topright;
position = "{306, 493}";
}
);
layerId = "5EAB4D72-96CB-4765-AAD5-A13175319428";
paths = (
{
closed = 1;
nodes = (
"204 -10 OFFCURVE",
"231 -5 OFFCURVE",
"258 5 CURVE",
"258 101 LINE",
"244 97 OFFCURVE",
"231 95 OFFCURVE",
"220 95 CURVE SMOOTH",
"198 95 OFFCURVE",
"185 104 OFFCURVE",
"185 126 CURVE SMOOTH",
"185 697 LINE",
"65 697 LINE",
"65 118 LINE SMOOTH",
"65 30 OFFCURVE",
"114 -10 OFFCURVE",
"181 -10 CURVE SMOOTH"
);
}
);
width = 278;
},
{
anchors = (
{
name = bottom;
position = "{167, 0}";
},
{
name = center;
position = "{135, 382}";
},
{
name = top;
position = "{121, 697}";
},
{
name = topright;
position = "{273, 493}";
}
);
layerId = "AC39E679-6500-437B-9A87-662B1E841B74";
paths = (
{
closed = 1;
nodes = (
"203 -8 OFFCURVE",
"228 -2 OFFCURVE",
"249 5 CURVE",
"248 64 LINE",
"233 59 OFFCURVE",
"216 55 OFFCURVE",
"201 55 CURVE SMOOTH",
"168 55 OFFCURVE",
"156 77 OFFCURVE",
"156 111 CURVE SMOOTH",
"156 697 LINE",
"87 697 LINE",
"87 107 LINE SMOOTH",
"87 30 OFFCURVE",
"124 -8 OFFCURVE",
"181 -8 CURVE SMOOTH"
);
}
);
width = 270;
},
{
anchors = (
{
name = bottom;
position = "{139, 0}";
},
{
name = center;
position = "{129, 364}";
},
{
name = top;
position = "{126, 697}";
},
{
name = topright;
position = "{324, 493}";
}
);
layerId = "957254E3-B7AD-4837-9092-D4428001DE8E";
paths = (
{
closed = 1;
nodes = (
"201 -11 OFFCURVE",
"231 -7 OFFCURVE",
"262 5 CURVE",
"262 123 LINE",
"250 120 OFFCURVE",
"238 119 OFFCURVE",
"230 119 CURVE SMOOTH",
"211 119 OFFCURVE",
"201 122 OFFCURVE",
"201 145 CURVE SMOOTH",
"201 697 LINE",
"50 697 LINE",
"50 125 LINE SMOOTH",
"50 30 OFFCURVE",
"107 -11 OFFCURVE",
"179 -11 CURVE SMOOTH"
);
}
);
width = 277;
}
);
leftKerningGroup = b;
note = l;
rightKerningGroup = d;
unicode = 006C;
},
{
color = 1;
glyphname = m;
lastChange = "2019-09-11 19:22:09 +0000";
layers = (
{
anchors = (
{
name = bottom;
position = "{409, 0}";
},
{
name = top;
position = "{409, 493}";
}
);
background = {
paths = (
{
closed = 1;
nodes = (
"169 0 LINE",
"169 251 LINE SMOOTH",
"169 345 OFFCURVE",
"214 448 OFFCURVE",
"299 448 CURVE SMOOTH",
"388 448 OFFCURVE",
"408 363 OFFCURVE",
"408 294 CURVE SMOOTH",
"408 0 LINE",
"470 0 LINE",
"470 271 LINE SMOOTH",
"470 355 OFFCURVE",
"515 448 OFFCURVE",
"599 448 CURVE SMOOTH",
"689 448 OFFCURVE",
"710 360 OFFCURVE",
"710 292 CURVE SMOOTH",
"710 0 LINE",
"772 0 LINE",
"772 297 LINE SMOOTH",
"772 407 OFFCURVE",
"725 498 OFFCURVE",
"605 498 CURVE SMOOTH",
"535 498 OFFCURVE",
"485 459 OFFCURVE",
"456 392 CURVE",
"434 465 OFFCURVE",
"375 498 OFFCURVE",
"304 498 CURVE SMOOTH",
"239 498 OFFCURVE",
"186 454 OFFCURVE",
"169 406 CURVE",
"169 488 LINE",
"107 488 LINE",
"107 0 LINE"
);
}
);
};
layerId = "F91D9E91-C1BC-4259-B0D8-112C0CBA2B8E";
paths = (
{
closed = 1;
nodes = (
"114 0 LINE",
"114 293 LINE SMOOTH",
"114 419 OFFCURVE",
"175 488 OFFCURVE",
"267 488 CURVE SMOOTH",
"361 488 OFFCURVE",
"409 427 OFFCURVE",
"409 293 CURVE SMOOTH",
"409 0 LINE",
"420 0 LINE",
"420 293 LINE SMOOTH",
"420 419 OFFCURVE",
"481 488 OFFCURVE",
"573 488 CURVE SMOOTH",
"684 488 OFFCURVE",
"716 403 OFFCURVE",
"716 280 CURVE SMOOTH",
"716 0 LINE",
"727 0 LINE",
"727 280 LINE SMOOTH",
"727 413 OFFCURVE",
"688 498 OFFCURVE",
"574 498 CURVE SMOOTH",
"491 498 OFFCURVE",
"433 446 OFFCURVE",
"414 350 CURVE",
"416 350 LINE",
"402 453 OFFCURVE",
"351 498 OFFCURVE",
"267 498 CURVE SMOOTH",
"190 498 OFFCURVE",
"132 454 OFFCURVE",
"112 367 CURVE",
"113 367 LINE",
"113 493 LINE",
"103 493 LINE",
"103 0 LINE"
);
}
);
width = 818;
},
{
anchors = (
{
name = bottom;
position = "{425, 0}";
},
{
name = top;
position = "{425, 493}";
}
);
background = {
components = (
{
name = n;
}
);
};
layerId = "5EAB4D72-96CB-4765-AAD5-A13175319428";
paths = (
{
closed = 1;
nodes = (
"191 0 LINE",
"191 188 LINE SMOOTH",
"191 287 OFFCURVE",
"188 398 OFFCURVE",
"289 398 CURVE SMOOTH",
"367 398 OFFCURVE",
"372 317 OFFCURVE",
"372 278 CURVE SMOOTH",
"372 0 LINE",
"492 0 LINE",
"492 188 LINE SMOOTH",
"492 287 OFFCURVE",
"488 398 OFFCURVE",
"589 398 CURVE SMOOTH",
"668 398 OFFCURVE",
"673 317 OFFCURVE",
"673 278 CURVE SMOOTH",
"673 0 LINE",
"793 0 LINE",
"793 314 LINE SMOOTH",
"793 413 OFFCURVE",
"740 503 OFFCURVE",
"621 503 CURVE SMOOTH",
"546 503 OFFCURVE",
"480 471 OFFCURVE",
"443 360 CURVE",
"476 355 LINE",
"455 473 OFFCURVE",
"382 503 OFFCURVE",
"318 503 CURVE SMOOTH",
"258 503 OFFCURVE",
"195 477 OFFCURVE",
"167 387 CURVE",
"186 377 LINE",
"186 493 LINE",
"70 493 LINE",
"71 0 LINE"
);
}
);
width = 851;
},
{
anchors = (
{
name = bottom;
position = "{422, 0}";
},
{
name = top;
position = "{422, 493}";
}
);
background = {
paths = (
{
closed = 1;
nodes = (
"443 0 LINE",
"443 221 LINE SMOOTH",
"443 371 OFFCURVE",
"506 440 OFFCURVE",
"590 440 CURVE SMOOTH",
"684 440 OFFCURVE",
"698 365 OFFCURVE",
"698 285 CURVE SMOOTH",
"698 0 LINE",
"767 0 LINE",
"767 302 LINE SMOOTH",
"767 424 OFFCURVE",
"718 501 OFFCURVE",
"606 501 CURVE SMOOTH",
"525 501 OFFCURVE",
"446 461 OFFCURVE",
"423 377 CURVE",
"443 377 LINE",
"443 493 LINE",
"374 493 LINE",
"374 0 LINE"
);
}
);
};
layerId = "AC39E679-6500-437B-9A87-662B1E841B74";
paths = (
{
closed = 1;
nodes = (
"160 0 LINE",
"160 237 LINE SMOOTH",
"160 349 OFFCURVE",
"187 440 OFFCURVE",
"283 440 CURVE SMOOTH",
"369 440 OFFCURVE",
"394 367 OFFCURVE",
"394 285 CURVE SMOOTH",
"394 0 LINE",
"463 0 LINE",
"463 237 LINE SMOOTH",
"463 348 OFFCURVE",
"490 440 OFFCURVE",
"590 440 CURVE SMOOTH",
"698 440 OFFCURVE",
"698 331 OFFCURVE",
"698 289 CURVE SMOOTH",
"698 0 LINE",
"767 0 LINE",
"767 308 LINE SMOOTH",
"767 423 OFFCURVE",
"718 501 OFFCURVE",
"600 501 CURVE SMOOTH",
"515 501 OFFCURVE",
"456 460 OFFCURVE",
"426 379 CURVE",
"446 378 LINE",
"426 462 OFFCURVE",
"371 501 OFFCURVE",
"293 501 CURVE SMOOTH",
"227 501 OFFCURVE",
"168 473 OFFCURVE",
"141 400 CURVE",
"157 399 LINE",
"157 493 LINE",
"90 493 LINE",
"91 0 LINE"
);
}
);
width = 846;
},
{
anchors = (
{
name = bottom;
position = "{425, 0}";
},
{
name = top;
position = "{425, 493}";
}
);
background = {
components = (
{
name = n;
transform = "{1, 0, 0, 1, -2, 0}";
}
);
};
layerId = "957254E3-B7AD-4837-9092-D4428001DE8E";
paths = (
{
closed = 1;
nodes = (
"208 0 LINE",
"208 159 LINE SMOOTH",
"208 252 OFFCURVE",
"187 373 OFFCURVE",
"291 373 CURVE SMOOTH",
"364 373 OFFCURVE",
"357 286 OFFCURVE",
"357 274 CURVE SMOOTH",
"357 0 LINE",
"507 0 LINE",
"507 159 LINE SMOOTH",
"507 252 OFFCURVE",
"485 373 OFFCURVE",
"586 373 CURVE SMOOTH",
"648 373 OFFCURVE",
"656 308 OFFCURVE",
"656 271 CURVE SMOOTH",
"656 0 LINE",
"807 0 LINE",
"807 318 LINE SMOOTH",
"807 407 OFFCURVE",
"751 504 OFFCURVE",
"632 504 CURVE SMOOTH",
"564 504 OFFCURVE",
"493 479 OFFCURVE",
"451 349 CURVE",
"492 341 LINE",
"471 475 OFFCURVE",
"392 504 OFFCURVE",
"331 504 CURVE SMOOTH",
"275 504 OFFCURVE",
"209 479 OFFCURVE",
"181 379 CURVE",
"201 364 LINE",
"201 493 LINE",
"56 493 LINE",
"57 0 LINE"
);
}
);
width = 850;
}
);
leftKerningGroup = m;
note = m;
rightKerningGroup = h;
unicode = 006D;
},
{
color = 1;
glyphname = n;
lastChange = "2019-09-11 19:21:56 +0000";
layers = (
{
anchors = (
{
name = bottom;
position = "{271, 0}";
},
{
name = top;
position = "{266, 493}";
}
);
background = {
paths = (
{
closed = 1;
nodes = (
"142 0 LINE",
"142 250 LINE SMOOTH",
"142 380 OFFCURVE",
"208 446 OFFCURVE",
"287 446 CURVE SMOOTH",
"379 446 OFFCURVE",
"402 360 OFFCURVE",
"402 292 CURVE SMOOTH",
"402 0 LINE",
"463 0 LINE",
"463 297 LINE SMOOTH",
"463 406 OFFCURVE",
"416 496 OFFCURVE",
"303 496 CURVE SMOOTH",
"226 496 OFFCURVE",
"173 455 OFFCURVE",
"142 396 CURVE",
"142 488 LINE",
"81 488 LINE",
"81 0 LINE"
);
}
);
};
layerId = "F91D9E91-C1BC-4259-B0D8-112C0CBA2B8E";
paths = (
{
closed = 1;
nodes = (
"113 0 LINE",
"113 263 LINE SMOOTH",
"113 419 OFFCURVE",
"177 488 OFFCURVE",
"280 488 CURVE SMOOTH",
"377 488 OFFCURVE",
"429 427 OFFCURVE",
"429 293 CURVE SMOOTH",
"429 0 LINE",
"439 0 LINE",
"439 295 LINE SMOOTH",
"439 438 OFFCURVE",
"378 498 OFFCURVE",
"277 498 CURVE SMOOTH",
"194 498 OFFCURVE",
"133 454 OFFCURVE",
"112 355 CURVE",
"113 355 LINE",
"113 493 LINE",
"103 493 LINE",
"103 0 LINE"
);
}
);
width = 530;
},
{
anchors = (
{
name = bottom;
position = "{285, 0}";
},
{
name = top;
position = "{285, 493}";
}
);
background = {
components = (
{
name = m;
transform = "{1, 0, 0, 1, -280, 0}";
}
);
};
layerId = "5EAB4D72-96CB-4765-AAD5-A13175319428";
paths = (
{
closed = 1;
nodes = (
"190 0 LINE",
"190 197 LINE SMOOTH",
"190 285 OFFCURVE",
"190 398 OFFCURVE",
"302 398 CURVE SMOOTH",
"393 398 OFFCURVE",
"393 322 OFFCURVE",
"393 288 CURVE SMOOTH",
"393 0 LINE",
"513 0 LINE",
"513 318 LINE SMOOTH",
"513 435 OFFCURVE",
"450 503 OFFCURVE",
"339 503 CURVE SMOOTH",
"266 503 OFFCURVE",
"202 474 OFFCURVE",
"170 402 CURVE",
"190 402 LINE",
"190 493 LINE",
"70 493 LINE",
"70 0 LINE"
);
}
);
width = 572;
},
{
anchors = (
{
name = bottom;
position = "{288, 0}";
},
{
name = top;
position = "{288, 493}";
}
);
background = {
paths = (
{
closed = 1;
nodes = (
"148 0 LINE",
"148 250 LINE SMOOTH",
"148 380 OFFCURVE",
"214 446 OFFCURVE",
"293 446 CURVE SMOOTH",
"385 446 OFFCURVE",
"408 360 OFFCURVE",
"408 292 CURVE SMOOTH",
"408 0 LINE",
"469 0 LINE",
"469 297 LINE SMOOTH",
"469 406 OFFCURVE",
"422 496 OFFCURVE",
"309 496 CURVE SMOOTH",
"232 496 OFFCURVE",
"179 455 OFFCURVE",
"148 396 CURVE",
"148 488 LINE",
"87 488 LINE",
"87 0 LINE"
);
}
);
};
layerId = "AC39E679-6500-437B-9A87-662B1E841B74";
paths = (
{
closed = 1;
nodes = (
"160 0 LINE",
"160 221 LINE SMOOTH",
"160 360 OFFCURVE",
"214 440 OFFCURVE",
"307 440 CURVE SMOOTH",
"381 440 OFFCURVE",
"415 391 OFFCURVE",
"415 285 CURVE SMOOTH",
"415 0 LINE",
"484 0 LINE",
"484 302 LINE SMOOTH",
"484 433 OFFCURVE",
"429 501 OFFCURVE",
"323 501 CURVE SMOOTH",
"233 501 OFFCURVE",
"161 452 OFFCURVE",
"140 377 CURVE",
"160 377 LINE",
"160 493 LINE",
"91 493 LINE",
"91 0 LINE"
);
}
);
width = 563;
},
{
anchors = (
{
name = bottom;
position = "{282, 0}";
},
{
name = top;
position = "{282, 493}";
}
);
background = {
components = (
{
name = m;
transform = "{1, 0, 0, 1, -281, 0}";
}
);
};
layerId = "957254E3-B7AD-4837-9092-D4428001DE8E";
paths = (
{
closed = 1;
nodes = (
"207 0 LINE",
"207 230 LINE SMOOTH",
"207 284 OFFCURVE",
"207 373 OFFCURVE",
"300 373 CURVE SMOOTH",
"378 373 OFFCURVE",
"378 310 OFFCURVE",
"378 272 CURVE SMOOTH",
"378 0 LINE",
"529 0 LINE",
"529 328 LINE SMOOTH",
"529 436 OFFCURVE",
"461 504 OFFCURVE",
"347 504 CURVE SMOOTH",
"285 504 OFFCURVE",
"225 487 OFFCURVE",
"187 417 CURVE",
"207 417 LINE",
"207 493 LINE",
"56 493 LINE",
"56 0 LINE"
);
}
);
width = 574;
}
);
leftKerningGroup = m;
note = n;
rightKerningGroup = h;
unicode = 006E;
},
{
color = 1;
glyphname = eng;
lastChange = "2019-09-11 19:22:10 +0000";
layers = (
{
guideLines = (
{
position = "{381, -204}";
}
);
layerId = "F91D9E91-C1BC-4259-B0D8-112C0CBA2B8E";
paths = (
{
closed = 1;
nodes = (
"416 -209 OFFCURVE",
"439 -180 OFFCURVE",
"439 -114 CURVE SMOOTH",
"439 328 LINE SMOOTH",
"439 438 OFFCURVE",
"378 498 OFFCURVE",
"277 498 CURVE SMOOTH",
"194 498 OFFCURVE",
"133 454 OFFCURVE",
"112 380 CURVE",
"113 379 LINE",
"113 493 LINE",
"103 493 LINE",
"103 0 LINE",
"113 0 LINE",
"113 313 LINE SMOOTH",
"113 419 OFFCURVE",
"178 488 OFFCURVE",
"277 488 CURVE SMOOTH",
"377 488 OFFCURVE",
"429 428 OFFCURVE",
"429 313 CURVE SMOOTH",
"429 -114 LINE SMOOTH",
"429 -174 OFFCURVE",
"409 -200 OFFCURVE",
"369 -200 CURVE SMOOTH",
"354 -200 OFFCURVE",
"335 -196 OFFCURVE",
"314 -188 CURVE",
"312 -198 LINE",
"334 -205 OFFCURVE",
"354 -209 OFFCURVE",
"370 -209 CURVE SMOOTH"
);
}
);
width = 532;
},
{
background = {
components = (
{
name = j;
transform = "{1, 0, 0, 1, 324, 0}";
}
);
};
guideLines = (
{
position = "{381, -204}";
}
);
layerId = "5EAB4D72-96CB-4765-AAD5-A13175319428";
paths = (
{
closed = 1;
nodes = (
"466 -214 OFFCURVE",
"513 -174 OFFCURVE",
"513 -86 CURVE SMOOTH",
"513 318 LINE SMOOTH",
"513 435 OFFCURVE",
"450 503 OFFCURVE",
"339 503 CURVE SMOOTH",
"266 503 OFFCURVE",
"202 474 OFFCURVE",
"170 402 CURVE",
"190 382 LINE",
"190 493 LINE",
"70 493 LINE",
"70 0 LINE",
"190 0 LINE",
"190 197 LINE SMOOTH",
"190 285 OFFCURVE",
"190 398 OFFCURVE",
"302 398 CURVE SMOOTH",
"393 398 OFFCURVE",
"393 322 OFFCURVE",
"393 288 CURVE SMOOTH",
"393 -78 LINE SMOOTH",
"393 -100 OFFCURVE",
"380 -109 OFFCURVE",
"358 -109 CURVE SMOOTH",
"347 -109 OFFCURVE",
"334 -107 OFFCURVE",
"320 -103 CURVE",
"320 -199 LINE",
"348 -209 OFFCURVE",
"375 -214 OFFCURVE",
"399 -214 CURVE SMOOTH"
);
}
);
width = 572;
},
{
guideLines = (
{
position = "{387, -204}";
}
);
layerId = "AC39E679-6500-437B-9A87-662B1E841B74";
paths = (
{
closed = 1;
nodes = (
"448 -212 OFFCURVE",
"484 -177 OFFCURVE",
"484 -99 CURVE SMOOTH",
"484 302 LINE SMOOTH",
"484 424 OFFCURVE",
"435 501 OFFCURVE",
"323 501 CURVE SMOOTH",
"257 501 OFFCURVE",
"193 474 OFFCURVE",
"158 419 CURVE",
"160 418 LINE",
"160 493 LINE",
"91 493 LINE",
"91 0 LINE",
"160 0 LINE",
"160 227 LINE SMOOTH",
"160 355 OFFCURVE",
"209 440 OFFCURVE",
"307 440 CURVE SMOOTH",
"401 440 OFFCURVE",
"415 365 OFFCURVE",
"415 285 CURVE SMOOTH",
"415 -95 LINE SMOOTH",
"415 -131 OFFCURVE",
"402 -151 OFFCURVE",
"369 -151 CURVE SMOOTH",
"356 -151 OFFCURVE",
"338 -148 OFFCURVE",
"323 -143 CURVE",
"322 -199 LINE",
"347 -207 OFFCURVE",
"371 -212 OFFCURVE",
"391 -212 CURVE SMOOTH"
);
}
);
width = 564;
},
{
background = {
components = (
{
name = j;
transform = "{1, 0, 0, 1, 323, 0}";
}
);
};
guideLines = (
{
position = "{380, -204}";
}
);
layerId = "957254E3-B7AD-4837-9092-D4428001DE8E";
paths = (
{
closed = 1;
nodes = (
"475 -215 OFFCURVE",
"529 -172 OFFCURVE",
"529 -78 CURVE SMOOTH",
"529 328 LINE SMOOTH",
"529 441 OFFCURVE",
"458 504 OFFCURVE",
"347 504 CURVE SMOOTH",
"270 504 OFFCURVE",
"206 474 OFFCURVE",
"176 392 CURVE",
"207 360 LINE",
"207 493 LINE",
"56 493 LINE",
"56 0 LINE",
"207 0 LINE",
"207 179 LINE SMOOTH",
"207 242 OFFCURVE",
"177 373 OFFCURVE",
"298 373 CURVE SMOOTH",
"387 373 OFFCURVE",
"378 296 OFFCURVE",
"378 290 CURVE SMOOTH",
"378 -57 LINE SMOOTH",
"378 -80 OFFCURVE",
"368 -84 OFFCURVE",
"350 -84 CURVE SMOOTH",
"342 -84 OFFCURVE",
"333 -83 OFFCURVE",
"317 -79 CURVE",
"317 -199 LINE",
"347 -210 OFFCURVE",
"375 -215 OFFCURVE",
"402 -215 CURVE SMOOTH"
);
}
);
width = 574;
}
);
leftKerningGroup = m;
note = eng;
rightKerningGroup = h;
unicode = 014B;
},
{
color = 1;
glyphname = o;
lastChange = "2019-09-11 19:39:04 +0000";
layers = (
{
anchors = (
{
name = bottom;
position = "{288, 0}";
},
{
name = center;
position = "{288, 247}";
},
{
name = ogonek;
position = "{333, 0}";
},
{
name = top;
position = "{288, 493}";
},
{
name = topright;
position = "{517, 390}";
}
);
layerId = "F91D9E91-C1BC-4259-B0D8-112C0CBA2B8E";
paths = (
{
closed = 1;
nodes = (
"415 -5 OFFCURVE",
"513 94 OFFCURVE",
"513 247 CURVE SMOOTH",
"513 400 OFFCURVE",
"415 498 OFFCURVE",
"287 498 CURVE SMOOTH",
"159 498 OFFCURVE",
"64 400 OFFCURVE",
"64 247 CURVE SMOOTH",
"64 93 OFFCURVE",
"159 -5 OFFCURVE",
"287 -5 CURVE SMOOTH"
);
},
{
closed = 1;
nodes = (
"165 5 OFFCURVE",
"74 99 OFFCURVE",
"74 247 CURVE SMOOTH",
"74 395 OFFCURVE",
"165 488 OFFCURVE",
"287 488 CURVE SMOOTH",
"410 488 OFFCURVE",
"503 394 OFFCURVE",
"503 247 CURVE SMOOTH",
"503 100 OFFCURVE",
"410 5 OFFCURVE",
"287 5 CURVE SMOOTH"
);
}
);
width = 577;
},
{
anchors = (
{
name = bottom;
position = "{273, 0}";
},
{
name = center;
position = "{273, 247}";
},
{
name = ogonek;
position = "{346, 0}";
},
{
name = top;
position = "{273, 493}";
},
{
name = topright;
position = "{530, 340}";
}
);
layerId = "5EAB4D72-96CB-4765-AAD5-A13175319428";
paths = (
{
closed = 1;
nodes = (
"425 -10 OFFCURVE",
"520 108 OFFCURVE",
"520 247 CURVE SMOOTH",
"520 387 OFFCURVE",
"425 503 OFFCURVE",
"273 503 CURVE SMOOTH",
"120 503 OFFCURVE",
"26 387 OFFCURVE",
"26 247 CURVE SMOOTH",
"26 108 OFFCURVE",
"120 -10 OFFCURVE",
"273 -10 CURVE SMOOTH"
);
},
{
closed = 1;
nodes = (
"182 95 OFFCURVE",
"146 167 OFFCURVE",
"146 247 CURVE SMOOTH",
"146 328 OFFCURVE",
"182 398 OFFCURVE",
"273 398 CURVE SMOOTH",
"364 398 OFFCURVE",
"400 328 OFFCURVE",
"400 247 CURVE SMOOTH",
"400 167 OFFCURVE",
"364 95 OFFCURVE",
"273 95 CURVE SMOOTH"
);
}
);
width = 546;
},
{
anchors = (
{
name = bottom;
position = "{284, 0}";
},
{
name = center;
position = "{284, 247}";
},
{
name = ogonek;
position = "{344, 0}";
},
{
name = top;
position = "{284, 493}";
},
{
name = topright;
position = "{528, 363}";
}
);
layerId = "AC39E679-6500-437B-9A87-662B1E841B74";
paths = (
{
closed = 1;
nodes = (
"425 -8 OFFCURVE",
"521 102 OFFCURVE",
"521 247 CURVE SMOOTH",
"521 393 OFFCURVE",
"424 501 OFFCURVE",
"284 501 CURVE SMOOTH",
"143 501 OFFCURVE",
"48 393 OFFCURVE",
"48 247 CURVE SMOOTH",
"48 101 OFFCURVE",
"143 -8 OFFCURVE",
"284 -8 CURVE SMOOTH"
);
},
{
closed = 1;
nodes = (
"179 53 OFFCURVE",
"117 135 OFFCURVE",
"117 247 CURVE SMOOTH",
"117 358 OFFCURVE",
"178 440 OFFCURVE",
"284 440 CURVE SMOOTH",
"389 440 OFFCURVE",
"452 359 OFFCURVE",
"452 247 CURVE SMOOTH",
"452 137 OFFCURVE",
"390 53 OFFCURVE",
"284 53 CURVE SMOOTH"
);
}
);
width = 569;
},
{
anchors = (
{
name = bottom;
position = "{265, 0}";
},
{
name = center;
position = "{265, 247}";
},
{
name = ogonek;
position = "{345, 0}";
},
{
name = top;
position = "{265, 493}";
},
{
name = topright;
position = "{529, 326}";
}
);
layerId = "957254E3-B7AD-4837-9092-D4428001DE8E";
paths = (
{
closed = 1;
nodes = (
"423 -11 OFFCURVE",
"518 112 OFFCURVE",
"518 247 CURVE SMOOTH",
"518 383 OFFCURVE",
"424 504 OFFCURVE",
"265 504 CURVE SMOOTH",
"104 504 OFFCURVE",
"11 382 OFFCURVE",
"11 247 CURVE SMOOTH",
"11 112 OFFCURVE",
"105 -11 OFFCURVE",
"265 -11 CURVE SMOOTH"
);
},
{
closed = 1;
nodes = (
"182 120 OFFCURVE",
"162 187 OFFCURVE",
"162 247 CURVE SMOOTH",
"162 310 OFFCURVE",
"183 373 OFFCURVE",
"265 373 CURVE SMOOTH",
"347 373 OFFCURVE",
"367 309 OFFCURVE",
"367 247 CURVE SMOOTH",
"367 185 OFFCURVE",
"346 120 OFFCURVE",
"265 120 CURVE SMOOTH"
);
}
);
width = 529;
}
);
leftKerningGroup = c;
note = o;
rightKerningGroup = b;
unicode = 006F;
},
{
color = 1;
glyphname = p;
lastChange = "2019-09-11 19:35:42 +0000";
layers = (
{
anchors = (
{
name = bottom;
position = "{299, 0}";
},
{
name = top;
position = "{299, 493}";
}
);
guideLines = (
{
position = "{381, -204}";
}
);
layerId = "F91D9E91-C1BC-4259-B0D8-112C0CBA2B8E";
paths = (
{
closed = 1;
nodes = (
"113 -204 LINE",
"113 172 LINE",
"112 171 LINE",
"138 67 OFFCURVE",
"221 -5 OFFCURVE",
"326 -5 CURVE SMOOTH",
"455 -5 OFFCURVE",
"532 103 OFFCURVE",
"532 245 CURVE SMOOTH",
"532 389 OFFCURVE",
"455 498 OFFCURVE",
"326 498 CURVE SMOOTH",
"221 498 OFFCURVE",
"138 426 OFFCURVE",
"112 321 CURVE",
"113 320 LINE",
"113 493 LINE",
"103 493 LINE",
"103 -204 LINE"
);
},
{
closed = 1;
nodes = (
"204 5 OFFCURVE",
"113 108 OFFCURVE",
"113 245 CURVE SMOOTH",
"113 384 OFFCURVE",
"204 488 OFFCURVE",
"326 488 CURVE SMOOTH",
"450 488 OFFCURVE",
"522 383 OFFCURVE",
"522 245 CURVE SMOOTH",
"522 109 OFFCURVE",
"450 5 OFFCURVE",
"326 5 CURVE SMOOTH"
);
}
);
width = 598;
},
{
anchors = (
{
name = bottom;
position = "{287, 0}";
},
{
name = top;
position = "{287, 493}";
}
);
guideLines = (
{
position = "{381, -204}";
}
);
layerId = "5EAB4D72-96CB-4765-AAD5-A13175319428";
paths = (
{
closed = 1;
nodes = (
"191 -204 LINE",
"191 104 LINE",
"174 77 LINE",
"197 25 OFFCURVE",
"264 -10 OFFCURVE",
"333 -10 CURVE SMOOTH",
"454 -10 OFFCURVE",
"541 85 OFFCURVE",
"541 246 CURVE SMOOTH",
"541 394 OFFCURVE",
"467 503 OFFCURVE",
"333 503 CURVE SMOOTH",
"268 503 OFFCURVE",
"200 477 OFFCURVE",
"171 412 CURVE",
"191 390 LINE",
"191 493 LINE",
"71 493 LINE",
"71 -204 LINE"
);
},
{
closed = 1;
nodes = (
"217 95 OFFCURVE",
"180 161 OFFCURVE",
"180 247 CURVE SMOOTH",
"180 335 OFFCURVE",
"217 398 OFFCURVE",
"304 398 CURVE SMOOTH",
"384 398 OFFCURVE",
"421 344 OFFCURVE",
"421 247 CURVE SMOOTH",
"421 151 OFFCURVE",
"383 95 OFFCURVE",
"303 95 CURVE SMOOTH"
);
}
);
width = 573;
},
{
anchors = (
{
name = bottom;
position = "{298, 0}";
},
{
name = top;
position = "{298, 493}";
}
);
background = {
paths = (
{
closed = 1;
nodes = (
"160 -204 LINE",
"160 105 LINE",
"189 38 OFFCURVE",
"256 -8 OFFCURVE",
"335 -8 CURVE SMOOTH",
"459 -8 OFFCURVE",
"542 93 OFFCURVE",
"542 246 CURVE SMOOTH",
"542 392 OFFCURVE",
"466 501 OFFCURVE",
"335 501 CURVE SMOOTH",
"262 501 OFFCURVE",
"192 462 OFFCURVE",
"160 388 CURVE",
"160 493 LINE",
"91 493 LINE",
"91 -204 LINE"
);
},
{
closed = 1;
nodes = (
"216 53 OFFCURVE",
"154 137 OFFCURVE",
"154 246 CURVE SMOOTH",
"154 357 OFFCURVE",
"216 440 OFFCURVE",
"319 440 CURVE SMOOTH",
"420 440 OFFCURVE",
"473 362 OFFCURVE",
"473 246 CURVE SMOOTH",
"473 131 OFFCURVE",
"419 53 OFFCURVE",
"319 53 CURVE SMOOTH"
);
}
);
};
guideLines = (
{
position = "{386, -204}";
}
);
layerId = "AC39E679-6500-437B-9A87-662B1E841B74";
paths = (
{
closed = 1;
nodes = (
"160 -204 LINE",
"160 71 LINE",
"158 69 LINE",
"194 21 OFFCURVE",
"250 -8 OFFCURVE",
"323 -8 CURVE SMOOTH",
"467 -8 OFFCURVE",
"542 100 OFFCURVE",
"542 247 CURVE SMOOTH",
"542 401 OFFCURVE",
"460 502 OFFCURVE",
"323 502 CURVE SMOOTH",
"252 502 OFFCURVE",
"195 474 OFFCURVE",
"158 424 CURVE",
"160 422 LINE",
"160 493 LINE",
"91 493 LINE",
"91 -204 LINE"
);
},
{
closed = 1;
nodes = (
"209 53 OFFCURVE",
"154 135 OFFCURVE",
"154 247 CURVE SMOOTH",
"154 364 OFFCURVE",
"214 441 OFFCURVE",
"313 441 CURVE SMOOTH",
"413 441 OFFCURVE",
"473 364 OFFCURVE",
"473 247 CURVE SMOOTH",
"473 135 OFFCURVE",
"418 53 OFFCURVE",
"313 53 CURVE SMOOTH"
);
}
);
width = 594;
},
{
anchors = (
{
name = bottom;
position = "{278, 0}";
},
{
name = top;
position = "{278, 493}";
}
);
guideLines = (
{
position = "{379, -204}";
}
);
layerId = "957254E3-B7AD-4837-9092-D4428001DE8E";
paths = (
{
closed = 1;
nodes = (
"208 -204 LINE",
"208 124 LINE",
"182 82 LINE",
"197 27 OFFCURVE",
"271 -11 OFFCURVE",
"337 -11 CURVE SMOOTH",
"444 -11 OFFCURVE",
"538 76 OFFCURVE",
"538 245 CURVE SMOOTH",
"538 390 OFFCURVE",
"469 504 OFFCURVE",
"337 504 CURVE SMOOTH",
"277 504 OFFCURVE",
"201 479 OFFCURVE",
"177 405 CURVE",
"208 371 LINE",
"208 493 LINE",
"57 493 LINE",
"57 -204 LINE"
);
},
{
closed = 1;
nodes = (
"220 120 OFFCURVE",
"194 177 OFFCURVE",
"194 247 CURVE SMOOTH",
"194 317 OFFCURVE",
"217 372 OFFCURVE",
"297 372 CURVE SMOOTH",
"357 372 OFFCURVE",
"388 332 OFFCURVE",
"388 247 CURVE SMOOTH",
"388 161 OFFCURVE",
"357 120 OFFCURVE",
"295 120 CURVE SMOOTH"
);
}
);
width = 556;
}
);
leftKerningGroup = m;
note = p;
rightKerningGroup = b;
unicode = 0070;
},
{
color = 1;
glyphname = thorn;
lastChange = "2019-09-11 19:22:09 +0000";
layers = (
{
anchors = (
{
name = bottom;
position = "{300, 0}";
},
{
name = top;
position = "{300, 493}";
}
);
guideLines = (
{
position = "{381, -204}";
}
);
layerId = "F91D9E91-C1BC-4259-B0D8-112C0CBA2B8E";
paths = (
{
closed = 1;
nodes = (
"114 -204 LINE",
"114 172 LINE",
"113 171 LINE",
"139 67 OFFCURVE",
"222 -5 OFFCURVE",
"327 -5 CURVE SMOOTH",
"456 -5 OFFCURVE",
"533 103 OFFCURVE",
"533 245 CURVE SMOOTH",
"533 389 OFFCURVE",
"456 498 OFFCURVE",
"327 498 CURVE SMOOTH",
"222 498 OFFCURVE",
"139 426 OFFCURVE",
"113 321 CURVE",
"114 320 LINE",
"114 697 LINE",
"104 697 LINE",
"104 -204 LINE"
);
},
{
closed = 1;
nodes = (
"205 5 OFFCURVE",
"114 108 OFFCURVE",
"114 245 CURVE SMOOTH",
"114 384 OFFCURVE",
"205 488 OFFCURVE",
"327 488 CURVE SMOOTH",
"451 488 OFFCURVE",
"523 383 OFFCURVE",
"523 245 CURVE SMOOTH",
"523 109 OFFCURVE",
"451 5 OFFCURVE",
"327 5 CURVE SMOOTH"
);
}
);
width = 599;
},
{
anchors = (
{
name = bottom;
position = "{286, 0}";
},
{
name = top;
position = "{286, 493}";
}
);
guideLines = (
{
position = "{381, -204}";
}
);
layerId = "5EAB4D72-96CB-4765-AAD5-A13175319428";
paths = (
{
closed = 1;
nodes = (
"191 -204 LINE",
"191 104 LINE",
"174 77 LINE",
"197 25 OFFCURVE",
"264 -10 OFFCURVE",
"333 -10 CURVE SMOOTH",
"454 -10 OFFCURVE",
"541 85 OFFCURVE",
"541 246 CURVE SMOOTH",
"541 394 OFFCURVE",
"467 503 OFFCURVE",
"333 503 CURVE SMOOTH",
"268 503 OFFCURVE",
"200 477 OFFCURVE",
"171 412 CURVE",
"191 390 LINE",
"191 697 LINE",
"71 697 LINE",
"71 -204 LINE"
);
},
{
closed = 1;
nodes = (
"217 95 OFFCURVE",
"180 161 OFFCURVE",
"180 247 CURVE SMOOTH",
"180 335 OFFCURVE",
"217 398 OFFCURVE",
"304 398 CURVE SMOOTH",
"384 398 OFFCURVE",
"421 344 OFFCURVE",
"421 247 CURVE SMOOTH",
"421 151 OFFCURVE",
"383 95 OFFCURVE",
"303 95 CURVE SMOOTH"
);
}
);
width = 573;
},
{
anchors = (
{
name = bottom;
position = "{301, 0}";
},
{
name = top;
position = "{301, 493}";
}
);
background = {
paths = (
{
closed = 1;
nodes = (
"164 -204 LINE",
"164 105 LINE",
"193 38 OFFCURVE",
"259 -8 OFFCURVE",
"339 -8 CURVE SMOOTH",
"463 -8 OFFCURVE",
"546 93 OFFCURVE",
"546 246 CURVE SMOOTH",
"546 392 OFFCURVE",
"470 501 OFFCURVE",
"339 501 CURVE SMOOTH",
"266 501 OFFCURVE",
"196 462 OFFCURVE",
"164 388 CURVE",
"164 697 LINE",
"95 697 LINE",
"95 -204 LINE"
);
},
{
closed = 1;
nodes = (
"220 53 OFFCURVE",
"158 137 OFFCURVE",
"158 246 CURVE SMOOTH",
"158 357 OFFCURVE",
"220 440 OFFCURVE",
"323 440 CURVE SMOOTH",
"424 440 OFFCURVE",
"477 362 OFFCURVE",
"477 246 CURVE SMOOTH",
"477 131 OFFCURVE",
"423 53 OFFCURVE",
"323 53 CURVE SMOOTH"
);
}
);
};
guideLines = (
{
position = "{390, -204}";
}
);
layerId = "AC39E679-6500-437B-9A87-662B1E841B74";
paths = (
{
closed = 1;
nodes = (
"161 -204 LINE",
"161 71 LINE",
"159 69 LINE",
"195 21 OFFCURVE",
"251 -8 OFFCURVE",
"324 -8 CURVE SMOOTH",
"468 -8 OFFCURVE",
"543 100 OFFCURVE",
"543 247 CURVE SMOOTH",
"543 401 OFFCURVE",
"461 502 OFFCURVE",
"324 502 CURVE SMOOTH",
"253 502 OFFCURVE",
"196 474 OFFCURVE",
"159 424 CURVE",
"161 422 LINE",
"161 697 LINE",
"92 697 LINE",
"92 -204 LINE"
);
},
{
closed = 1;
nodes = (
"210 53 OFFCURVE",
"155 135 OFFCURVE",
"155 247 CURVE SMOOTH",
"155 364 OFFCURVE",
"215 441 OFFCURVE",
"314 441 CURVE SMOOTH",
"414 441 OFFCURVE",
"474 364 OFFCURVE",
"474 247 CURVE SMOOTH",
"474 135 OFFCURVE",
"419 53 OFFCURVE",
"314 53 CURVE SMOOTH"
);
}
);
width = 595;
},
{
anchors = (
{
name = bottom;
position = "{276, 0}";
},
{
name = top;
position = "{276, 493}";
}
);
guideLines = (
{
position = "{380, -204}";
}
);
layerId = "957254E3-B7AD-4837-9092-D4428001DE8E";
paths = (
{
closed = 1;
nodes = (
"208 -204 LINE",
"208 124 LINE",
"182 82 LINE",
"197 27 OFFCURVE",
"271 -11 OFFCURVE",
"337 -11 CURVE SMOOTH",
"444 -11 OFFCURVE",
"538 76 OFFCURVE",
"538 245 CURVE SMOOTH",
"538 390 OFFCURVE",
"469 504 OFFCURVE",
"337 504 CURVE SMOOTH",
"277 504 OFFCURVE",
"201 479 OFFCURVE",
"177 405 CURVE",
"208 371 LINE",
"208 697 LINE",
"57 697 LINE",
"57 -204 LINE"
);
},
{
closed = 1;
nodes = (
"220 120 OFFCURVE",
"194 177 OFFCURVE",
"194 247 CURVE SMOOTH",
"194 317 OFFCURVE",
"217 372 OFFCURVE",
"297 372 CURVE SMOOTH",
"364 372 OFFCURVE",
"388 332 OFFCURVE",
"388 247 CURVE SMOOTH",
"388 161 OFFCURVE",
"360 120 OFFCURVE",
"295 120 CURVE SMOOTH"
);
}
);
width = 556;
}
);
leftKerningGroup = b;
note = thorn;
rightKerningGroup = b;
unicode = 00FE;
},
{
color = 1;
glyphname = q;
lastChange = "2019-09-11 19:36:06 +0000";
layers = (
{
components = (
{
name = p;
transform = "{-1, 0, 0, 1, 598, 0}";
}
);
guideLines = (
{
position = "{381, -204}";
}
);
layerId = "F91D9E91-C1BC-4259-B0D8-112C0CBA2B8E";
width = 598;
},
{
components = (
{
name = p;
transform = "{-1, 0, 0, 1, 573, 0}";
}
);
guideLines = (
{
position = "{381, -204}";
}
);
layerId = "5EAB4D72-96CB-4765-AAD5-A13175319428";
width = 573;
},
{
background = {
paths = (
{
closed = 1;
nodes = (
"503 -204 LINE",
"503 493 LINE",
"434 493 LINE",
"434 384 LINE",
"455 385 LINE",
"425 456 OFFCURVE",
"352 501 OFFCURVE",
"266 501 CURVE SMOOTH",
"138 501 OFFCURVE",
"52 400 OFFCURVE",
"52 247 CURVE SMOOTH",
"52 101 OFFCURVE",
"131 -8 OFFCURVE",
"267 -8 CURVE SMOOTH",
"356 -8 OFFCURVE",
"426 39 OFFCURVE",
"455 108 CURVE",
"434 109 LINE",
"434 -204 LINE"
);
},
{
closed = 1;
nodes = (
"175 56 OFFCURVE",
"121 135 OFFCURVE",
"121 247 CURVE SMOOTH",
"121 364 OFFCURVE",
"180 438 OFFCURVE",
"276 438 CURVE SMOOTH",
"379 438 OFFCURVE",
"440 354 OFFCURVE",
"440 246 CURVE SMOOTH",
"440 139 OFFCURVE",
"379 56 OFFCURVE",
"278 56 CURVE SMOOTH"
);
}
);
};
components = (
{
name = p;
transform = "{-1, 0, 0, 1, 594, 0}";
}
);
guideLines = (
{
position = "{386, -204}";
}
);
layerId = "AC39E679-6500-437B-9A87-662B1E841B74";
width = 594;
},
{
components = (
{
name = p;
transform = "{-1, 0, 0, 1, 556, 0}";
}
);
guideLines = (
{
position = "{381, -204}";
}
);
layerId = "957254E3-B7AD-4837-9092-D4428001DE8E";
width = 556;
}
);
leftKerningGroup = c;
note = q;
rightKerningGroup = i;
unicode = 0071;
},
{
color = 1;
glyphname = r;
lastChange = "2019-09-11 19:25:41 +0000";
layers = (
{
anchors = (
{
name = bottom;
position = "{189, 0}";
},
{
name = top;
position = "{189, 493}";
}
);
layerId = "F91D9E91-C1BC-4259-B0D8-112C0CBA2B8E";
paths = (
{
closed = 1;
nodes = (
"113 0 LINE",
"113 295 LINE SMOOTH",
"113 437 OFFCURVE",
"210 488 OFFCURVE",
"285 488 CURVE SMOOTH",
"305 488 OFFCURVE",
"325 484 OFFCURVE",
"343 477 CURVE",
"349 486 LINE",
"329 494 OFFCURVE",
"307 498 OFFCURVE",
"285 498 CURVE SMOOTH",
"221 498 OFFCURVE",
"139 461 OFFCURVE",
"112 365 CURVE",
"113 365 LINE",
"113 493 LINE",
"103 493 LINE",
"103 0 LINE"
);
}
);
width = 377;
},
{
anchors = (
{
name = bottom;
position = "{203, 0}";
},
{
name = top;
position = "{203, 493}";
}
);
layerId = "5EAB4D72-96CB-4765-AAD5-A13175319428";
paths = (
{
closed = 1;
nodes = (
"190 0 LINE",
"190 248 LINE SMOOTH",
"190 341 OFFCURVE",
"226 386 OFFCURVE",
"299 386 CURVE SMOOTH",
"323 386 OFFCURVE",
"342 380 OFFCURVE",
"359 369 CURVE",
"417 475 LINE",
"385 495 OFFCURVE",
"356 503 OFFCURVE",
"323 503 CURVE SMOOTH",
"256 503 OFFCURVE",
"189 455 OFFCURVE",
"183 369 CURVE",
"191 369 LINE",
"191 493 LINE",
"70 493 LINE",
"70 0 LINE"
);
}
);
width = 405;
},
{
anchors = (
{
name = bottom;
position = "{202, 0}";
},
{
name = top;
position = "{202, 493}";
}
);
background = {
paths = (
{
closed = 1;
nodes = (
"160 0 LINE",
"160 275 LINE SMOOTH",
"160 390 OFFCURVE",
"224 439 OFFCURVE",
"298 439 CURVE SMOOTH",
"317 439 OFFCURVE",
"337 435 OFFCURVE",
"357 424 CURVE",
"391 480 LINE",
"364 495 OFFCURVE",
"336 501 OFFCURVE",
"306 501 CURVE SMOOTH",
"247 501 OFFCURVE",
"173 477 OFFCURVE",
"143 378 CURVE",
"160 387 LINE",
"160 493 LINE",
"91 493 LINE",
"91 0 LINE"
);
}
);
};
layerId = "AC39E679-6500-437B-9A87-662B1E841B74";
paths = (
{
closed = 1;
nodes = (
"160 0 LINE",
"160 275 LINE SMOOTH",
"160 382 OFFCURVE",
"216 439 OFFCURVE",
"292 439 CURVE SMOOTH",
"313 439 OFFCURVE",
"334 434 OFFCURVE",
"357 424 CURVE",
"391 480 LINE",
"364 495 OFFCURVE",
"336 501 OFFCURVE",
"306 501 CURVE SMOOTH",
"247 501 OFFCURVE",
"173 477 OFFCURVE",
"143 378 CURVE",
"160 387 LINE",
"160 493 LINE",
"91 493 LINE",
"91 0 LINE"
);
}
);
width = 402;
},
{
anchors = (
{
name = bottom;
position = "{202, 0}";
},
{
name = top;
position = "{202, 493}";
}
);
layerId = "957254E3-B7AD-4837-9092-D4428001DE8E";
paths = (
{
closed = 1;
nodes = (
"207 0 LINE",
"207 229 LINE SMOOTH",
"207 316 OFFCURVE",
"242 354 OFFCURVE",
"295 354 CURVE SMOOTH",
"319 354 OFFCURVE",
"345 345 OFFCURVE",
"359 336 CURVE",
"431 472 LINE",
"396 495 OFFCURVE",
"366 504 OFFCURVE",
"332 504 CURVE SMOOTH",
"261 504 OFFCURVE",
"197 442 OFFCURVE",
"195 358 CURVE",
"208 358 LINE",
"208 493 LINE",
"56 493 LINE",
"56 0 LINE"
);
}
);
width = 407;
}
);
leftKerningGroup = m;
note = r;
rightKerningGroup = r;
unicode = 0072;
},
{
color = 1;
glyphname = s;
lastChange = "2019-09-11 19:26:57 +0000";
layers = (
{
anchors = (
{
name = bottom;
position = "{231, 0}";
},
{
name = top;
position = "{231, 493}";
}
);
layerId = "F91D9E91-C1BC-4259-B0D8-112C0CBA2B8E";
paths = (
{
closed = 1;
nodes = (
"344 -5 OFFCURVE",
"405 46 OFFCURVE",
"405 127 CURVE SMOOTH",
"405 322 OFFCURVE",
"80 219 OFFCURVE",
"80 381 CURVE SMOOTH",
"80 453 OFFCURVE",
"146 488 OFFCURVE",
"224 488 CURVE SMOOTH",
"301 488 OFFCURVE",
"345 454 OFFCURVE",
"376 395 CURVE",
"384 399 LINE",
"353 463 OFFCURVE",
"304 498 OFFCURVE",
"224 498 CURVE SMOOTH",
"140 498 OFFCURVE",
"70 459 OFFCURVE",
"70 381 CURVE SMOOTH",
"70 210 OFFCURVE",
"395 311 OFFCURVE",
"395 127 CURVE SMOOTH",
"395 50 OFFCURVE",
"335 5 OFFCURVE",
"246 5 CURVE SMOOTH",
"156 5 OFFCURVE",
"88 51 OFFCURVE",
"64 120 CURVE",
"54 116 LINE",
"80 42 OFFCURVE",
"153 -5 OFFCURVE",
"246 -5 CURVE SMOOTH"
);
}
);
width = 462;
},
{
anchors = (
{
name = bottom;
position = "{228, 0}";
},
{
name = top;
position = "{228, 493}";
}
);
layerId = "5EAB4D72-96CB-4765-AAD5-A13175319428";
paths = (
{
closed = 1;
nodes = (
"318 -10 OFFCURVE",
"417 40 OFFCURVE",
"417 155 CURVE SMOOTH",
"417 335 OFFCURVE",
"159 291 OFFCURVE",
"159 366 CURVE SMOOTH",
"159 389 OFFCURVE",
"183 408 OFFCURVE",
"222 408 CURVE SMOOTH",
"276 408 OFFCURVE",
"303 376 OFFCURVE",
"320 345 CURVE",
"413 396 LINE",
"376 463 OFFCURVE",
"311 503 OFFCURVE",
"226 503 CURVE SMOOTH",
"131 503 OFFCURVE",
"45 454 OFFCURVE",
"45 359 CURVE SMOOTH",
"45 176 OFFCURVE",
"299 231 OFFCURVE",
"299 148 CURVE SMOOTH",
"299 122 OFFCURVE",
"275 90 OFFCURVE",
"219 90 CURVE SMOOTH",
"153 90 OFFCURVE",
"127 135 OFFCURVE",
"114 171 CURVE",
"18 128 LINE",
"42 53 OFFCURVE",
"121 -10 OFFCURVE",
"225 -10 CURVE SMOOTH"
);
}
);
width = 448;
},
{
anchors = (
{
name = bottom;
position = "{235, 0}";
},
{
name = top;
position = "{235, 493}";
}
);
layerId = "AC39E679-6500-437B-9A87-662B1E841B74";
paths = (
{
closed = 1;
nodes = (
"335 -8 OFFCURVE",
"417 42 OFFCURVE",
"417 142 CURVE SMOOTH",
"417 329 OFFCURVE",
"132 255 OFFCURVE",
"132 372 CURVE SMOOTH",
"132 415 OFFCURVE",
"171 440 OFFCURVE",
"232 440 CURVE SMOOTH",
"293 440 OFFCURVE",
"332 412 OFFCURVE",
"356 368 CURVE",
"411 398 LINE",
"377 468 OFFCURVE",
"313 501 OFFCURVE",
"234 501 CURVE SMOOTH",
"135 501 OFFCURVE",
"65 448 OFFCURVE",
"65 362 CURVE SMOOTH",
"65 187 OFFCURVE",
"349 269 OFFCURVE",
"349 138 CURVE SMOOTH",
"349 86 OFFCURVE",
"306 53 OFFCURVE",
"239 53 CURVE SMOOTH",
"162 53 OFFCURVE",
"114 96 OFFCURVE",
"96 147 CURVE",
"38 121 LINE",
"64 42 OFFCURVE",
"143 -8 OFFCURVE",
"240 -8 CURVE SMOOTH"
);
}
);
width = 466;
},
{
anchors = (
{
name = bottom;
position = "{223, 0}";
},
{
name = top;
position = "{223, 493}";
}
);
layerId = "957254E3-B7AD-4837-9092-D4428001DE8E";
paths = (
{
closed = 1;
nodes = (
"307 -11 OFFCURVE",
"416 39 OFFCURVE",
"416 163 CURVE SMOOTH",
"416 349 OFFCURVE",
"174 300 OFFCURVE",
"174 365 CURVE SMOOTH",
"174 381 OFFCURVE",
"188 393 OFFCURVE",
"216 393 CURVE SMOOTH",
"265 393 OFFCURVE",
"285 353 OFFCURVE",
"297 331 CURVE",
"413 395 LINE",
"374 460 OFFCURVE",
"309 504 OFFCURVE",
"218 504 CURVE SMOOTH",
"129 504 OFFCURVE",
"32 461 OFFCURVE",
"32 350 CURVE SMOOTH",
"32 176 OFFCURVE",
"268 210 OFFCURVE",
"268 142 CURVE SMOOTH",
"268 127 OFFCURVE",
"256 109 OFFCURVE",
"214 109 CURVE SMOOTH",
"147 109 OFFCURVE",
"134 158 OFFCURVE",
"124 185 CURVE",
"5 132 LINE",
"28 60 OFFCURVE",
"106 -11 OFFCURVE",
"215 -11 CURVE SMOOTH"
);
}
);
width = 433;
}
);
leftKerningGroup = s;
note = s;
rightKerningGroup = s;
unicode = 0073;
},
{
color = 1;
glyphname = germandbls;
lastChange = "2019-09-11 19:22:09 +0000";
layers = (
{
layerId = "F91D9E91-C1BC-4259-B0D8-112C0CBA2B8E";
paths = (
{
closed = 1;
nodes = (
"501 -5 OFFCURVE",
"561 44 OFFCURVE",
"561 127 CURVE SMOOTH",
"561 324 OFFCURVE",
"236 211 OFFCURVE",
"236 382 CURVE SMOOTH",
"236 544 OFFCURVE",
"468 453 OFFCURVE",
"468 582 CURVE SMOOTH",
"468 650 OFFCURVE",
"393 707 OFFCURVE",
"291 707 CURVE SMOOTH",
"125 707 OFFCURVE",
"103 583 OFFCURVE",
"103 466 CURVE SMOOTH",
"103 0 LINE",
"113 0 LINE",
"113 466 LINE SMOOTH",
"113 579 OFFCURVE",
"132 697 OFFCURVE",
"291 697 CURVE SMOOTH",
"385 697 OFFCURVE",
"458 646 OFFCURVE",
"458 584 CURVE SMOOTH",
"458 462 OFFCURVE",
"226 552 OFFCURVE",
"226 382 CURVE SMOOTH",
"226 200 OFFCURVE",
"551 314 OFFCURVE",
"551 127 CURVE SMOOTH",
"551 51 OFFCURVE",
"495 5 OFFCURVE",
"402 5 CURVE SMOOTH",
"316 5 OFFCURVE",
"244 51 OFFCURVE",
"220 120 CURVE",
"210 116 LINE",
"236 42 OFFCURVE",
"312 -5 OFFCURVE",
"402 -5 CURVE SMOOTH"
);
}
);
width = 608;
},
{
layerId = "5EAB4D72-96CB-4765-AAD5-A13175319428";
paths = (
{
closed = 1;
nodes = (
"527 -10 OFFCURVE",
"626 40 OFFCURVE",
"626 155 CURVE SMOOTH",
"626 336 OFFCURVE",
"378 290 OFFCURVE",
"378 355 CURVE SMOOTH",
"378 407 OFFCURVE",
"572 394 OFFCURVE",
"572 553 CURVE SMOOTH",
"572 650 OFFCURVE",
"478 707 OFFCURVE",
"337 707 CURVE SMOOTH",
"106 707 OFFCURVE",
"71 553 OFFCURVE",
"71 435 CURVE SMOOTH",
"71 0 LINE",
"196 0 LINE",
"196 435 LINE SMOOTH",
"196 493 OFFCURVE",
"196 595 OFFCURVE",
"342 595 CURVE SMOOTH",
"400 595 OFFCURVE",
"454 579 OFFCURVE",
"454 544 CURVE SMOOTH",
"454 478 OFFCURVE",
"260 506 OFFCURVE",
"260 353 CURVE SMOOTH",
"260 180 OFFCURVE",
"508 231 OFFCURVE",
"508 148 CURVE SMOOTH",
"508 122 OFFCURVE",
"484 90 OFFCURVE",
"428 90 CURVE SMOOTH",
"362 90 OFFCURVE",
"336 135 OFFCURVE",
"323 171 CURVE",
"227 128 LINE",
"251 53 OFFCURVE",
"330 -10 OFFCURVE",
"434 -10 CURVE SMOOTH"
);
}
);
width = 640;
},
{
layerId = "AC39E679-6500-437B-9A87-662B1E841B74";
paths = (
{
closed = 1;
nodes = (
"520 -8 OFFCURVE",
"601 42 OFFCURVE",
"601 142 CURVE SMOOTH",
"601 330 OFFCURVE",
"317 253 OFFCURVE",
"317 368 CURVE SMOOTH",
"317 471 OFFCURVE",
"529 422 OFFCURVE",
"529 567 CURVE SMOOTH",
"529 650 OFFCURVE",
"443 707 OFFCURVE",
"321 707 CURVE SMOOTH",
"95 707 OFFCURVE",
"91 524 OFFCURVE",
"91 449 CURVE SMOOTH",
"91 0 LINE",
"162 0 LINE",
"162 449 LINE SMOOTH",
"162 525 OFFCURVE",
"167 643 OFFCURVE",
"323 643 CURVE SMOOTH",
"398 643 OFFCURVE",
"461 610 OFFCURVE",
"461 563 CURVE SMOOTH",
"461 471 OFFCURVE",
"249 527 OFFCURVE",
"249 367 CURVE SMOOTH",
"249 189 OFFCURVE",
"533 270 OFFCURVE",
"533 138 CURVE SMOOTH",
"533 89 OFFCURVE",
"494 50 OFFCURVE",
"421 50 CURVE SMOOTH",
"346 50 OFFCURVE",
"298 96 OFFCURVE",
"280 147 CURVE",
"224 122 LINE",
"249 48 OFFCURVE",
"327 -8 OFFCURVE",
"424 -8 CURVE SMOOTH"
);
}
);
width = 633;
},
{
layerId = "957254E3-B7AD-4837-9092-D4428001DE8E";
paths = (
{
closed = 1;
nodes = (
"528 -11 OFFCURVE",
"638 39 OFFCURVE",
"638 163 CURVE SMOOTH",
"638 340 OFFCURVE",
"412 315 OFFCURVE",
"412 344 CURVE SMOOTH",
"412 370 OFFCURVE",
"595 383 OFFCURVE",
"595 538 CURVE SMOOTH",
"595 653 OFFCURVE",
"495 707 OFFCURVE",
"346 707 CURVE SMOOTH",
"110 707 OFFCURVE",
"56 571 OFFCURVE",
"56 427 CURVE SMOOTH",
"56 0 LINE",
"213 0 LINE",
"213 427 LINE SMOOTH",
"213 480 OFFCURVE",
"210 566 OFFCURVE",
"358 566 CURVE SMOOTH",
"397 566 OFFCURVE",
"447 560 OFFCURVE",
"447 533 CURVE SMOOTH",
"447 481 OFFCURVE",
"264 495 OFFCURVE",
"264 344 CURVE SMOOTH",
"264 176 OFFCURVE",
"490 209 OFFCURVE",
"490 148 CURVE SMOOTH",
"490 132 OFFCURVE",
"475 114 OFFCURVE",
"435 114 CURVE SMOOTH",
"371 114 OFFCURVE",
"356 158 OFFCURVE",
"346 185 CURVE",
"226 132 LINE",
"249 56 OFFCURVE",
"329 -11 OFFCURVE",
"437 -11 CURVE SMOOTH"
);
}
);
width = 643;
}
);
leftKerningGroup = germandbls;
rightKerningGroup = germandbls;
unicode = 00DF;
},
{
color = 1;
glyphname = t;
lastChange = "2019-09-11 19:27:14 +0000";
layers = (
{
anchors = (
{
name = bottom;
position = "{161, 0}";
},
{
name = center;
position = "{135, 247}";
},
{
name = top;
position = "{141, 493}";
},
{
name = topright;
position = "{262, 579}";
}
);
layerId = "F91D9E91-C1BC-4259-B0D8-112C0CBA2B8E";
paths = (
{
closed = 1;
nodes = (
"200 -5 OFFCURVE",
"220 -1 OFFCURVE",
"242 6 CURVE",
"240 16 LINE",
"219 8 OFFCURVE",
"200 4 OFFCURVE",
"185 4 CURVE SMOOTH",
"145 4 OFFCURVE",
"125 30 OFFCURVE",
"125 90 CURVE SMOOTH",
"125 667 LINE",
"115 657 LINE",
"115 90 LINE SMOOTH",
"115 24 OFFCURVE",
"138 -5 OFFCURVE",
"184 -5 CURVE SMOOTH"
);
},
{
closed = 1;
nodes = (
"240 483 LINE",
"240 493 LINE",
"31 493 LINE",
"31 483 LINE"
);
}
);
width = 282;
},
{
anchors = (
{
name = bottom;
position = "{216, 0}";
},
{
name = center;
position = "{171, 247}";
},
{
name = top;
position = "{184, 493}";
},
{
name = topright;
position = "{347, 581}";
}
);
layerId = "5EAB4D72-96CB-4765-AAD5-A13175319428";
paths = (
{
closed = 1;
nodes = (
"273 -10 OFFCURVE",
"303 -5 OFFCURVE",
"333 5 CURVE",
"333 101 LINE",
"311 94 OFFCURVE",
"290 90 OFFCURVE",
"273 90 CURVE SMOOTH",
"234 90 OFFCURVE",
"210 108 OFFCURVE",
"210 147 CURVE SMOOTH",
"210 697 LINE",
"90 608 LINE",
"90 138 LINE SMOOTH",
"90 33 OFFCURVE",
"160 -10 OFFCURVE",
"243 -10 CURVE SMOOTH"
);
},
{
closed = 1;
nodes = (
"333 398 LINE",
"333 493 LINE",
"10 493 LINE",
"10 398 LINE"
);
}
);
width = 365;
},
{
anchors = (
{
name = bottom;
position = "{199, 0}";
},
{
name = center;
position = "{158, 247}";
},
{
name = top;
position = "{169, 493}";
},
{
name = topright;
position = "{313, 580}";
}
);
layerId = "AC39E679-6500-437B-9A87-662B1E841B74";
paths = (
{
closed = 1;
nodes = (
"244 -8 OFFCURVE",
"270 -3 OFFCURVE",
"296 5 CURVE",
"295 66 LINE",
"273 59 OFFCURVE",
"254 55 OFFCURVE",
"237 55 CURVE SMOOTH",
"198 55 OFFCURVE",
"176 77 OFFCURVE",
"176 125 CURVE SMOOTH",
"176 683 LINE",
"107 631 LINE",
"107 116 LINE SMOOTH",
"107 29 OFFCURVE",
"155 -8 OFFCURVE",
"221 -8 CURVE SMOOTH"
);
},
{
closed = 1;
nodes = (
"295 435 LINE",
"295 493 LINE",
"25 493 LINE",
"25 435 LINE"
);
}
);
width = 336;
},
{
anchors = (
{
name = bottom;
position = "{230, 0}";
},
{
name = center;
position = "{177, 248}";
},
{
name = top;
position = "{190, 493}";
},
{
name = topright;
position = "{364, 582}";
}
);
layerId = "957254E3-B7AD-4837-9092-D4428001DE8E";
paths = (
{
closed = 1;
nodes = (
"288 -11 OFFCURVE",
"320 -6 OFFCURVE",
"352 5 CURVE",
"353 122 LINE",
"331 115 OFFCURVE",
"309 111 OFFCURVE",
"289 111 CURVE SMOOTH",
"227 111 OFFCURVE",
"227 152 OFFCURVE",
"227 171 CURVE SMOOTH",
"227 697 LINE",
"77 586 LINE",
"77 157 LINE SMOOTH",
"77 31 OFFCURVE",
"160 -11 OFFCURVE",
"253 -11 CURVE SMOOTH"
);
},
{
closed = 1;
nodes = (
"353 376 LINE",
"353 493 LINE",
"-2 493 LINE",
"-2 376 LINE"
);
}
);
width = 378;
}
);
leftKerningGroup = t;
note = t;
rightKerningGroup = t;
unicode = 0074;
},
{
color = 1;
glyphname = u;
lastChange = "2019-09-11 19:21:56 +0000";
layers = (
{
anchors = (
{
name = bottom;
position = "{265, 0}";
},
{
name = ogonek;
position = "{427, 0}";
},
{
name = top;
position = "{259, 493}";
},
{
name = topright;
position = "{477, 475}";
}
);
layerId = "F91D9E91-C1BC-4259-B0D8-112C0CBA2B8E";
paths = (
{
closed = 1;
nodes = (
"336 -5 OFFCURVE",
"397 39 OFFCURVE",
"418 138 CURVE",
"417 138 LINE",
"417 0 LINE",
"427 0 LINE",
"427 493 LINE",
"417 493 LINE",
"417 230 LINE SMOOTH",
"417 74 OFFCURVE",
"353 5 OFFCURVE",
"250 5 CURVE SMOOTH",
"153 5 OFFCURVE",
"101 66 OFFCURVE",
"101 200 CURVE SMOOTH",
"101 493 LINE",
"91 493 LINE",
"91 198 LINE SMOOTH",
"91 55 OFFCURVE",
"152 -5 OFFCURVE",
"253 -5 CURVE SMOOTH"
);
}
);
width = 530;
},
{
anchors = (
{
name = bottom;
position = "{285, 0}";
},
{
name = ogonek;
position = "{501, 0}";
},
{
name = top;
position = "{279, 493}";
},
{
name = topright;
position = "{499, 413}";
}
);
layerId = "5EAB4D72-96CB-4765-AAD5-A13175319428";
paths = (
{
closed = 1;
nodes = (
"304 -10 OFFCURVE",
"369 20 OFFCURVE",
"401 91 CURVE",
"381 111 LINE",
"381 0 LINE",
"501 0 LINE",
"501 493 LINE",
"381 493 LINE",
"381 306 LINE SMOOTH",
"381 218 OFFCURVE",
"381 95 OFFCURVE",
"269 95 CURVE SMOOTH",
"178 95 OFFCURVE",
"178 181 OFFCURVE",
"178 215 CURVE SMOOTH",
"178 493 LINE",
"58 493 LINE",
"58 185 LINE SMOOTH",
"58 80 OFFCURVE",
"110 -10 OFFCURVE",
"234 -10 CURVE SMOOTH"
);
}
);
width = 571;
},
{
anchors = (
{
name = bottom;
position = "{281, 0}";
},
{
name = ogonek;
position = "{472, 0}";
},
{
name = top;
position = "{275, 493}";
},
{
name = topright;
position = "{494, 442}";
}
);
layerId = "AC39E679-6500-437B-9A87-662B1E841B74";
paths = (
{
closed = 1;
nodes = (
"321 -8 OFFCURVE",
"400 32 OFFCURVE",
"423 116 CURVE",
"403 116 LINE",
"403 0 LINE",
"472 0 LINE",
"472 493 LINE",
"403 493 LINE",
"403 266 LINE SMOOTH",
"403 138 OFFCURVE",
"354 53 OFFCURVE",
"256 53 CURVE SMOOTH",
"162 53 OFFCURVE",
"148 128 OFFCURVE",
"148 208 CURVE SMOOTH",
"148 493 LINE",
"79 493 LINE",
"79 191 LINE SMOOTH",
"79 69 OFFCURVE",
"128 -8 OFFCURVE",
"240 -8 CURVE SMOOTH"
);
}
);
width = 563;
},
{
anchors = (
{
name = bottom;
position = "{285, 0}";
},
{
name = ogonek;
position = "{516, 0}";
},
{
name = top;
position = "{279, 493}";
},
{
name = topright;
position = "{500, 396}";
}
);
layerId = "957254E3-B7AD-4837-9092-D4428001DE8E";
paths = (
{
closed = 1;
nodes = (
"291 -11 OFFCURVE",
"348 13 OFFCURVE",
"385 76 CURVE",
"365 108 LINE",
"365 0 LINE",
"516 0 LINE",
"516 493 LINE",
"365 493 LINE",
"365 330 LINE SMOOTH",
"365 213 OFFCURVE",
"365 120 OFFCURVE",
"274 120 CURVE SMOOTH",
"201 120 OFFCURVE",
"194 171 OFFCURVE",
"194 219 CURVE SMOOTH",
"194 493 LINE",
"43 493 LINE",
"43 188 LINE SMOOTH",
"43 72 OFFCURVE",
"97 -11 OFFCURVE",
"228 -11 CURVE SMOOTH"
);
}
);
width = 572;
}
);
leftKerningGroup = u;
note = u;
rightKerningGroup = u;
unicode = 0075;
},
{
color = 1;
glyphname = v;
lastChange = "2019-09-11 19:22:10 +0000";
layers = (
{
anchors = (
{
name = bottom;
position = "{246, 0}";
},
{
name = top;
position = "{246, 493}";
}
);
layerId = "F91D9E91-C1BC-4259-B0D8-112C0CBA2B8E";
paths = (
{
closed = 1;
nodes = (
"252 0 LINE",
"454 493 LINE",
"441 493 LINE",
"245 10 LINE",
"49 493 LINE",
"37 493 LINE",
"239 0 LINE"
);
}
);
width = 491;
},
{
anchors = (
{
name = bottom;
position = "{246, 0}";
},
{
name = top;
position = "{246, 493}";
}
);
layerId = "5EAB4D72-96CB-4765-AAD5-A13175319428";
paths = (
{
closed = 1;
nodes = (
"295 0 LINE",
"496 493 LINE",
"366 493 LINE",
"245 156 LINE",
"126 493 LINE",
"-5 493 LINE",
"196 0 LINE"
);
}
);
width = 491;
},
{
anchors = (
{
name = bottom;
position = "{251, 0}";
},
{
name = top;
position = "{251, 493}";
}
);
layerId = "AC39E679-6500-437B-9A87-662B1E841B74";
paths = (
{
closed = 1;
nodes = (
"280 0 LINE",
"482 493 LINE",
"406 493 LINE",
"250 88 LINE",
"95 493 LINE",
"20 493 LINE",
"221 0 LINE"
);
}
);
width = 502;
},
{
anchors = (
{
name = bottom;
position = "{244, 0}";
},
{
name = top;
position = "{244, 493}";
}
);
layerId = "957254E3-B7AD-4837-9092-D4428001DE8E";
paths = (
{
closed = 1;
nodes = (
"305 0 LINE",
"505 493 LINE",
"343 493 LINE",
"243 197 LINE",
"146 493 LINE",
"-19 493 LINE",
"182 0 LINE"
);
}
);
width = 486;
}
);
leftKerningGroup = v;
note = v;
rightKerningGroup = v;
unicode = 0076;
},
{
color = 1;
glyphname = w;
lastChange = "2019-09-11 19:22:09 +0000";
layers = (
{
anchors = (
{
name = bottom;
position = "{369, 0}";
},
{
name = top;
position = "{369, 493}";
}
);
layerId = "F91D9E91-C1BC-4259-B0D8-112C0CBA2B8E";
paths = (
{
closed = 1;
nodes = (
"197 0 LINE",
"370 483 LINE",
"541 0 LINE",
"557 0 LINE",
"692 493 LINE",
"681 493 LINE",
"549 12 LINE",
"378 493 LINE",
"362 493 LINE",
"190 12 LINE",
"58 493 LINE",
"46 493 LINE",
"182 0 LINE"
);
}
);
width = 738;
},
{
anchors = (
{
name = bottom;
position = "{361, 0}";
},
{
name = top;
position = "{361, 493}";
}
);
layerId = "5EAB4D72-96CB-4765-AAD5-A13175319428";
paths = (
{
closed = 1;
nodes = (
"264 0 LINE",
"361 323 LINE",
"458 0 LINE",
"566 0 LINE",
"718 493 LINE",
"590 493 LINE",
"505 185 LINE",
"412 493 LINE",
"309 493 LINE",
"216 184 LINE",
"132 493 LINE",
"4 493 LINE",
"156 0 LINE"
);
}
);
width = 722;
},
{
anchors = (
{
name = bottom;
position = "{369, 0}";
},
{
name = top;
position = "{369, 493}";
}
);
layerId = "AC39E679-6500-437B-9A87-662B1E841B74";
paths = (
{
closed = 1;
nodes = (
"237 0 LINE",
"370 398 LINE",
"501 0 LINE",
"566 0 LINE",
"710 493 LINE",
"637 493 LINE",
"530 104 LINE",
"401 493 LINE",
"338 493 LINE",
"208 104 LINE",
"102 493 LINE",
"28 493 LINE",
"173 0 LINE"
);
}
);
width = 739;
},
{
anchors = (
{
name = bottom;
position = "{355, 0}";
},
{
name = top;
position = "{355, 493}";
}
);
layerId = "957254E3-B7AD-4837-9092-D4428001DE8E";
paths = (
{
closed = 1;
nodes = (
"279 0 LINE",
"354 278 LINE",
"431 0 LINE",
"564 0 LINE",
"721 493 LINE",
"560 493 LINE",
"488 234 LINE",
"417 493 LINE",
"290 493 LINE",
"219 232 LINE",
"148 493 LINE",
"-12 493 LINE",
"144 0 LINE"
);
}
);
width = 709;
}
);
leftKerningGroup = w;
note = w;
rightKerningGroup = w;
unicode = 0077;
},
{
color = 1;
glyphname = x;
lastChange = "2019-09-11 19:21:56 +0000";
layers = (
{
anchors = (
{
name = bottom;
position = "{240, 0}";
},
{
name = top;
position = "{240, 493}";
}
);
layerId = "F91D9E91-C1BC-4259-B0D8-112C0CBA2B8E";
paths = (
{
closed = 1;
nodes = (
"55 0 LINE",
"240 238 LINE",
"427 0 LINE",
"440 0 LINE",
"246 246 LINE",
"439 493 LINE",
"426 493 LINE",
"240 255 LINE",
"54 493 LINE",
"41 493 LINE",
"234 246 LINE",
"41 0 LINE"
);
}
);
width = 480;
},
{
anchors = (
{
name = bottom;
position = "{252, 0}";
},
{
name = top;
position = "{252, 493}";
}
);
layerId = "5EAB4D72-96CB-4765-AAD5-A13175319428";
paths = (
{
closed = 1;
nodes = (
"150 0 LINE",
"252 166 LINE",
"354 0 LINE",
"501 0 LINE",
"331 248 LINE",
"501 493 LINE",
"354 493 LINE",
"252 330 LINE",
"150 493 LINE",
"3 493 LINE",
"172 248 LINE",
"3 0 LINE"
);
}
);
width = 504;
},
{
anchors = (
{
name = bottom;
position = "{252, 0}";
},
{
name = top;
position = "{252, 493}";
}
);
layerId = "AC39E679-6500-437B-9A87-662B1E841B74";
paths = (
{
closed = 1;
nodes = (
"111 0 LINE",
"252 200 LINE",
"393 0 LINE",
"478 0 LINE",
"297 247 LINE",
"477 493 LINE",
"393 493 LINE",
"252 295 LINE",
"110 493 LINE",
"26 493 LINE",
"206 247 LINE",
"26 0 LINE"
);
}
);
width = 503;
},
{
anchors = (
{
name = bottom;
position = "{254, 0}";
},
{
name = top;
position = "{254, 493}";
}
);
layerId = "957254E3-B7AD-4837-9092-D4428001DE8E";
paths = (
{
closed = 1;
nodes = (
"175 0 LINE",
"254 146 LINE",
"332 0 LINE",
"517 0 LINE",
"353 249 LINE",
"517 493 LINE",
"332 493 LINE",
"254 351 LINE",
"176 493 LINE",
"-9 493 LINE",
"153 249 LINE",
"-9 0 LINE"
);
}
);
width = 507;
}
);
leftKerningGroup = x;
note = x;
rightKerningGroup = x;
unicode = 0078;
},
{
color = 1;
glyphname = y;
lastChange = "2019-09-11 19:22:08 +0000";
layers = (
{
anchors = (
{
name = bottom;
position = "{396, -30}";
},
{
name = top;
position = "{247, 493}";
}
);
guideLines = (
{
position = "{381, -204}";
}
);
layerId = "F91D9E91-C1BC-4259-B0D8-112C0CBA2B8E";
paths = (
{
closed = 1;
nodes = (
"198 -204 LINE",
"455 493 LINE",
"444 493 LINE",
"268 14 LINE",
"46 493 LINE",
"35 493 LINE",
"262 -1 LINE",
"187 -204 LINE"
);
}
);
width = 494;
},
{
anchors = (
{
name = bottom;
position = "{410, -31}";
},
{
name = top;
position = "{253, 493}";
}
);
guideLines = (
{
position = "{381, -204}";
}
);
layerId = "5EAB4D72-96CB-4765-AAD5-A13175319428";
paths = (
{
closed = 1;
nodes = (
"230 -204 LINE",
"510 493 LINE",
"378 493 LINE",
"252 151 LINE",
"127 493 LINE",
"-5 493 LINE",
"188 13 LINE",
"100 -204 LINE"
);
}
);
width = 505;
},
{
anchors = (
{
name = bottom;
position = "{408, -31}";
},
{
name = top;
position = "{255, 493}";
}
);
guideLines = (
{
position = "{385, -204}";
}
);
layerId = "AC39E679-6500-437B-9A87-662B1E841B74";
paths = (
{
closed = 1;
nodes = (
"219 -204 LINE",
"489 493 LINE",
"413 493 LINE",
"264 87 LINE",
"94 493 LINE",
"18 493 LINE",
"227 6 LINE",
"145 -204 LINE"
);
}
);
width = 510;
},
{
anchors = (
{
name = bottom;
position = "{412, -31}";
},
{
name = top;
position = "{253, 493}";
}
);
guideLines = (
{
position = "{382, -204}";
}
);
layerId = "957254E3-B7AD-4837-9092-D4428001DE8E";
paths = (
{
closed = 1;
nodes = (
"237 -204 LINE",
"523 493 LINE",
"358 493 LINE",
"246 189 LINE",
"148 493 LINE",
"-18 493 LINE",
"165 17 LINE",
"74 -204 LINE"
);
}
);
width = 503;
}
);
leftKerningGroup = y;
note = y;
rightKerningGroup = y;
unicode = 0079;
},
{
color = 1;
glyphname = z;
lastChange = "2019-09-11 19:22:09 +0000";
layers = (
{
anchors = (
{
name = bottom;
position = "{233, 0}";
},
{
name = center;
position = "{233, 247}";
},
{
name = top;
position = "{233, 493}";
}
);
layerId = "F91D9E91-C1BC-4259-B0D8-112C0CBA2B8E";
paths = (
{
closed = 1;
nodes = (
"419 0 LINE",
"419 10 LINE",
"49 10 LINE",
"49 12 LINE",
"424 474 LINE",
"424 493 LINE",
"58 493 LINE",
"58 483 LINE",
"414 483 LINE",
"414 478 LINE",
"38 16 LINE",
"38 0 LINE"
);
}
);
width = 466;
},
{
anchors = (
{
name = bottom;
position = "{228, 0}";
},
{
name = center;
position = "{228, 247}";
},
{
name = top;
position = "{228, 493}";
}
);
layerId = "5EAB4D72-96CB-4765-AAD5-A13175319428";
paths = (
{
closed = 1;
nodes = (
"424 0 LINE",
"424 101 LINE",
"139 101 LINE",
"155 62 LINE",
"423 407 LINE",
"423 493 LINE",
"39 493 LINE",
"39 392 LINE",
"316 392 LINE",
"301 424 LINE",
"27 80 LINE",
"27 0 LINE"
);
}
);
width = 457;
},
{
anchors = (
{
name = bottom;
position = "{244, 0}";
},
{
name = center;
position = "{244, 247}";
},
{
name = top;
position = "{244, 493}";
}
);
layerId = "AC39E679-6500-437B-9A87-662B1E841B74";
paths = (
{
closed = 1;
nodes = (
"445 0 LINE",
"445 59 LINE",
"100 59 LINE",
"109 39 LINE",
"447 438 LINE",
"447 493 LINE",
"52 493 LINE",
"52 434 LINE",
"384 434 LINE",
"376 449 LINE",
"35 50 LINE",
"35 0 LINE"
);
}
);
width = 487;
},
{
anchors = (
{
name = bottom;
position = "{230, 0}";
},
{
name = center;
position = "{230, 247}";
},
{
name = top;
position = "{230, 493}";
}
);
layerId = "957254E3-B7AD-4837-9092-D4428001DE8E";
paths = (
{
closed = 1;
nodes = (
"433 0 LINE",
"433 126 LINE",
"163 126 LINE",
"183 76 LINE",
"432 388 LINE",
"432 493 LINE",
"31 493 LINE",
"31 367 LINE",
"295 367 LINE",
"276 409 LINE",
"21 98 LINE",
"21 0 LINE"
);
}
);
width = 461;
}
);
leftKerningGroup = z;
note = z;
rightKerningGroup = z;
unicode = 007A;
},
{
color = 1;
glyphname = g.ss01;
lastChange = "2019-09-11 19:22:09 +0000";
layers = (
{
anchors = (
{
name = bottom;
position = "{307, -254}";
},
{
name = top;
position = "{306, 493}";
}
);
guideLines = (
{
position = "{380, -204}";
}
);
layerId = "F91D9E91-C1BC-4259-B0D8-112C0CBA2B8E";
paths = (
{
closed = 1;
nodes = (
"412 -209 OFFCURVE",
"510 -103 OFFCURVE",
"510 40 CURVE SMOOTH",
"510 493 LINE",
"500 493 LINE",
"500 321 LINE",
"501 322 LINE",
"475 426 OFFCURVE",
"392 498 OFFCURVE",
"287 498 CURVE SMOOTH",
"159 498 OFFCURVE",
"61 390 OFFCURVE",
"61 252 CURVE SMOOTH",
"61 114 OFFCURVE",
"159 5 OFFCURVE",
"287 5 CURVE SMOOTH",
"392 5 OFFCURVE",
"475 77 OFFCURVE",
"501 182 CURVE",
"500 183 LINE",
"500 40 LINE SMOOTH",
"500 -97 OFFCURVE",
"407 -199 OFFCURVE",
"284 -199 CURVE SMOOTH",
"194 -199 OFFCURVE",
"120 -147 OFFCURVE",
"87 -64 CURVE",
"79 -70 LINE",
"114 -156 OFFCURVE",
"191 -209 OFFCURVE",
"284 -209 CURVE SMOOTH"
);
},
{
closed = 1;
nodes = (
"164 15 OFFCURVE",
"71 120 OFFCURVE",
"71 252 CURVE SMOOTH",
"71 384 OFFCURVE",
"164 488 OFFCURVE",
"287 488 CURVE SMOOTH",
"409 488 OFFCURVE",
"500 385 OFFCURVE",
"500 252 CURVE SMOOTH",
"500 119 OFFCURVE",
"409 15 OFFCURVE",
"287 15 CURVE SMOOTH"
);
}
);
width = 613;
},
{
anchors = (
{
name = bottom;
position = "{287, -254}";
},
{
name = top;
position = "{287, 493}";
}
);
guideLines = (
{
position = "{381, -204}";
},
{
angle = 90;
position = "{42, 262}";
}
);
layerId = "5EAB4D72-96CB-4765-AAD5-A13175319428";
paths = (
{
closed = 1;
nodes = (
"408 -216 OFFCURVE",
"502 -135 OFFCURVE",
"502 20 CURVE SMOOTH",
"502 493 LINE",
"381 493 LINE",
"381 389 LINE",
"402 410 LINE",
"371 477 OFFCURVE",
"304 503 OFFCURVE",
"240 503 CURVE SMOOTH",
"104 503 OFFCURVE",
"29 393 OFFCURVE",
"29 257 CURVE SMOOTH",
"29 119 OFFCURVE",
"104 10 OFFCURVE",
"242 10 CURVE SMOOTH",
"307 10 OFFCURVE",
"369 36 OFFCURVE",
"402 104 CURVE",
"381 124 LINE",
"381 0 LINE SMOOTH",
"381 -77 OFFCURVE",
"331 -111 OFFCURVE",
"264 -111 CURVE SMOOTH",
"192 -111 OFFCURVE",
"154 -68 OFFCURVE",
"134 -34 CURVE",
"42 -110 LINE",
"86 -171 OFFCURVE",
"149 -216 OFFCURVE",
"260 -216 CURVE SMOOTH"
);
},
{
closed = 1;
nodes = (
"190 121 OFFCURVE",
"151 174 OFFCURVE",
"151 257 CURVE SMOOTH",
"151 338 OFFCURVE",
"189 394 OFFCURVE",
"269 394 CURVE SMOOTH",
"356 394 OFFCURVE",
"391 329 OFFCURVE",
"391 257 CURVE SMOOTH",
"391 184 OFFCURVE",
"356 121 OFFCURVE",
"269 121 CURVE SMOOTH"
);
}
);
width = 573;
},
{
anchors = (
{
name = bottom;
position = "{296, -254}";
},
{
name = top;
position = "{296, 493}";
}
);
guideLines = (
{
position = "{375, -204}";
},
{
angle = 90;
position = "{62, 247}";
}
);
layerId = "AC39E679-6500-437B-9A87-662B1E841B74";
paths = (
{
closed = 1;
nodes = (
"424 -213 OFFCURVE",
"503 -120 OFFCURVE",
"503 29 CURVE SMOOTH",
"503 493 LINE",
"434 493 LINE",
"434 423 LINE",
"436 425 LINE",
"399 474 OFFCURVE",
"342 502 OFFCURVE",
"271 502 CURVE SMOOTH",
"134 502 OFFCURVE",
"52 401 OFFCURVE",
"52 247 CURVE SMOOTH",
"52 100 OFFCURVE",
"127 -8 OFFCURVE",
"271 -8 CURVE SMOOTH",
"344 -8 OFFCURVE",
"400 21 OFFCURVE",
"436 68 CURVE",
"434 70 LINE",
"434 10 LINE SMOOTH",
"434 -86 OFFCURVE",
"382 -152 OFFCURVE",
"284 -152 CURVE SMOOTH",
"197 -152 OFFCURVE",
"135 -100 OFFCURVE",
"113 -48 CURVE",
"60 -91 LINE",
"97 -161 OFFCURVE",
"175 -213 OFFCURVE",
"282 -213 CURVE SMOOTH"
);
},
{
closed = 1;
nodes = (
"176 53 OFFCURVE",
"121 135 OFFCURVE",
"121 247 CURVE SMOOTH",
"121 364 OFFCURVE",
"181 441 OFFCURVE",
"281 441 CURVE SMOOTH",
"380 441 OFFCURVE",
"440 364 OFFCURVE",
"440 247 CURVE SMOOTH",
"440 135 OFFCURVE",
"385 53 OFFCURVE",
"281 53 CURVE SMOOTH"
);
}
);
width = 594;
},
{
anchors = (
{
name = bottom;
position = "{281, -254}";
},
{
name = top;
position = "{281, 493}";
}
);
guideLines = (
{
position = "{383, -204}";
},
{
angle = 90;
position = "{44, 262}";
}
);
layerId = "957254E3-B7AD-4837-9092-D4428001DE8E";
paths = (
{
closed = 1;
nodes = (
"403 -218 OFFCURVE",
"501 -144 OFFCURVE",
"501 15 CURVE SMOOTH",
"501 493 LINE",
"349 493 LINE",
"349 369 LINE",
"381 401 LINE",
"353 480 OFFCURVE",
"281 504 OFFCURVE",
"218 504 CURVE SMOOTH",
"88 504 OFFCURVE",
"15 403 OFFCURVE",
"15 259 CURVE SMOOTH",
"15 112 OFFCURVE",
"91 17 OFFCURVE",
"222 17 CURVE SMOOTH",
"286 17 OFFCURVE",
"349 40 OFFCURVE",
"381 122 CURVE",
"349 152 LINE",
"349 15 LINE SMOOTH",
"349 -72 OFFCURVE",
"298 -86 OFFCURVE",
"257 -86 CURVE SMOOTH",
"189 -86 OFFCURVE",
"160 -48 OFFCURVE",
"139 -18 CURVE",
"22 -110 LINE",
"64 -163 OFFCURVE",
"127 -218 OFFCURVE",
"255 -218 CURVE SMOOTH"
);
},
{
closed = 1;
nodes = (
"197 148 OFFCURVE",
"169 193 OFFCURVE",
"169 259 CURVE SMOOTH",
"169 322 OFFCURVE",
"194 376 OFFCURVE",
"267 376 CURVE SMOOTH",
"339 376 OFFCURVE",
"361 323 OFFCURVE",
"361 260 CURVE SMOOTH",
"361 195 OFFCURVE",
"337 148 OFFCURVE",
"267 148 CURVE SMOOTH"
);
}
);
width = 558;
}
);
note = g.ss01;
},
